M48
;Layer_Color=9474304
;FILE_FORMAT=4:4
METRIC,LZ
;TYPE=PLATED
T01F00S00C0.5080
T03F00S00C0.7112
T04F00S00C0.7330
T06F00S00C1.0200
T07F00S00C1.1000
T08F00S00C1.1430
T09F00S00C1.2000
T10F00S00C3.5560
;TYPE=NON_PLATED
T11F00S00C0.8000
%
T01
X00472275Y002667
X0060452Y0032385
X0061341Y0038989
X0058039Y0038354
X0055372Y0038989
X0076073Y0038862
X0075946Y0035687
X007874Y0037338
X0070993Y0029337
X0079502Y0035433
X0083058Y0037846
X0087122Y0036576
X0087376Y0034417
X0096647Y0036195
X0097155Y0032639
X0096647Y0026797
X0114427Y0031115
X0112776Y003556
X0112522Y0037084
X0112141Y0038354
X0118745Y0036576
X0119761Y003937
X0123698Y0035179
X01235492Y0041529
Y0053467
Y0065405
Y0077343
X0113665Y0075438
X0111379
X0111125Y0064135
X0112903Y0064262
X0115824Y0066929
Y0052705
X0111125Y0054229
X010922Y0048006
X0112776Y0047117
X011684Y0039751
X00986252Y0046355
X0098679Y0048514
X0095758
Y0046355
X0103632Y0058928
X0104521Y0063119
X0089535Y0062738
X0074676Y00635
X0073152Y0064389
X007366Y0058801
X0068326Y0055626
Y005334
X00700097Y00438477
X0071628Y0040894
X0063968Y0044069
X0057658Y0041529
X0053467Y0043053
X0049403Y0044069
X0041148Y0045339
X0041783Y0055499
Y0057658
Y0059817
X0049657Y0059436
X00496824Y00580136
X0053213Y0057785
X00530796Y00599376
X0049911Y0064135
X00592798Y0065151
X0060579Y0066802
X0061849Y0063754
X0065532Y0067437
X0056515Y0053721
X0055245Y0048514
X0045593Y0054102
X00417522Y00691842
X0038227Y0071374
X0036068Y0075438
X0028829Y0070612
X003937Y0064643
X0034671Y0059817
Y0057658
X0032766Y0056261
X0036195Y0055118
X0038354Y0053848
X0035433Y0040513
X0028702Y0045085
X0027559Y0082677
X0031235Y008497
X0031623Y0093472
X0029083Y0094361
X0038735Y0090678
X0042545Y0094996
X0056642Y0091313
X0074295Y0093599
X0074041Y0083947
X0075057Y0110363
X006223Y0113411
X0080391Y0094996
X0080137Y0092837
X0081534Y0087757
X00807393Y00839143
X0079502Y0083439
X0079375Y0082296
X0083439Y0082804
X0099695Y00840115
X0098298Y0080137
X0113157Y008001
X0113919Y0088138
X0113157Y0105156
X0111252Y0109347
X0117856Y0108077
X01235492Y0101219
Y0089281
T03
X0028702Y0057658
Y0059817
T04
X0080645Y0043275
X0083185
X0085725
X0088265
X0090805
X0093345
X0095885
X0098425
X0100965
X0103505
X0106045
X0108585
X0111125
Y0051213
X0108585
X0106045
X0103505
X0100965
X0098425
X0095885
X0093345
X0090805
X0088265
X0085725
X0083185
X0080645
X0078105
Y0043275
T06
X0074549Y0029591
X0077089
X0079629
X0082169
X0084709
X0087249
X0089789
X0092329
X0098425
X0100965
X0103505
X0106045
X0108585
X0111125
X007747Y0116459
X007493
X007239
X006985
X006731
X006477
X006223
X005969
X005715
X008001
X008712Y0116459
X008966
X00922
X009474
X009728
X009982
X010236
X01049
T07
X0045593Y0036957
X0048133
X0050673
X0119888Y0042672
Y0045212
Y0047752
Y005461
Y005715
Y005969
Y0066548
Y0069088
Y0071628
Y0078486
X00898473Y00785251
X00873073
Y00759851
X00898473
Y00734451
X00873073
Y00709051
X00898473
X0081026Y0078054
X0078486
X0075946
X00691073Y00785251
X00665673
Y00759851
X00691073
Y00734451
X00665673
Y00709051
X00691073
X0057404Y0069596
X0054864
Y0067056
X0057404
X0035179Y0077978
X0032639
X0030099
Y0080518
X0032639
X0035179
Y0087122
X0032639
X0030099
Y0089662
X0032639
X0035179
X0040894Y0087503
Y0084963
Y0082423
Y0079883
X00665673Y00810651
Y00836051
Y00861451
Y00886851
Y00912251
Y00937651
X00691073
Y00963051
Y00988451
Y01013851
Y01039251
Y01064651
X00665673
Y01039251
Y01013851
Y00988451
Y00963051
X00691073Y00912251
Y00886851
Y00861451
Y00836051
Y00810651
X00873073
Y00836051
Y00861451
Y00886851
Y00912251
Y00937651
X00898473
Y00963051
Y00988451
Y01013851
Y01039251
Y01064651
X00873073
Y01039251
Y01013851
Y00988451
Y00963051
X00898473Y00912251
Y00886851
Y00861451
Y00836051
Y00810651
X0109474Y0112522
X0112014
X0114554
X0119888Y0109982
Y0107442
Y0104902
Y0102362
Y0095504
Y0092964
Y0090424
Y0083566
Y0081026
T08
X0028194Y00508
Y006604
T09
X0030988Y0038481
X0054202Y0034758
Y0029758
X0066702
Y0034758
X0101673Y0056976
Y0061976
X0114173
Y0056976
X0030988Y0042291
T10
X002921Y002921
X0118745
X002921Y0117475
X0118745
T11
X0030679Y005592
Y006092
M30
