%TF.GenerationSoftware,Altium Limited,Altium Designer,24.3.1 (35)*%
G04 Layer_Physical_Order=2*
G04 Layer_Color=16711680*
%FSLAX45Y45*%
%MOMM*%
%TF.SameCoordinates,7E0553B6-A888-4128-BDB4-EB5F29F5F182*%
%TF.FilePolarity,Positive*%
%TF.FileFunction,Copper,L2,Bot,Signal*%
%TF.Part,Single*%
G01*
G75*
%TA.AperFunction,Conductor*%
%ADD29C,1.77800*%
%ADD30C,0.25400*%
%ADD36C,1.01600*%
%ADD37C,0.63500*%
%TA.AperFunction,ComponentPad*%
%ADD38C,1.65000*%
G04:AMPARAMS|DCode=39|XSize=1.65mm|YSize=1.65mm|CornerRadius=0.4125mm|HoleSize=0mm|Usage=FLASHONLY|Rotation=90.000|XOffset=0mm|YOffset=0mm|HoleType=Round|Shape=RoundedRectangle|*
%AMROUNDEDRECTD39*
21,1,1.65000,0.82500,0,0,90.0*
21,1,0.82500,1.65000,0,0,90.0*
1,1,0.82500,0.41250,0.41250*
1,1,0.82500,0.41250,-0.41250*
1,1,0.82500,-0.41250,-0.41250*
1,1,0.82500,-0.41250,0.41250*
%
%ADD39ROUNDEDRECTD39*%
G04:AMPARAMS|DCode=40|XSize=1.6mm|YSize=1.6mm|CornerRadius=0.4mm|HoleSize=0mm|Usage=FLASHONLY|Rotation=0.000|XOffset=0mm|YOffset=0mm|HoleType=Round|Shape=RoundedRectangle|*
%AMROUNDEDRECTD40*
21,1,1.60000,0.80000,0,0,0.0*
21,1,0.80000,1.60000,0,0,0.0*
1,1,0.80000,0.40000,-0.40000*
1,1,0.80000,-0.40000,-0.40000*
1,1,0.80000,-0.40000,0.40000*
1,1,0.80000,0.40000,0.40000*
%
%ADD40ROUNDEDRECTD40*%
%ADD41C,1.60000*%
%ADD42C,1.80000*%
G04:AMPARAMS|DCode=43|XSize=1.6mm|YSize=1.6mm|CornerRadius=0.4mm|HoleSize=0mm|Usage=FLASHONLY|Rotation=90.000|XOffset=0mm|YOffset=0mm|HoleType=Round|Shape=RoundedRectangle|*
%AMROUNDEDRECTD43*
21,1,1.60000,0.80000,0,0,90.0*
21,1,0.80000,1.60000,0,0,90.0*
1,1,0.80000,0.40000,0.40000*
1,1,0.80000,0.40000,-0.40000*
1,1,0.80000,-0.40000,-0.40000*
1,1,0.80000,-0.40000,0.40000*
%
%ADD43ROUNDEDRECTD43*%
%ADD44C,2.28600*%
%TA.AperFunction,ViaPad*%
%ADD45C,1.80000*%
%TA.AperFunction,ComponentPad*%
%ADD46C,1.52000*%
G04:AMPARAMS|DCode=47|XSize=1.52mm|YSize=1.52mm|CornerRadius=0.38mm|HoleSize=0mm|Usage=FLASHONLY|Rotation=0.000|XOffset=0mm|YOffset=0mm|HoleType=Round|Shape=RoundedRectangle|*
%AMROUNDEDRECTD47*
21,1,1.52000,0.76000,0,0,0.0*
21,1,0.76000,1.52000,0,0,0.0*
1,1,0.76000,0.38000,-0.38000*
1,1,0.76000,-0.38000,-0.38000*
1,1,0.76000,-0.38000,0.38000*
1,1,0.76000,0.38000,0.38000*
%
%ADD47ROUNDEDRECTD47*%
%ADD48R,1.65000X1.65000*%
%ADD49C,5.71500*%
%ADD50R,1.13300X1.13300*%
%ADD51C,1.13300*%
%ADD52O,2.00000X1.45000*%
%ADD53O,1.80000X1.15000*%
%ADD54C,0.80000*%
%TA.AperFunction,ViaPad*%
%ADD55C,1.27000*%
%ADD56C,0.76200*%
%TA.AperFunction,Conductor*%
%ADD57C,0.38100*%
G36*
X12433300Y12115800D02*
Y11595100D01*
X12268200D01*
X12255500Y11582400D01*
Y10277028D01*
X12242800Y10266844D01*
X12240621Y10267277D01*
X12087712D01*
Y10276200D01*
X12083228Y10298744D01*
X12070457Y10317857D01*
X12051344Y10330628D01*
X12028800Y10335112D01*
X11948800D01*
X11926256Y10330628D01*
X11907143Y10317857D01*
X11894372Y10298744D01*
X11889888Y10276200D01*
Y10196200D01*
X11894372Y10173656D01*
X11907143Y10154543D01*
X11926256Y10141772D01*
X11948800Y10137288D01*
X12028800D01*
X12051344Y10141772D01*
X12070457Y10154543D01*
X12083228Y10173656D01*
X12087712Y10196200D01*
Y10205123D01*
X12227748D01*
X12255500Y10177371D01*
Y9083228D01*
X12242800Y9073044D01*
X12240621Y9073477D01*
X12087712D01*
Y9082400D01*
X12083228Y9104944D01*
X12070457Y9124057D01*
X12051344Y9136828D01*
X12028800Y9141312D01*
X11948800D01*
X11926256Y9136828D01*
X11907143Y9124057D01*
X11894372Y9104944D01*
X11889888Y9082400D01*
Y9002400D01*
X11894372Y8979856D01*
X11907143Y8960743D01*
X11926256Y8947972D01*
X11948800Y8943488D01*
X12028800D01*
X12051344Y8947972D01*
X12070457Y8960743D01*
X12083228Y8979856D01*
X12087712Y9002400D01*
Y9011323D01*
X12227748D01*
X12255500Y8983571D01*
Y7889428D01*
X12242800Y7879244D01*
X12240621Y7879677D01*
X12087712D01*
Y7888600D01*
X12083228Y7911144D01*
X12070457Y7930257D01*
X12051344Y7943028D01*
X12028800Y7947512D01*
X11948800D01*
X11926256Y7943028D01*
X11907143Y7930257D01*
X11894372Y7911144D01*
X11889888Y7888600D01*
Y7808600D01*
X11894372Y7786056D01*
X11907143Y7766943D01*
X11926256Y7754172D01*
X11948800Y7749688D01*
X12028800D01*
X12051344Y7754172D01*
X12070457Y7766943D01*
X12083228Y7786056D01*
X12087712Y7808600D01*
Y7817523D01*
X12227748D01*
X12255500Y7789771D01*
Y7678829D01*
X12151548Y7574877D01*
X11414112D01*
X11413873Y7575453D01*
X11398153Y7591173D01*
X11377615Y7599680D01*
X11355385D01*
X11334847Y7591173D01*
X11319127Y7575453D01*
X11310620Y7554915D01*
Y7532685D01*
X11319127Y7512147D01*
X11334847Y7496427D01*
X11355385Y7487920D01*
X11377615D01*
X11398153Y7496427D01*
X11413873Y7512147D01*
X11414112Y7512723D01*
X12164421D01*
X12176314Y7515088D01*
X12186396Y7521825D01*
X12243767Y7579196D01*
X12255500Y7574336D01*
Y6695628D01*
X12242800Y6685444D01*
X12240621Y6685877D01*
X12087712D01*
Y6694800D01*
X12083228Y6717344D01*
X12070457Y6736457D01*
X12051344Y6749228D01*
X12028800Y6753712D01*
X11948800D01*
X11926256Y6749228D01*
X11907143Y6736457D01*
X11894372Y6717344D01*
X11889888Y6694800D01*
Y6614800D01*
X11894372Y6592256D01*
X11907143Y6573143D01*
X11926256Y6560372D01*
X11948800Y6555888D01*
X12028800D01*
X12051344Y6560372D01*
X12070457Y6573143D01*
X12083228Y6592256D01*
X12087712Y6614800D01*
Y6623723D01*
X12227748D01*
X12255500Y6595971D01*
Y5501828D01*
X12242800Y5491644D01*
X12240621Y5492077D01*
X12087712D01*
Y5501000D01*
X12083228Y5523544D01*
X12070457Y5542657D01*
X12051344Y5555428D01*
X12028800Y5559912D01*
X11948800D01*
X11926256Y5555428D01*
X11907143Y5542657D01*
X11894372Y5523544D01*
X11889888Y5501000D01*
Y5421000D01*
X11894372Y5398456D01*
X11907143Y5379343D01*
X11926256Y5366572D01*
X11948800Y5362088D01*
X12028800D01*
X12051344Y5366572D01*
X12070457Y5379343D01*
X12083228Y5398456D01*
X12087712Y5421000D01*
Y5429923D01*
X12227748D01*
X12255500Y5402171D01*
Y4308028D01*
X12242800Y4297844D01*
X12240621Y4298277D01*
X12087712D01*
Y4307200D01*
X12083228Y4329744D01*
X12070457Y4348857D01*
X12051344Y4361628D01*
X12028800Y4366112D01*
X11948800D01*
X11926256Y4361628D01*
X11907143Y4348857D01*
X11894372Y4329744D01*
X11889888Y4307200D01*
Y4227200D01*
X11894372Y4204656D01*
X11907143Y4185543D01*
X11926256Y4172772D01*
X11948800Y4168288D01*
X12028800D01*
X12051344Y4172772D01*
X12070457Y4185543D01*
X12083228Y4204656D01*
X12087712Y4227200D01*
Y4236123D01*
X12227748D01*
X12255500Y4208371D01*
Y3517900D01*
X11722100D01*
X11544300Y3340100D01*
X10133010D01*
X10127750Y3352800D01*
X10753475Y3978525D01*
X10760212Y3988607D01*
X10762577Y4000500D01*
Y4994300D01*
X10760212Y5006193D01*
X10753475Y5016275D01*
X10674560Y5095190D01*
X10678930Y5111501D01*
Y5131099D01*
X10673858Y5150029D01*
X10664059Y5167001D01*
X10650201Y5180859D01*
X10633229Y5190658D01*
X10614299Y5195730D01*
X10594701D01*
X10575771Y5190658D01*
X10558799Y5180859D01*
X10551162Y5173222D01*
X10537957Y5177978D01*
X10537316Y5184767D01*
X10566572Y5214023D01*
X10721827D01*
X10788440Y5147410D01*
X10784070Y5131099D01*
Y5111501D01*
X10789142Y5092571D01*
X10798941Y5075599D01*
X10812799Y5061741D01*
X10829771Y5051942D01*
X10848701Y5046870D01*
X10868299D01*
X10887229Y5051942D01*
X10904201Y5061741D01*
X10918059Y5075599D01*
X10927858Y5092571D01*
X10932930Y5111501D01*
Y5131099D01*
X10927858Y5150029D01*
X10918059Y5167001D01*
X10904201Y5180859D01*
X10887229Y5190658D01*
X10868299Y5195730D01*
X10848701D01*
X10832390Y5191359D01*
X10756675Y5267075D01*
X10746593Y5273812D01*
X10734700Y5276177D01*
X10571157D01*
X10564033Y5288877D01*
X10564855Y5290223D01*
X10899627D01*
X11038070Y5151780D01*
Y5090820D01*
X11003395Y5056145D01*
X10996658Y5046063D01*
X10994293Y5034170D01*
Y3693930D01*
X10996658Y3682038D01*
X11003395Y3671956D01*
X11141325Y3534025D01*
X11151407Y3527288D01*
X11163300Y3524923D01*
X11229988D01*
X11230227Y3524347D01*
X11245947Y3508627D01*
X11266485Y3500120D01*
X11288715D01*
X11309253Y3508627D01*
X11324973Y3524347D01*
X11333480Y3544885D01*
Y3567115D01*
X11324973Y3587653D01*
X11323237Y3589390D01*
X11328097Y3601123D01*
X11537427D01*
X11549319Y3603488D01*
X11559401Y3610225D01*
X11575699Y3626523D01*
X11807502D01*
X11838579Y3657600D01*
X11807502Y3688677D01*
X11788320D01*
X11783460Y3700410D01*
X11964408Y3881359D01*
X11964985Y3881120D01*
X11987215D01*
X12007753Y3889627D01*
X12023473Y3905347D01*
X12031980Y3925885D01*
Y3948115D01*
X12023473Y3968653D01*
X12007753Y3984373D01*
X11987215Y3992880D01*
X11964985D01*
X11944447Y3984373D01*
X11928727Y3968653D01*
X11920220Y3948115D01*
Y3925885D01*
X11920459Y3925308D01*
X11734628Y3739477D01*
X11299812D01*
X11299573Y3740053D01*
X11283853Y3755773D01*
X11263315Y3764280D01*
X11241085D01*
X11236662Y3776013D01*
X11237301Y3776278D01*
X11196139Y3817439D01*
X11154978Y3858601D01*
X11150600Y3848031D01*
Y3841250D01*
X11103225Y3793875D01*
X11096488Y3783793D01*
X11094123Y3771900D01*
Y3721100D01*
X11096488Y3709207D01*
X11103225Y3699125D01*
X11192125Y3610225D01*
X11202207Y3603488D01*
X11214100Y3601123D01*
X11220074Y3588423D01*
X11219174Y3587077D01*
X11176173D01*
X11056447Y3706803D01*
Y4262158D01*
X11069147Y4266585D01*
X11083771Y4258142D01*
X11102701Y4253070D01*
X11122299D01*
X11141229Y4258142D01*
X11158201Y4267941D01*
X11172059Y4281799D01*
X11181858Y4298771D01*
X11186930Y4317701D01*
Y4337299D01*
X11181858Y4356229D01*
X11172059Y4373201D01*
X11158201Y4387059D01*
X11143577Y4395502D01*
Y4825828D01*
X11234200Y4916450D01*
X11248085Y4913672D01*
X11248661Y4912951D01*
X11246523Y4902200D01*
Y4759312D01*
X11245947Y4759073D01*
X11230227Y4743353D01*
X11221720Y4722815D01*
Y4700585D01*
X11230227Y4680047D01*
X11245947Y4664327D01*
X11266485Y4655820D01*
X11288715D01*
X11309253Y4664327D01*
X11324973Y4680047D01*
X11333480Y4700585D01*
Y4722815D01*
X11324973Y4743353D01*
X11309253Y4759073D01*
X11308677Y4759312D01*
Y4889328D01*
X11439275Y5019925D01*
X11446012Y5030007D01*
X11448377Y5041900D01*
Y5594345D01*
X11458901Y5597165D01*
X11483478Y5611355D01*
X11503545Y5631422D01*
X11517735Y5655999D01*
X11525080Y5683411D01*
Y5711789D01*
X11517735Y5739201D01*
X11503545Y5763778D01*
X11483478Y5783845D01*
X11458901Y5798035D01*
X11431489Y5805380D01*
X11403111D01*
X11375699Y5798035D01*
X11351122Y5783845D01*
X11334077Y5766801D01*
X11321377Y5771076D01*
Y6112362D01*
X11334077Y6117623D01*
X11346443Y6105257D01*
X11372757Y6090065D01*
X11402107Y6082200D01*
X11432493D01*
X11461843Y6090065D01*
X11479005Y6099974D01*
X11399339Y6179639D01*
X11417300Y6197600D01*
X11399339Y6215561D01*
X11479005Y6295226D01*
X11461843Y6305135D01*
X11432493Y6313000D01*
X11402107D01*
X11372757Y6305135D01*
X11346443Y6289943D01*
X11334077Y6277577D01*
X11321377Y6282838D01*
Y6378588D01*
X11321953Y6378827D01*
X11337673Y6394547D01*
X11346180Y6415085D01*
Y6437315D01*
X11337673Y6457853D01*
X11321953Y6473573D01*
X11301415Y6482080D01*
X11279185D01*
X11258647Y6473573D01*
X11242927Y6457853D01*
X11234420Y6437315D01*
Y6415085D01*
X11242927Y6394547D01*
X11258647Y6378827D01*
X11259223Y6378588D01*
Y5029373D01*
X11090525Y4860675D01*
X11083788Y4850593D01*
X11081423Y4838700D01*
Y4395502D01*
X11069147Y4388415D01*
X11056447Y4392843D01*
Y5021297D01*
X11082020Y5046870D01*
X11186930D01*
Y5195730D01*
X11082020D01*
X10934475Y5343275D01*
X10924393Y5350012D01*
X10912500Y5352377D01*
X10541000D01*
X10529107Y5350012D01*
X10519025Y5343275D01*
X10430125Y5254375D01*
X10423388Y5244293D01*
X10421023Y5232400D01*
Y5173378D01*
X10415395Y5170104D01*
X10408323Y5168737D01*
X10396201Y5180859D01*
X10381577Y5189302D01*
Y5270328D01*
X10474075Y5362825D01*
X10480812Y5372907D01*
X10483177Y5384800D01*
Y6264288D01*
X10483753Y6264527D01*
X10499473Y6280247D01*
X10507980Y6300785D01*
Y6323015D01*
X10499473Y6343553D01*
X10483753Y6359273D01*
X10463215Y6367780D01*
X10440985D01*
X10420447Y6359273D01*
X10404727Y6343553D01*
X10396220Y6323015D01*
Y6300785D01*
X10404727Y6280247D01*
X10420447Y6264527D01*
X10421023Y6264288D01*
Y5930597D01*
X10418914Y5929357D01*
X10408323Y5926703D01*
X10394853Y5940173D01*
X10374315Y5948680D01*
X10352085D01*
X10331547Y5940173D01*
X10315827Y5924453D01*
X10307320Y5903915D01*
Y5881685D01*
X10315827Y5861147D01*
X10331547Y5845427D01*
X10332123Y5845188D01*
Y5400872D01*
X10122610Y5191359D01*
X10106299Y5195730D01*
X10086701D01*
X10067771Y5190658D01*
X10050799Y5180859D01*
X10036941Y5167001D01*
X10027142Y5150029D01*
X10022070Y5131099D01*
Y5111501D01*
X10027142Y5092571D01*
X10036941Y5075599D01*
X10050799Y5061741D01*
X10067771Y5051942D01*
X10086701Y5046870D01*
X10106299D01*
X10125229Y5051942D01*
X10142201Y5061741D01*
X10156059Y5075599D01*
X10165858Y5092571D01*
X10170930Y5111501D01*
Y5131099D01*
X10166560Y5147410D01*
X10307498Y5288348D01*
X10317395Y5284075D01*
X10319423Y5282313D01*
Y5189302D01*
X10304799Y5180859D01*
X10290941Y5167001D01*
X10281142Y5150029D01*
X10276070Y5131099D01*
Y5111501D01*
X10281142Y5092571D01*
X10290941Y5075599D01*
X10304799Y5061741D01*
X10321771Y5051942D01*
X10340701Y5046870D01*
X10360299D01*
X10379229Y5051942D01*
X10396201Y5061741D01*
X10408323Y5073863D01*
X10415395Y5072495D01*
X10421023Y5069222D01*
Y4762672D01*
X10201525Y4543175D01*
X10194788Y4533093D01*
X10192423Y4521200D01*
Y4089573D01*
X9918528Y3815677D01*
X8353412D01*
X8353173Y3816253D01*
X8337453Y3831973D01*
X8316915Y3840480D01*
X8294685D01*
X8274147Y3831973D01*
X8258427Y3816253D01*
X8249920Y3795715D01*
Y3773485D01*
X8258427Y3752947D01*
X8248573Y3746077D01*
X7041477Y4953172D01*
Y5384800D01*
X7039112Y5396693D01*
X7032375Y5406775D01*
X6888241Y5550908D01*
X6888480Y5551485D01*
Y5573715D01*
X6879973Y5594253D01*
X6864253Y5609973D01*
X6843715Y5618480D01*
X6821485D01*
X6800947Y5609973D01*
X6785227Y5594253D01*
X6776720Y5573715D01*
Y5551485D01*
X6785227Y5530947D01*
X6800947Y5515227D01*
X6821485Y5506720D01*
X6843715D01*
X6844292Y5506959D01*
X6979323Y5371927D01*
Y4940300D01*
X6981688Y4928407D01*
X6988425Y4918325D01*
X8398125Y3508625D01*
X8408207Y3501888D01*
X8420100Y3499523D01*
X8687660D01*
X8692920Y3486823D01*
X8683767Y3477670D01*
X8674100Y3454331D01*
Y3429069D01*
X8682298Y3409277D01*
X8676327Y3396577D01*
X8382172D01*
X6863677Y4915072D01*
Y5286388D01*
X6864253Y5286627D01*
X6879973Y5302347D01*
X6888480Y5322885D01*
Y5345115D01*
X6879973Y5365653D01*
X6864253Y5381373D01*
X6843715Y5389880D01*
X6821485D01*
X6800947Y5381373D01*
X6785227Y5365653D01*
X6776720Y5345115D01*
Y5322885D01*
X6785227Y5302347D01*
X6800947Y5286627D01*
X6801523Y5286388D01*
Y4902200D01*
X6803888Y4890307D01*
X6810625Y4880225D01*
X7889437Y3801413D01*
X7887008Y3794819D01*
X7883210Y3789680D01*
X7862885D01*
X7842347Y3781173D01*
X7826627Y3765453D01*
X7818120Y3744915D01*
Y3722685D01*
X7824290Y3707789D01*
X7813523Y3700595D01*
X7757309Y3756809D01*
X7740926Y3767756D01*
X7721600Y3771600D01*
X5846497D01*
X5846444Y3771679D01*
X5842603Y3784300D01*
X5857733Y3799430D01*
X5867400Y3822769D01*
Y3848031D01*
X5863022Y3858601D01*
X5821861Y3817439D01*
X5803900Y3835400D01*
X5785939Y3817439D01*
X5744778Y3858601D01*
X5740400Y3848031D01*
Y3822769D01*
X5750067Y3799430D01*
X5765197Y3784300D01*
X5761356Y3771679D01*
X5761303Y3771600D01*
X5735918D01*
X5631702Y3875816D01*
X5626101Y3886200D01*
X5626100D01*
X5626100Y3886201D01*
Y4064000D01*
X5575300Y4114800D01*
X5435600D01*
X5314057Y4236343D01*
X5321251Y4247109D01*
X5334069Y4241800D01*
X5359331D01*
X5369901Y4246178D01*
X5328739Y4287339D01*
X5287578Y4328501D01*
X5283200Y4317931D01*
Y4292669D01*
X5288509Y4279851D01*
X5277743Y4272657D01*
X5257800Y4292600D01*
X4622800D01*
Y4285328D01*
X4615863Y4283948D01*
X4609981Y4280019D01*
X4606052Y4274137D01*
X4604672Y4267200D01*
Y4260543D01*
X4570258Y4214658D01*
X4483100Y4127500D01*
X3572959D01*
X3554001Y4132580D01*
X3532599D01*
X3513641Y4127500D01*
X3200400D01*
X3175000Y4102100D01*
X3119769D01*
X3118097Y4114800D01*
X3143343Y4121565D01*
X3160505Y4131474D01*
X3080839Y4211139D01*
X3001174Y4290805D01*
X2997200Y4283923D01*
X2984500Y4287326D01*
Y5799572D01*
X2996955Y5807450D01*
X3002061Y5805677D01*
X3004074Y5800817D01*
X3004224Y5788174D01*
Y5700580D01*
X3004240Y5700501D01*
X3006586Y5682677D01*
X3013497Y5665994D01*
X3024490Y5651668D01*
X3026528Y5650104D01*
X3027521Y5633334D01*
X3018916Y5624730D01*
X3010120Y5603493D01*
Y5580507D01*
X3018916Y5559270D01*
X3035170Y5543016D01*
X3055835Y5534457D01*
X3057659Y5533498D01*
X3062921Y5522830D01*
X3059884Y5518873D01*
X3050020Y5495057D01*
X3046655Y5469500D01*
X3050020Y5443943D01*
X3059884Y5420128D01*
X3059981Y5420002D01*
X3127440Y5487460D01*
X3163361Y5451539D01*
X3095902Y5384081D01*
X3096028Y5383985D01*
X3119843Y5374120D01*
X3145400Y5370755D01*
X3200400D01*
X3225957Y5374120D01*
X3249772Y5383985D01*
X3249898Y5384081D01*
X3182440Y5451539D01*
X3200400Y5469500D01*
X3182440Y5487460D01*
X3249898Y5554919D01*
X3249772Y5555016D01*
X3225957Y5564880D01*
X3200400Y5568245D01*
X3145400D01*
X3133710Y5566706D01*
X3124783Y5578340D01*
X3125680Y5580507D01*
Y5603493D01*
X3116884Y5624730D01*
X3112008Y5629606D01*
X3114161Y5645413D01*
X3122313Y5651668D01*
X3133306Y5665994D01*
X3140216Y5682677D01*
X3142563Y5700501D01*
X3142578Y5700580D01*
Y5885550D01*
X3154602Y5890314D01*
X3156624Y5888569D01*
Y5803900D01*
X3156640Y5803821D01*
X3158986Y5785997D01*
X3165897Y5769314D01*
X3176890Y5754988D01*
X3191215Y5743995D01*
X3207898Y5737085D01*
X3225722Y5734739D01*
X3225801Y5734723D01*
X3419488D01*
X3419727Y5734147D01*
X3435447Y5718427D01*
X3455985Y5709920D01*
X3478215D01*
X3498753Y5718427D01*
X3514473Y5734147D01*
X3522980Y5754685D01*
Y5776915D01*
X3514473Y5797453D01*
X3498753Y5813173D01*
X3478215Y5821680D01*
X3455985D01*
X3435447Y5813173D01*
X3419727Y5797453D01*
X3419488Y5796877D01*
X3225801D01*
Y5797027D01*
X3220941Y5799040D01*
X3218928Y5803900D01*
X3218778D01*
Y5900420D01*
X3218763Y5900499D01*
X3216416Y5918323D01*
X3209506Y5935006D01*
X3207268Y5937923D01*
X3213531Y5950623D01*
X3419488D01*
X3419727Y5950047D01*
X3435447Y5934327D01*
X3455985Y5925820D01*
X3478215D01*
X3498753Y5934327D01*
X3514473Y5950047D01*
X3522980Y5970585D01*
Y5992815D01*
X3514473Y6013353D01*
X3498753Y6029073D01*
X3478215Y6037580D01*
X3455985D01*
X3435447Y6029073D01*
X3419727Y6013353D01*
X3419488Y6012777D01*
X3081193D01*
X3071483Y6022487D01*
X3076343Y6034220D01*
X3079393D01*
X3100630Y6043016D01*
X3116884Y6059270D01*
X3125680Y6080507D01*
Y6103493D01*
X3124783Y6105660D01*
X3133710Y6117294D01*
X3145400Y6115755D01*
X3200400D01*
X3225957Y6119120D01*
X3249772Y6128984D01*
X3249898Y6129081D01*
X3182439Y6196540D01*
X3200400Y6214500D01*
X3182439Y6232461D01*
X3249898Y6299919D01*
X3249772Y6300015D01*
X3225957Y6309880D01*
X3200400Y6313245D01*
X3145400D01*
X3119843Y6309880D01*
X3096028Y6300015D01*
X3095902Y6299919D01*
X3163360Y6232461D01*
X3127439Y6196540D01*
X3059981Y6263998D01*
X3059884Y6263872D01*
X3050020Y6240057D01*
X3046655Y6214500D01*
X3050020Y6188943D01*
X3059884Y6165127D01*
X3062921Y6161170D01*
X3057659Y6150502D01*
X3055835Y6149543D01*
X3035170Y6140984D01*
X3018916Y6124730D01*
X3010120Y6103493D01*
Y6100443D01*
X2998387Y6095583D01*
X2984500Y6109470D01*
Y7464832D01*
X2997200Y7470092D01*
X3163546Y7303746D01*
X3173628Y7297009D01*
X3185521Y7294644D01*
X3196476Y7296823D01*
X3911428D01*
X4715125Y6493125D01*
X4725207Y6486388D01*
X4737100Y6484023D01*
X4962237D01*
X4963662Y6476860D01*
X4991100Y6449421D01*
X5018538Y6476860D01*
X5019963Y6484023D01*
X5880368D01*
X5880607Y6483447D01*
X5896327Y6467727D01*
X5916865Y6459220D01*
X5939095D01*
X5959633Y6467727D01*
X5975353Y6483447D01*
X5983860Y6503985D01*
Y6526215D01*
X5975353Y6546753D01*
X5959633Y6562473D01*
X5939095Y6570980D01*
X5916865D01*
X5896327Y6562473D01*
X5880607Y6546753D01*
X5880368Y6546177D01*
X4749973D01*
X3946275Y7349875D01*
X3936193Y7356612D01*
X3924300Y7358977D01*
X3196214D01*
X3040977Y7514214D01*
Y7697520D01*
X3110180D01*
Y7898080D01*
X2984500D01*
Y7944357D01*
X2994576Y7952089D01*
X2996698Y7951520D01*
X3023102D01*
X3048607Y7958354D01*
X3071473Y7971556D01*
X3090144Y7990227D01*
X3103346Y8013093D01*
X3110180Y8038598D01*
Y8065002D01*
X3103346Y8090507D01*
X3090144Y8113373D01*
X3071473Y8132044D01*
X3048607Y8145246D01*
X3023102Y8152080D01*
X2996698D01*
X2994576Y8151511D01*
X2984500Y8159243D01*
Y8611920D01*
X3110180D01*
Y8812480D01*
X2984500D01*
Y8858757D01*
X2994576Y8866489D01*
X2996698Y8865920D01*
X3023102D01*
X3048607Y8872754D01*
X3071473Y8885956D01*
X3090144Y8904627D01*
X3103346Y8927493D01*
X3110180Y8952998D01*
Y8979402D01*
X3103346Y9004907D01*
X3090144Y9027773D01*
X3071473Y9046444D01*
X3048607Y9059646D01*
X3023102Y9066480D01*
X2996698D01*
X2994576Y9065911D01*
X2984500Y9073643D01*
Y9468350D01*
X2984672Y9468523D01*
X4206888D01*
X4207127Y9467947D01*
X4222847Y9452227D01*
X4243385Y9443720D01*
X4265615D01*
X4286153Y9452227D01*
X4301873Y9467947D01*
X4310380Y9488485D01*
Y9510715D01*
X4301873Y9531253D01*
X4286153Y9546973D01*
X4265615Y9555480D01*
X4243385D01*
X4222847Y9546973D01*
X4207127Y9531253D01*
X4206888Y9530677D01*
X2984500D01*
Y9613900D01*
X2959100Y9639300D01*
X2556594D01*
X2551733Y9651033D01*
X2552700Y9652000D01*
Y12128500D01*
X12420600D01*
X12433300Y12115800D01*
D02*
G37*
G36*
X12446000Y3546332D02*
X12433300Y3543806D01*
X12429705Y3552486D01*
X12418712Y3566812D01*
X12404386Y3577805D01*
X12387703Y3584715D01*
X12369800Y3587072D01*
X12351897Y3584715D01*
X12335214Y3577805D01*
X12320888Y3566812D01*
X12309895Y3552486D01*
X12303272Y3536496D01*
X12292633Y3525857D01*
X12280900Y3530717D01*
Y4132482D01*
X12293600Y4135008D01*
X12295799Y4129699D01*
X12336960Y4170861D01*
X12378122Y4212022D01*
X12367552Y4216400D01*
X12342290D01*
X12337397Y4214373D01*
X12280900Y4270871D01*
Y5326282D01*
X12293600Y5328808D01*
X12295799Y5323499D01*
X12336960Y5364661D01*
X12378122Y5405822D01*
X12367552Y5410200D01*
X12342290D01*
X12337397Y5408173D01*
X12280900Y5464671D01*
Y6520082D01*
X12293600Y6522608D01*
X12295799Y6517299D01*
X12336960Y6558461D01*
X12378122Y6599622D01*
X12367552Y6604000D01*
X12342290D01*
X12337397Y6601973D01*
X12280900Y6658471D01*
Y7616329D01*
X12337397Y7672827D01*
X12342290Y7670800D01*
X12367552D01*
X12378122Y7675178D01*
X12336960Y7716339D01*
X12354921Y7734300D01*
X12336960Y7752261D01*
X12378122Y7793422D01*
X12367552Y7797800D01*
X12342290D01*
X12337397Y7795773D01*
X12280900Y7852271D01*
Y8907682D01*
X12293600Y8910208D01*
X12295799Y8904899D01*
X12336960Y8946061D01*
X12378122Y8987222D01*
X12367552Y8991600D01*
X12342290D01*
X12337397Y8989573D01*
X12280900Y9046071D01*
Y10101482D01*
X12293600Y10104008D01*
X12295799Y10098699D01*
X12336960Y10139861D01*
X12378122Y10181022D01*
X12367552Y10185400D01*
X12342290D01*
X12337397Y10183373D01*
X12280900Y10239871D01*
Y11569700D01*
X12446000D01*
Y3546332D01*
D02*
G37*
G36*
X2959100Y9527772D02*
X2949825Y9521575D01*
X2925824Y9497573D01*
X2920931Y9499600D01*
X2895669D01*
X2885099Y9495222D01*
X2926261Y9454061D01*
X2908300Y9436100D01*
X2926261Y9418139D01*
X2885099Y9376978D01*
X2895669Y9372600D01*
X2920931D01*
X2944270Y9382267D01*
X2947367Y9385364D01*
X2959100Y9380504D01*
Y9061463D01*
X2953685Y9058336D01*
X3027861Y8984161D01*
X3009900Y8966200D01*
X3027861Y8948239D01*
X2953685Y8874064D01*
X2959100Y8870937D01*
Y8812480D01*
X2909620D01*
Y8611920D01*
X2959100D01*
Y8147063D01*
X2953685Y8143936D01*
X3027861Y8069761D01*
X3009900Y8051800D01*
X3027861Y8033839D01*
X2953685Y7959664D01*
X2959100Y7956537D01*
Y7898080D01*
X2909620D01*
Y7697520D01*
X2959100D01*
Y6642019D01*
X2946400Y6640348D01*
X2942479Y6654981D01*
X2925090Y6685099D01*
X2900499Y6709690D01*
X2870381Y6727079D01*
X2836789Y6736080D01*
X2802011D01*
X2768419Y6727079D01*
X2738301Y6709690D01*
X2713710Y6685099D01*
X2696321Y6654981D01*
X2687320Y6621389D01*
Y6586611D01*
X2696321Y6553019D01*
X2713710Y6522901D01*
X2738301Y6498310D01*
X2768419Y6480921D01*
X2802011Y6471920D01*
X2836789D01*
X2870381Y6480921D01*
X2900499Y6498310D01*
X2925090Y6522901D01*
X2942479Y6553019D01*
X2946400Y6567652D01*
X2959100Y6565981D01*
Y6145120D01*
X2946400Y6134697D01*
X2799080D01*
X2787187Y6132332D01*
X2777105Y6125595D01*
X2693285Y6041775D01*
X2686548Y6031693D01*
X2684183Y6019800D01*
Y5897880D01*
X2686548Y5885987D01*
X2693285Y5875905D01*
X2789717Y5779474D01*
X2788920Y5776501D01*
Y5755099D01*
X2794459Y5734427D01*
X2805160Y5715893D01*
X2820293Y5700760D01*
X2838827Y5690059D01*
X2859499Y5684520D01*
X2880901D01*
X2901573Y5690059D01*
X2920107Y5700760D01*
X2935240Y5715893D01*
X2945941Y5734427D01*
X2946400Y5736141D01*
X2959100Y5734469D01*
Y5118019D01*
X2946400Y5116348D01*
X2942479Y5130981D01*
X2925090Y5161099D01*
X2900499Y5185690D01*
X2870381Y5203079D01*
X2836789Y5212080D01*
X2802011D01*
X2768419Y5203079D01*
X2738301Y5185690D01*
X2713710Y5161099D01*
X2696321Y5130981D01*
X2687320Y5097389D01*
Y5062611D01*
X2696321Y5029019D01*
X2713710Y4998901D01*
X2738301Y4974310D01*
X2768419Y4956921D01*
X2802011Y4947920D01*
X2836789D01*
X2870381Y4956921D01*
X2900499Y4974310D01*
X2925090Y4998901D01*
X2942479Y5029019D01*
X2946400Y5043652D01*
X2959100Y5041981D01*
Y4038600D01*
X2908300Y3987800D01*
Y3746500D01*
X3022600Y3632200D01*
X3848100D01*
X3937000Y3543300D01*
X4686300D01*
Y3593863D01*
X4686419Y3593981D01*
X4690348Y3599862D01*
X4691728Y3606800D01*
Y3630991D01*
X4691380Y3632742D01*
Y3634527D01*
X4690696Y3636178D01*
X4690348Y3637928D01*
X4689357Y3639412D01*
X4688673Y3641062D01*
X4687410Y3642325D01*
X4686419Y3643810D01*
X4686300Y3643889D01*
Y3747511D01*
X4686419Y3747590D01*
X4687411Y3749075D01*
X4688673Y3750338D01*
X4689356Y3751987D01*
X4690348Y3753472D01*
X4690697Y3755223D01*
X4691380Y3756873D01*
Y3758657D01*
X4691728Y3760409D01*
Y3764628D01*
X4749800Y3822700D01*
X4902200Y3822700D01*
X4953000Y3771900D01*
Y3594100D01*
X5232400Y3314700D01*
X8056582D01*
X8128000Y3243282D01*
Y2989658D01*
X8123120Y2971446D01*
Y2946754D01*
X8128000Y2928542D01*
Y2844800D01*
X7148521D01*
X7145118Y2857500D01*
X7153886Y2862562D01*
X7170438Y2879114D01*
X7182142Y2899386D01*
X7188200Y2921996D01*
Y2945404D01*
X7182142Y2968014D01*
X7177527Y2976006D01*
X7117261Y2915739D01*
X7099300Y2933700D01*
X7081339Y2915739D01*
X7021073Y2976006D01*
X7016458Y2968014D01*
X7010400Y2945404D01*
Y2921996D01*
X7016458Y2899386D01*
X7028162Y2879114D01*
X7044714Y2862562D01*
X7053482Y2857500D01*
X7050079Y2844800D01*
X5041900D01*
X4660900Y3225800D01*
X3962400D01*
X3848100Y3340100D01*
X2921000D01*
X2540000Y3721100D01*
X2539995Y9601200D01*
X2959100D01*
Y9527772D01*
D02*
G37*
G36*
X2847791Y6059843D02*
X2838827Y6057441D01*
X2820293Y6046740D01*
X2805160Y6031607D01*
X2794459Y6013073D01*
X2788920Y5992401D01*
Y5970999D01*
X2794459Y5950327D01*
X2805160Y5931793D01*
X2820293Y5916660D01*
X2838827Y5905959D01*
X2859499Y5900420D01*
X2880901D01*
X2901573Y5905959D01*
X2901838Y5906112D01*
X2959100Y5848850D01*
Y5797131D01*
X2946400Y5795459D01*
X2945941Y5797173D01*
X2935240Y5815707D01*
X2920107Y5830840D01*
X2901573Y5841541D01*
X2880901Y5847080D01*
X2859499D01*
X2838827Y5841541D01*
X2824069Y5833020D01*
X2746337Y5910752D01*
Y6006928D01*
X2811953Y6072543D01*
X2846119D01*
X2847791Y6059843D01*
D02*
G37*
G36*
X11351122Y5611355D02*
X11375699Y5597165D01*
X11386223Y5594345D01*
Y5054773D01*
X11333700Y5002250D01*
X11319815Y5005028D01*
X11319239Y5005749D01*
X11321377Y5016500D01*
Y5624124D01*
X11334077Y5628399D01*
X11351122Y5611355D01*
D02*
G37*
G36*
X10558799Y5061741D02*
X10575771Y5051942D01*
X10594701Y5046870D01*
X10614299D01*
X10630610Y5051240D01*
X10700423Y4981427D01*
Y4013372D01*
X10083628Y3396577D01*
X8798873D01*
X8792902Y3409277D01*
X8801100Y3429069D01*
Y3454331D01*
X8791433Y3477670D01*
X8782280Y3486823D01*
X8787540Y3499523D01*
X9982200D01*
X9994093Y3501888D01*
X10004175Y3508625D01*
X10524875Y4029325D01*
X10531612Y4039407D01*
X10533977Y4051300D01*
Y4275422D01*
X10539605Y4278696D01*
X10546677Y4280063D01*
X10558799Y4267941D01*
X10575771Y4258142D01*
X10594701Y4253070D01*
X10614299D01*
X10633229Y4258142D01*
X10650201Y4267941D01*
X10664059Y4281799D01*
X10673858Y4298771D01*
X10678930Y4317701D01*
Y4337299D01*
X10673858Y4356229D01*
X10664059Y4373201D01*
X10650201Y4387059D01*
X10633229Y4396858D01*
X10614299Y4401930D01*
X10594701D01*
X10575771Y4396858D01*
X10558799Y4387059D01*
X10546677Y4374937D01*
X10539605Y4376305D01*
X10533977Y4379578D01*
Y5069222D01*
X10539605Y5072495D01*
X10546677Y5073863D01*
X10558799Y5061741D01*
D02*
G37*
G36*
X4876800Y4263306D02*
Y4000500D01*
X4673600Y3797300D01*
Y3760409D01*
X4660900Y3757883D01*
X4659876Y3760355D01*
X4595221Y3695700D01*
X4659876Y3631045D01*
X4660900Y3633517D01*
X4673600Y3630991D01*
Y3606800D01*
X4635500Y3568700D01*
X4000500D01*
X3860800Y3708400D01*
X3009900D01*
X2933700Y3784600D01*
Y3929379D01*
X3221566Y4102100D01*
X3457276D01*
X3463627Y4091101D01*
X3460458Y4085614D01*
X3454400Y4063004D01*
Y4039596D01*
X3460458Y4016986D01*
X3465073Y4008994D01*
X3525339Y4069261D01*
X3543300Y4051300D01*
X3561261Y4069261D01*
X3621527Y4008994D01*
X3626142Y4016986D01*
X3632200Y4039596D01*
Y4063004D01*
X3626142Y4085614D01*
X3622973Y4091101D01*
X3629324Y4102100D01*
X4508500D01*
X4622800Y4254500D01*
Y4267200D01*
X4864100D01*
X4865067Y4268167D01*
X4876800Y4263306D01*
D02*
G37*
G36*
X5334000Y4178300D02*
Y4127500D01*
X5397500Y4064000D01*
X5549900D01*
X5562600Y4051300D01*
Y3968541D01*
X5552040Y3961485D01*
X5549831Y3962400D01*
X5524569D01*
X5513999Y3958022D01*
X5555161Y3916861D01*
X5519239Y3880939D01*
X5478078Y3922101D01*
X5473700Y3911531D01*
Y3886269D01*
X5483367Y3862930D01*
X5501230Y3845067D01*
X5502480Y3838780D01*
X5486400Y3822700D01*
X5346700D01*
Y3797300D01*
X5130800Y3581400D01*
X5117256Y3588172D01*
X5116824Y3602587D01*
X5121685Y3605394D01*
X5049339Y3677739D01*
X5067300Y3695700D01*
X5049339Y3713661D01*
X5121685Y3786006D01*
X5107983Y3793917D01*
X5081176Y3801100D01*
X5053424D01*
X5039276Y3797309D01*
X5029200Y3805040D01*
Y4254500D01*
X5257800D01*
X5334000Y4178300D01*
D02*
G37*
G36*
X10471823Y4708980D02*
Y4064172D01*
X9969328Y3561677D01*
X9714640D01*
X9709380Y3574377D01*
X9718533Y3583530D01*
X9728200Y3606869D01*
Y3632131D01*
X9723822Y3642701D01*
X9682661Y3601539D01*
X9664700Y3619500D01*
X9646739Y3601539D01*
X9605578Y3642701D01*
X9601200Y3632131D01*
Y3606869D01*
X9610867Y3583530D01*
X9620020Y3574377D01*
X9614760Y3561677D01*
X8432972D01*
X8267277Y3727373D01*
X8274147Y3737227D01*
X8294685Y3728720D01*
X8316915D01*
X8337453Y3737227D01*
X8353173Y3752947D01*
X8353412Y3753523D01*
X9931400D01*
X9943293Y3755888D01*
X9953375Y3762625D01*
X10245475Y4054725D01*
X10252212Y4064807D01*
X10254577Y4076700D01*
Y4508328D01*
X10460090Y4713840D01*
X10471823Y4708980D01*
D02*
G37*
G36*
X5679291Y3685391D02*
X5695674Y3674444D01*
X5715000Y3670600D01*
X7700682D01*
X8026721Y3344562D01*
X8021860Y3332828D01*
X5252372D01*
X5130800Y3454400D01*
Y3543300D01*
X5372100Y3784600D01*
X5511800D01*
X5545941Y3818741D01*
X5679291Y3685391D01*
D02*
G37*
G36*
X11536343Y3302967D02*
X11433776Y3200400D01*
X11430996D01*
X11408386Y3194342D01*
X11400394Y3189727D01*
X11460661Y3129461D01*
X11442700Y3111500D01*
X11460661Y3093539D01*
X11400394Y3033273D01*
X11408386Y3028658D01*
X11430996Y3022600D01*
X11454404D01*
X11468100Y3026270D01*
X11480800Y3016774D01*
Y2540000D01*
X9664700D01*
X9611743Y2592957D01*
X9619541Y2603120D01*
X9630386Y2596858D01*
X9652996Y2590800D01*
X9676404D01*
X9699014Y2596858D01*
X9707006Y2601473D01*
X9646739Y2661739D01*
X9586473Y2722006D01*
X9581858Y2714014D01*
X9575800Y2691404D01*
Y2667996D01*
X9581858Y2645386D01*
X9588120Y2634541D01*
X9577957Y2626743D01*
X9537700Y2667000D01*
Y2946400D01*
X9398000Y3086100D01*
X8966200D01*
X8966200Y3314700D01*
X9659904D01*
X9664764Y3302967D01*
X9661667Y3299870D01*
X9652000Y3276531D01*
Y3251269D01*
X9656378Y3240699D01*
X9697539Y3281861D01*
X9715500Y3263900D01*
X9733461Y3281861D01*
X9774622Y3240699D01*
X9779000Y3251269D01*
Y3276531D01*
X9769333Y3299870D01*
X9766236Y3302967D01*
X9771096Y3314700D01*
X11531483D01*
X11536343Y3302967D01*
D02*
G37*
G36*
X12446000Y3476768D02*
Y3238500D01*
X12293600D01*
X12292633Y3237533D01*
X12280900Y3242394D01*
Y3318476D01*
X12418712Y3456288D01*
X12429705Y3470614D01*
X12433300Y3479294D01*
X12446000Y3476768D01*
D02*
G37*
G36*
X8347325Y3343525D02*
X8357407Y3336788D01*
X8369300Y3334423D01*
X8928100D01*
Y3098800D01*
X8952903Y3073997D01*
X8953381Y3073281D01*
X8956473Y3071216D01*
X8956252Y3060239D01*
X8955444Y3057792D01*
X8939761Y3053590D01*
X8927443Y3046478D01*
X8978900Y2995021D01*
X9030357Y3046478D01*
X9018039Y3053590D01*
X9011762Y3055272D01*
X9013434Y3067972D01*
X9314528D01*
X9461500Y2921000D01*
X9474200D01*
Y2540000D01*
X8585200D01*
Y3048000D01*
X8501764Y3131436D01*
X8499612Y3142256D01*
X8492875Y3152338D01*
X8331200Y3314013D01*
Y3327400D01*
X8317813D01*
X7927727Y3717486D01*
X7929880Y3722685D01*
Y3743010D01*
X7935019Y3746808D01*
X7941613Y3749237D01*
X8347325Y3343525D01*
D02*
G37*
%LPC*%
G36*
X11898988Y12058650D02*
X11850012D01*
X11801639Y12050988D01*
X11755060Y12035854D01*
X11711422Y12013619D01*
X11672547Y11985375D01*
X11874500Y11783421D01*
X12076454Y11985375D01*
X12037578Y12013619D01*
X11993940Y12035854D01*
X11947361Y12050988D01*
X11898988Y12058650D01*
D02*
G37*
G36*
X2945488D02*
X2896512D01*
X2848139Y12050988D01*
X2801560Y12035854D01*
X2757922Y12013619D01*
X2719047Y11985375D01*
X2921000Y11783421D01*
X3122954Y11985375D01*
X3084078Y12013619D01*
X3040440Y12035854D01*
X2993861Y12050988D01*
X2945488Y12058650D01*
D02*
G37*
G36*
X7252349Y11747300D02*
X7225651D01*
X7199861Y11740390D01*
X7187543Y11733278D01*
X7239000Y11681821D01*
X7290457Y11733278D01*
X7278139Y11740390D01*
X7252349Y11747300D01*
D02*
G37*
G36*
X7326378Y11697357D02*
X7274921Y11645900D01*
X7326378Y11594443D01*
X7333490Y11606761D01*
X7340400Y11632551D01*
Y11659249D01*
X7333490Y11685039D01*
X7326378Y11697357D01*
D02*
G37*
G36*
X7151622D02*
X7144510Y11685039D01*
X7137600Y11659249D01*
Y11632551D01*
X7144510Y11606761D01*
X7151622Y11594443D01*
X7203079Y11645900D01*
X7151622Y11697357D01*
D02*
G37*
G36*
X10248347Y11739680D02*
X10223654D01*
X10199802Y11733289D01*
X10178418Y11720943D01*
X10160958Y11703483D01*
X10148611Y11682098D01*
X10142220Y11658247D01*
Y11633554D01*
X10148611Y11609702D01*
X10160958Y11588318D01*
X10178418Y11570858D01*
X10199802Y11558511D01*
X10223654Y11552120D01*
X10248347D01*
X10272198Y11558511D01*
X10293582Y11570858D01*
X10311043Y11588318D01*
X10323389Y11609702D01*
X10329780Y11633554D01*
Y11658247D01*
X10323389Y11682098D01*
X10311043Y11703483D01*
X10293582Y11720943D01*
X10272198Y11733289D01*
X10248347Y11739680D01*
D02*
G37*
G36*
X9994347D02*
X9969654D01*
X9945802Y11733289D01*
X9924418Y11720943D01*
X9906958Y11703483D01*
X9894611Y11682098D01*
X9888220Y11658247D01*
Y11633554D01*
X9894611Y11609702D01*
X9906958Y11588318D01*
X9924418Y11570858D01*
X9945802Y11558511D01*
X9969654Y11552120D01*
X9994347D01*
X10018198Y11558511D01*
X10039582Y11570858D01*
X10057043Y11588318D01*
X10069389Y11609702D01*
X10075780Y11633554D01*
Y11658247D01*
X10069389Y11682098D01*
X10057043Y11703483D01*
X10039582Y11720943D01*
X10018198Y11733289D01*
X9994347Y11739680D01*
D02*
G37*
G36*
X9740347D02*
X9715654D01*
X9691802Y11733289D01*
X9670418Y11720943D01*
X9652958Y11703483D01*
X9640611Y11682098D01*
X9634220Y11658247D01*
Y11633554D01*
X9640611Y11609702D01*
X9652958Y11588318D01*
X9670418Y11570858D01*
X9691802Y11558511D01*
X9715654Y11552120D01*
X9740347D01*
X9764198Y11558511D01*
X9785582Y11570858D01*
X9803043Y11588318D01*
X9815389Y11609702D01*
X9821780Y11633554D01*
Y11658247D01*
X9815389Y11682098D01*
X9803043Y11703483D01*
X9785582Y11720943D01*
X9764198Y11733289D01*
X9740347Y11739680D01*
D02*
G37*
G36*
X9486347D02*
X9461654D01*
X9437802Y11733289D01*
X9416418Y11720943D01*
X9398958Y11703483D01*
X9386611Y11682098D01*
X9380220Y11658247D01*
Y11633554D01*
X9386611Y11609702D01*
X9398958Y11588318D01*
X9416418Y11570858D01*
X9437802Y11558511D01*
X9461654Y11552120D01*
X9486347D01*
X9510198Y11558511D01*
X9531582Y11570858D01*
X9549043Y11588318D01*
X9561389Y11609702D01*
X9567780Y11633554D01*
Y11658247D01*
X9561389Y11682098D01*
X9549043Y11703483D01*
X9531582Y11720943D01*
X9510198Y11733289D01*
X9486347Y11739680D01*
D02*
G37*
G36*
X9232347D02*
X9207654D01*
X9183802Y11733289D01*
X9162418Y11720943D01*
X9144958Y11703483D01*
X9132611Y11682098D01*
X9126220Y11658247D01*
Y11633554D01*
X9132611Y11609702D01*
X9144958Y11588318D01*
X9162418Y11570858D01*
X9183802Y11558511D01*
X9207654Y11552120D01*
X9232347D01*
X9256198Y11558511D01*
X9277582Y11570858D01*
X9295043Y11588318D01*
X9307389Y11609702D01*
X9313780Y11633554D01*
Y11658247D01*
X9307389Y11682098D01*
X9295043Y11703483D01*
X9277582Y11720943D01*
X9256198Y11733289D01*
X9232347Y11739680D01*
D02*
G37*
G36*
X8978347D02*
X8953654D01*
X8929802Y11733289D01*
X8908418Y11720943D01*
X8890958Y11703483D01*
X8878611Y11682098D01*
X8872220Y11658247D01*
Y11633554D01*
X8878611Y11609702D01*
X8890958Y11588318D01*
X8908418Y11570858D01*
X8929802Y11558511D01*
X8953654Y11552120D01*
X8978347D01*
X9002198Y11558511D01*
X9023582Y11570858D01*
X9041043Y11588318D01*
X9053389Y11609702D01*
X9059780Y11633554D01*
Y11658247D01*
X9053389Y11682098D01*
X9041043Y11703483D01*
X9023582Y11720943D01*
X9002198Y11733289D01*
X8978347Y11739680D01*
D02*
G37*
G36*
X8724347D02*
X8699654D01*
X8675802Y11733289D01*
X8654418Y11720943D01*
X8636958Y11703483D01*
X8624611Y11682098D01*
X8618220Y11658247D01*
Y11633554D01*
X8624611Y11609702D01*
X8636958Y11588318D01*
X8654418Y11570858D01*
X8675802Y11558511D01*
X8699654Y11552120D01*
X8724347D01*
X8748198Y11558511D01*
X8769582Y11570858D01*
X8787043Y11588318D01*
X8799389Y11609702D01*
X8805780Y11633554D01*
Y11658247D01*
X8799389Y11682098D01*
X8787043Y11703483D01*
X8769582Y11720943D01*
X8748198Y11733289D01*
X8724347Y11739680D01*
D02*
G37*
G36*
X8013346Y11739680D02*
X7988654D01*
X7964802Y11733289D01*
X7943418Y11720943D01*
X7925957Y11703482D01*
X7913611Y11682098D01*
X7907220Y11658246D01*
Y11633554D01*
X7913611Y11609702D01*
X7925957Y11588318D01*
X7943418Y11570857D01*
X7964802Y11558511D01*
X7988654Y11552120D01*
X8013346D01*
X8037198Y11558511D01*
X8058582Y11570857D01*
X8076043Y11588318D01*
X8088389Y11609702D01*
X8094780Y11633554D01*
Y11658246D01*
X8088389Y11682098D01*
X8076043Y11703482D01*
X8058582Y11720943D01*
X8037198Y11733289D01*
X8013346Y11739680D01*
D02*
G37*
G36*
X7759346D02*
X7734654D01*
X7710802Y11733289D01*
X7689418Y11720943D01*
X7671957Y11703482D01*
X7659611Y11682098D01*
X7653220Y11658246D01*
Y11633554D01*
X7659611Y11609702D01*
X7671957Y11588318D01*
X7689418Y11570857D01*
X7710802Y11558511D01*
X7734654Y11552120D01*
X7759346D01*
X7783198Y11558511D01*
X7804582Y11570857D01*
X7822043Y11588318D01*
X7834389Y11609702D01*
X7840780Y11633554D01*
Y11658246D01*
X7834389Y11682098D01*
X7822043Y11703482D01*
X7804582Y11720943D01*
X7783198Y11733289D01*
X7759346Y11739680D01*
D02*
G37*
G36*
X7505346D02*
X7480654D01*
X7456802Y11733289D01*
X7435418Y11720943D01*
X7417957Y11703482D01*
X7405611Y11682098D01*
X7399220Y11658246D01*
Y11633554D01*
X7405611Y11609702D01*
X7417957Y11588318D01*
X7435418Y11570857D01*
X7456802Y11558511D01*
X7480654Y11552120D01*
X7505346D01*
X7529198Y11558511D01*
X7550582Y11570857D01*
X7568043Y11588318D01*
X7580389Y11609702D01*
X7586780Y11633554D01*
Y11658246D01*
X7580389Y11682098D01*
X7568043Y11703482D01*
X7550582Y11720943D01*
X7529198Y11733289D01*
X7505346Y11739680D01*
D02*
G37*
G36*
X6997346D02*
X6972654D01*
X6948802Y11733289D01*
X6927418Y11720943D01*
X6909957Y11703482D01*
X6897611Y11682098D01*
X6891220Y11658246D01*
Y11633554D01*
X6897611Y11609702D01*
X6909957Y11588318D01*
X6927418Y11570857D01*
X6948802Y11558511D01*
X6972654Y11552120D01*
X6997346D01*
X7021198Y11558511D01*
X7042582Y11570857D01*
X7060043Y11588318D01*
X7072389Y11609702D01*
X7078780Y11633554D01*
Y11658246D01*
X7072389Y11682098D01*
X7060043Y11703482D01*
X7042582Y11720943D01*
X7021198Y11733289D01*
X6997346Y11739680D01*
D02*
G37*
G36*
X10528000Y11740773D02*
X10452000D01*
X10430236Y11736444D01*
X10411785Y11724115D01*
X10399457Y11705664D01*
X10395128Y11683900D01*
Y11607900D01*
X10399457Y11586136D01*
X10411785Y11567685D01*
X10430236Y11555357D01*
X10452000Y11551028D01*
X10528000D01*
X10549764Y11555357D01*
X10568215Y11567685D01*
X10580543Y11586136D01*
X10584873Y11607900D01*
Y11683900D01*
X10580543Y11705664D01*
X10568215Y11724115D01*
X10549764Y11736444D01*
X10528000Y11740773D01*
D02*
G37*
G36*
X12112375Y11949454D02*
X11910421Y11747500D01*
X12112375Y11545547D01*
X12140619Y11584422D01*
X12162854Y11628060D01*
X12177988Y11674639D01*
X12185650Y11723012D01*
Y11771988D01*
X12177988Y11820361D01*
X12162854Y11866940D01*
X12140619Y11910578D01*
X12112375Y11949454D01*
D02*
G37*
G36*
X3158875D02*
X2956921Y11747500D01*
X3158875Y11545547D01*
X3187119Y11584422D01*
X3209354Y11628060D01*
X3224488Y11674639D01*
X3232150Y11723012D01*
Y11771988D01*
X3224488Y11820361D01*
X3209354Y11866940D01*
X3187119Y11910578D01*
X3158875Y11949454D01*
D02*
G37*
G36*
X11636625D02*
X11608381Y11910578D01*
X11586146Y11866940D01*
X11571012Y11820361D01*
X11563350Y11771988D01*
Y11723012D01*
X11571012Y11674639D01*
X11586146Y11628060D01*
X11608381Y11584422D01*
X11636625Y11545546D01*
X11838579Y11747500D01*
X11636625Y11949454D01*
D02*
G37*
G36*
X2683125D02*
X2654881Y11910578D01*
X2632646Y11866940D01*
X2617512Y11820361D01*
X2609850Y11771988D01*
Y11723012D01*
X2617512Y11674639D01*
X2632646Y11628060D01*
X2654881Y11584422D01*
X2683125Y11545546D01*
X2885079Y11747500D01*
X2683125Y11949454D01*
D02*
G37*
G36*
X7239000Y11609979D02*
X7187543Y11558522D01*
X7199861Y11551410D01*
X7225651Y11544500D01*
X7252349D01*
X7278139Y11551410D01*
X7290457Y11558522D01*
X7239000Y11609979D01*
D02*
G37*
G36*
X11874500Y11711579D02*
X11672546Y11509625D01*
X11711422Y11481381D01*
X11755060Y11459146D01*
X11801639Y11444012D01*
X11850012Y11436350D01*
X11898988D01*
X11947361Y11444012D01*
X11993940Y11459146D01*
X12037578Y11481381D01*
X12076454Y11509625D01*
X11874500Y11711579D01*
D02*
G37*
G36*
X2921000D02*
X2719046Y11509625D01*
X2757922Y11481381D01*
X2801560Y11459146D01*
X2848139Y11444012D01*
X2896512Y11436350D01*
X2945488D01*
X2993861Y11444012D01*
X3040440Y11459146D01*
X3084078Y11481381D01*
X3122954Y11509625D01*
X2921000Y11711579D01*
D02*
G37*
G36*
X6235346Y11739680D02*
X6210654D01*
X6186802Y11733289D01*
X6165418Y11720943D01*
X6147957Y11703482D01*
X6135611Y11682098D01*
X6129220Y11658246D01*
Y11633554D01*
X6135611Y11609702D01*
X6147957Y11588318D01*
X6165418Y11570857D01*
X6186802Y11558511D01*
X6191923Y11557139D01*
Y11388712D01*
X6191347Y11388473D01*
X6175627Y11372753D01*
X6167120Y11352215D01*
Y11329985D01*
X6175627Y11309447D01*
X6191347Y11293727D01*
X6211885Y11285220D01*
X6234115D01*
X6254653Y11293727D01*
X6270373Y11309447D01*
X6278880Y11329985D01*
Y11352215D01*
X6270373Y11372753D01*
X6254653Y11388473D01*
X6254077Y11388712D01*
Y11557139D01*
X6259198Y11558511D01*
X6280582Y11570857D01*
X6298043Y11588318D01*
X6310389Y11609702D01*
X6316780Y11633554D01*
Y11658246D01*
X6310389Y11682098D01*
X6298043Y11703482D01*
X6280582Y11720943D01*
X6259198Y11733289D01*
X6235346Y11739680D01*
D02*
G37*
G36*
X11468273Y11349980D02*
X11442527D01*
X11417658Y11343316D01*
X11395362Y11330443D01*
X11377157Y11312238D01*
X11364284Y11289942D01*
X11357620Y11265073D01*
Y11239327D01*
X11364284Y11214458D01*
X11377157Y11192162D01*
X11395362Y11173957D01*
X11417658Y11161084D01*
X11442527Y11154420D01*
X11468273D01*
X11493142Y11161084D01*
X11515438Y11173957D01*
X11533643Y11192162D01*
X11546516Y11214458D01*
X11553180Y11239327D01*
Y11265073D01*
X11546516Y11289942D01*
X11533643Y11312238D01*
X11515438Y11330443D01*
X11493142Y11343316D01*
X11468273Y11349980D01*
D02*
G37*
G36*
X5753000Y11740773D02*
X5677000D01*
X5655236Y11736443D01*
X5636785Y11724115D01*
X5624457Y11705664D01*
X5620127Y11683900D01*
Y11607900D01*
X5624457Y11586136D01*
X5636785Y11567685D01*
X5655236Y11555357D01*
X5677000Y11551027D01*
X5753000D01*
X5763779Y11553171D01*
X5861723Y11455227D01*
Y7056903D01*
X5849697Y7052820D01*
X5842717Y7061917D01*
X5812749Y7084912D01*
X5810510Y7085839D01*
X5686175Y7210175D01*
X5676093Y7216912D01*
X5664200Y7219277D01*
X4356272D01*
X3642795Y7932755D01*
X3632713Y7939492D01*
X3620820Y7941857D01*
X3568674D01*
X3565271Y7954557D01*
X3574115Y7959664D01*
X3517900Y8015879D01*
X3461685Y7959664D01*
X3470529Y7954557D01*
X3467126Y7941857D01*
X3417793D01*
X3353397Y8006253D01*
X3357346Y8013093D01*
X3364180Y8038598D01*
Y8065002D01*
X3357346Y8090507D01*
X3344144Y8113373D01*
X3325473Y8132044D01*
X3302607Y8145246D01*
X3277102Y8152080D01*
X3250698D01*
X3225193Y8145246D01*
X3202327Y8132044D01*
X3183656Y8113373D01*
X3170454Y8090507D01*
X3163620Y8065002D01*
Y8038598D01*
X3170454Y8013093D01*
X3183656Y7990227D01*
X3202327Y7971556D01*
X3225193Y7958354D01*
X3250698Y7951520D01*
X3277102D01*
X3302607Y7958354D01*
X3309447Y7962303D01*
X3382945Y7888805D01*
X3393027Y7882068D01*
X3404920Y7879703D01*
X3440025D01*
X3445285Y7867003D01*
X3437656Y7859373D01*
X3424454Y7836507D01*
X3417620Y7811002D01*
Y7784598D01*
X3424454Y7759093D01*
X3437656Y7736227D01*
X3456327Y7717556D01*
X3479193Y7704354D01*
X3504698Y7697520D01*
X3531102D01*
X3556607Y7704354D01*
X3579473Y7717556D01*
X3598144Y7736227D01*
X3611346Y7759093D01*
X3618180Y7784598D01*
Y7811002D01*
X3611346Y7836507D01*
X3598144Y7859373D01*
X3590515Y7867003D01*
X3595775Y7879703D01*
X3607948D01*
X4321425Y7166225D01*
X4331507Y7159488D01*
X4343400Y7157123D01*
X5651328D01*
X5736837Y7071613D01*
X5731977Y7059880D01*
X5727198D01*
X5701693Y7053046D01*
X5678827Y7039844D01*
X5660156Y7021173D01*
X5646954Y6998307D01*
X5640120Y6972802D01*
Y6946398D01*
X5646954Y6920893D01*
X5660156Y6898027D01*
X5667785Y6890397D01*
X5662525Y6877697D01*
X5564275D01*
X5559015Y6890397D01*
X5566644Y6898027D01*
X5579846Y6920893D01*
X5586680Y6946398D01*
Y6972802D01*
X5579846Y6998307D01*
X5566644Y7021173D01*
X5547973Y7039844D01*
X5525107Y7053046D01*
X5499602Y7059880D01*
X5473198D01*
X5447693Y7053046D01*
X5424827Y7039844D01*
X5406156Y7021173D01*
X5392954Y6998307D01*
X5386120Y6972802D01*
Y6946398D01*
X5392954Y6920893D01*
X5406156Y6898027D01*
X5413785Y6890397D01*
X5408525Y6877697D01*
X4570852D01*
X3882775Y7565775D01*
X3872693Y7572512D01*
X3860800Y7574877D01*
X3654412D01*
X3654173Y7575453D01*
X3638453Y7591173D01*
X3617915Y7599680D01*
X3595685D01*
X3575147Y7591173D01*
X3559427Y7575453D01*
X3550920Y7554915D01*
Y7532685D01*
X3559427Y7512147D01*
X3575147Y7496427D01*
X3595685Y7487920D01*
X3617915D01*
X3638453Y7496427D01*
X3654173Y7512147D01*
X3654412Y7512723D01*
X3847928D01*
X4536005Y6824645D01*
X4546087Y6817908D01*
X4557980Y6815543D01*
X5460191D01*
X5461863Y6802843D01*
X5447693Y6799046D01*
X5424827Y6785844D01*
X5406156Y6767173D01*
X5392954Y6744307D01*
X5386120Y6718802D01*
Y6692398D01*
X5392954Y6666893D01*
X5406156Y6644027D01*
X5424827Y6625356D01*
X5447693Y6612154D01*
X5473198Y6605320D01*
X5499602D01*
X5525107Y6612154D01*
X5547973Y6625356D01*
X5566644Y6644027D01*
X5579846Y6666893D01*
X5586680Y6692398D01*
Y6718802D01*
X5579846Y6744307D01*
X5566644Y6767173D01*
X5547973Y6785844D01*
X5525107Y6799046D01*
X5510937Y6802843D01*
X5512609Y6815543D01*
X5676817D01*
X5678067Y6802843D01*
X5676118Y6802455D01*
X5656592Y6789408D01*
X5643545Y6769882D01*
X5638964Y6746850D01*
Y6664350D01*
X5643545Y6641318D01*
X5656592Y6621792D01*
X5676118Y6608745D01*
X5699150Y6604164D01*
X5781650D01*
X5804682Y6608745D01*
X5824208Y6621792D01*
X5837255Y6641318D01*
X5841836Y6664350D01*
Y6746850D01*
X5837255Y6769882D01*
X5824208Y6789408D01*
X5804682Y6802455D01*
X5802733Y6802843D01*
X5803983Y6815543D01*
X5878607D01*
X6002259Y6691892D01*
X6002020Y6691315D01*
Y6669085D01*
X6010527Y6648547D01*
X6026247Y6632827D01*
X6046785Y6624320D01*
X6069015D01*
X6089553Y6632827D01*
X6105273Y6648547D01*
X6113780Y6669085D01*
Y6676709D01*
X6126480Y6681970D01*
X6153823Y6654627D01*
Y6423012D01*
X6153247Y6422773D01*
X6137527Y6407053D01*
X6129020Y6386515D01*
Y6364285D01*
X6137527Y6343747D01*
X6153247Y6328027D01*
X6173785Y6319520D01*
X6196015D01*
X6216553Y6328027D01*
X6232273Y6343747D01*
X6240780Y6364285D01*
Y6386515D01*
X6232273Y6407053D01*
X6216553Y6422773D01*
X6215977Y6423012D01*
Y6650713D01*
X6228677Y6655973D01*
X6556625Y6328025D01*
X6566707Y6321288D01*
X6578600Y6318923D01*
X7419988D01*
X7420227Y6318347D01*
X7435947Y6302627D01*
X7456485Y6294120D01*
X7478715D01*
X7499253Y6302627D01*
X7511278Y6314652D01*
X7527049Y6316841D01*
X7779423Y6064467D01*
Y5189302D01*
X7764799Y5180859D01*
X7750941Y5167001D01*
X7741142Y5150029D01*
X7736070Y5131099D01*
Y5111501D01*
X7741142Y5092571D01*
X7750941Y5075599D01*
X7764799Y5061741D01*
X7781771Y5051942D01*
X7800701Y5046870D01*
X7820299D01*
X7839229Y5051942D01*
X7856201Y5061741D01*
X7870059Y5075599D01*
X7879858Y5092571D01*
X7884930Y5111501D01*
Y5131099D01*
X7879858Y5150029D01*
X7870059Y5167001D01*
X7856201Y5180859D01*
X7841577Y5189302D01*
Y6077340D01*
X7839212Y6089232D01*
X7832475Y6099315D01*
X7550896Y6380894D01*
X7540814Y6387630D01*
X7528921Y6389996D01*
X7512310D01*
X7508063Y6395123D01*
X7514035Y6407823D01*
X7607128D01*
X7906423Y6108528D01*
Y4982516D01*
X7788525Y4864618D01*
X7781788Y4854536D01*
X7779423Y4842643D01*
Y4395502D01*
X7764799Y4387059D01*
X7750941Y4373201D01*
X7741142Y4356229D01*
X7736070Y4337299D01*
Y4317701D01*
X7741142Y4298771D01*
X7750941Y4281799D01*
X7764799Y4267941D01*
X7781771Y4258142D01*
X7800701Y4253070D01*
X7820299D01*
X7839229Y4258142D01*
X7856201Y4267941D01*
X7870059Y4281799D01*
X7879858Y4298771D01*
X7884930Y4317701D01*
Y4337299D01*
X7879858Y4356229D01*
X7870059Y4373201D01*
X7856201Y4387059D01*
X7841577Y4395502D01*
Y4829771D01*
X7959475Y4947668D01*
X7966212Y4957750D01*
X7968577Y4969643D01*
Y6121400D01*
X7966212Y6133293D01*
X7959475Y6143375D01*
X7641975Y6460875D01*
X7631893Y6467612D01*
X7620000Y6469977D01*
X7362812D01*
X7362573Y6470553D01*
X7349103Y6484023D01*
X7351757Y6494614D01*
X7352997Y6496723D01*
X7632528D01*
X8147723Y5981527D01*
Y5147353D01*
X8135023Y5145681D01*
X8133858Y5150029D01*
X8124059Y5167001D01*
X8110201Y5180859D01*
X8093229Y5190658D01*
X8074299Y5195730D01*
X8054701D01*
X8035771Y5190658D01*
X8018799Y5180859D01*
X8004941Y5167001D01*
X7995142Y5150029D01*
X7990070Y5131099D01*
Y5111501D01*
X7995142Y5092571D01*
X8004941Y5075599D01*
X8018799Y5061741D01*
X8035771Y5051942D01*
X8054701Y5046870D01*
X8074299D01*
X8093229Y5051942D01*
X8110201Y5061741D01*
X8124059Y5075599D01*
X8133858Y5092571D01*
X8135023Y5096919D01*
X8147723Y5095247D01*
Y4467200D01*
X8150088Y4455307D01*
X8156825Y4445225D01*
X8248440Y4353610D01*
X8244070Y4337299D01*
Y4317701D01*
X8249142Y4298771D01*
X8258941Y4281799D01*
X8272799Y4267941D01*
X8289771Y4258142D01*
X8308701Y4253070D01*
X8328299D01*
X8347229Y4258142D01*
X8364201Y4267941D01*
X8378059Y4281799D01*
X8387858Y4298771D01*
X8392930Y4317701D01*
Y4337299D01*
X8387858Y4356229D01*
X8378059Y4373201D01*
X8364201Y4387059D01*
X8347229Y4396858D01*
X8328299Y4401930D01*
X8308701D01*
X8292390Y4397560D01*
X8209877Y4480073D01*
Y5994400D01*
X8207512Y6006293D01*
X8200775Y6016375D01*
X7667375Y6549775D01*
X7657293Y6556512D01*
X7645400Y6558877D01*
X6578773D01*
X6564307Y6573343D01*
X6564517Y6574959D01*
X6569988Y6585623D01*
X7683328D01*
X8414423Y5854528D01*
Y4454500D01*
X8416788Y4442607D01*
X8423525Y4432525D01*
X8502440Y4353610D01*
X8498070Y4337299D01*
Y4317701D01*
X8503142Y4298771D01*
X8512941Y4281799D01*
X8526799Y4267941D01*
X8543771Y4258142D01*
X8562701Y4253070D01*
X8582299D01*
X8601229Y4258142D01*
X8618201Y4267941D01*
X8632059Y4281799D01*
X8641858Y4298771D01*
X8646930Y4317701D01*
Y4337299D01*
X8641858Y4356229D01*
X8632059Y4373201D01*
X8618201Y4387059D01*
X8601229Y4396858D01*
X8582299Y4401930D01*
X8562701D01*
X8546390Y4397560D01*
X8476577Y4467373D01*
Y5867400D01*
X8474212Y5879293D01*
X8467475Y5889375D01*
X7718175Y6638675D01*
X7708093Y6645412D01*
X7696200Y6647777D01*
X6578772D01*
X6551430Y6675120D01*
X6556690Y6687820D01*
X6564315D01*
X6584853Y6696327D01*
X6600573Y6712047D01*
X6609080Y6732585D01*
Y6754815D01*
X6600573Y6775353D01*
X6584853Y6791073D01*
X6564315Y6799580D01*
X6542085D01*
X6541508Y6799341D01*
X6419177Y6921672D01*
Y10782128D01*
X6968653Y11331603D01*
X10850766D01*
X10856753Y11320402D01*
X10852972Y11314744D01*
X10848488Y11292200D01*
Y11212200D01*
X10852972Y11189656D01*
X10865743Y11170543D01*
X10884856Y11157772D01*
X10907400Y11153288D01*
X10987400D01*
X11009944Y11157772D01*
X11029057Y11170543D01*
X11041828Y11189656D01*
X11046312Y11212200D01*
Y11292200D01*
X11041828Y11314744D01*
X11038047Y11320402D01*
X11044034Y11331603D01*
X11078047D01*
X11113733Y11295917D01*
X11110284Y11289942D01*
X11103620Y11265073D01*
Y11239327D01*
X11110284Y11214458D01*
X11123157Y11192162D01*
X11141362Y11173957D01*
X11163658Y11161084D01*
X11188527Y11154420D01*
X11214273D01*
X11239142Y11161084D01*
X11261438Y11173957D01*
X11279643Y11192162D01*
X11292516Y11214458D01*
X11299180Y11239327D01*
Y11265073D01*
X11292516Y11289942D01*
X11279643Y11312238D01*
X11261438Y11330443D01*
X11239142Y11343316D01*
X11214273Y11349980D01*
X11188527D01*
X11163658Y11343316D01*
X11157683Y11339867D01*
X11112895Y11384655D01*
X11102813Y11391392D01*
X11090920Y11393757D01*
X6955780D01*
X6943887Y11391392D01*
X6933805Y11384655D01*
X6366125Y10816975D01*
X6359388Y10806893D01*
X6357023Y10795000D01*
Y6908800D01*
X6359388Y6896907D01*
X6366125Y6886825D01*
X6494027Y6758924D01*
X6492959Y6751551D01*
X6479478Y6747072D01*
X6266777Y6959772D01*
Y10921828D01*
X6752975Y11408025D01*
X6759712Y11418107D01*
X6762077Y11430000D01*
Y11557139D01*
X6767198Y11558511D01*
X6788582Y11570857D01*
X6806043Y11588318D01*
X6818389Y11609702D01*
X6824780Y11633554D01*
Y11658246D01*
X6818389Y11682098D01*
X6806043Y11703482D01*
X6788582Y11720943D01*
X6767198Y11733289D01*
X6743346Y11739680D01*
X6718654D01*
X6694802Y11733289D01*
X6673418Y11720943D01*
X6655957Y11703482D01*
X6643611Y11682098D01*
X6637220Y11658246D01*
Y11633554D01*
X6643611Y11609702D01*
X6655957Y11588318D01*
X6673418Y11570857D01*
X6694802Y11558511D01*
X6699923Y11557139D01*
Y11442873D01*
X6213725Y10956675D01*
X6206988Y10946593D01*
X6204623Y10934700D01*
Y6950987D01*
X6193960Y6945517D01*
X6192343Y6945307D01*
X6101677Y7035972D01*
Y10985328D01*
X6498975Y11382625D01*
X6505712Y11392707D01*
X6508077Y11404600D01*
Y11557139D01*
X6513198Y11558511D01*
X6534582Y11570857D01*
X6552043Y11588318D01*
X6564389Y11609702D01*
X6570780Y11633554D01*
Y11658246D01*
X6564389Y11682098D01*
X6552043Y11703482D01*
X6534582Y11720943D01*
X6513198Y11733289D01*
X6489346Y11739680D01*
X6464654D01*
X6440802Y11733289D01*
X6419418Y11720943D01*
X6401957Y11703482D01*
X6389611Y11682098D01*
X6383220Y11658246D01*
Y11633554D01*
X6389611Y11609702D01*
X6401957Y11588318D01*
X6419418Y11570857D01*
X6440802Y11558511D01*
X6445923Y11557139D01*
Y11417472D01*
X6048625Y11020175D01*
X6041888Y11010093D01*
X6039523Y10998200D01*
Y7027187D01*
X6028860Y7021717D01*
X6027243Y7021507D01*
X6000077Y7048672D01*
Y11557139D01*
X6005198Y11558511D01*
X6026582Y11570857D01*
X6044043Y11588318D01*
X6056389Y11609702D01*
X6062780Y11633554D01*
Y11658246D01*
X6056389Y11682098D01*
X6044043Y11703482D01*
X6026582Y11720943D01*
X6005198Y11733289D01*
X5981346Y11739680D01*
X5956654D01*
X5932802Y11733289D01*
X5911418Y11720943D01*
X5893957Y11703482D01*
X5881611Y11682098D01*
X5875220Y11658246D01*
Y11633554D01*
X5881611Y11609702D01*
X5893957Y11588318D01*
X5911418Y11570857D01*
X5932802Y11558511D01*
X5937923Y11557139D01*
Y7066405D01*
X5925223Y7059617D01*
X5923877Y7060516D01*
Y11468100D01*
X5921512Y11479993D01*
X5914775Y11490075D01*
X5807729Y11597121D01*
X5809873Y11607900D01*
Y11683900D01*
X5805543Y11705664D01*
X5793215Y11724115D01*
X5774764Y11736443D01*
X5753000Y11740773D01*
D02*
G37*
G36*
X11137831Y10998200D02*
X11112569D01*
X11101999Y10993822D01*
X11125200Y10970621D01*
X11148401Y10993822D01*
X11137831Y10998200D01*
D02*
G37*
G36*
X11184322Y10957901D02*
X11161121Y10934700D01*
X11184322Y10911499D01*
X11188700Y10922069D01*
Y10947331D01*
X11184322Y10957901D01*
D02*
G37*
G36*
X11066078Y10957901D02*
X11061700Y10947331D01*
Y10922069D01*
X11066078Y10911499D01*
X11089279Y10934700D01*
X11066078Y10957901D01*
D02*
G37*
G36*
X12001673Y11095980D02*
X11975927D01*
X11951058Y11089316D01*
X11928762Y11076443D01*
X11910557Y11058238D01*
X11897684Y11035942D01*
X11891020Y11011073D01*
Y10985327D01*
X11897684Y10960458D01*
X11898809Y10958509D01*
X11801782Y10861481D01*
X11796715Y10863580D01*
X11774485D01*
X11753947Y10855073D01*
X11738227Y10839353D01*
X11729720Y10818815D01*
Y10796585D01*
X11738227Y10776047D01*
X11753947Y10760327D01*
X11774485Y10751820D01*
X11796715D01*
X11817253Y10760327D01*
X11832973Y10776047D01*
X11841480Y10796585D01*
Y10813280D01*
X11941057Y10912858D01*
X11951058Y10907084D01*
X11975927Y10900420D01*
X12001673D01*
X12026542Y10907084D01*
X12048838Y10919957D01*
X12067043Y10938162D01*
X12079916Y10960458D01*
X12086580Y10985327D01*
Y11011073D01*
X12079916Y11035942D01*
X12067043Y11058238D01*
X12048838Y11076443D01*
X12026542Y11089316D01*
X12001673Y11095980D01*
D02*
G37*
G36*
X11125200Y10898779D02*
X11101999Y10875578D01*
X11112569Y10871200D01*
X11137831D01*
X11148401Y10875578D01*
X11125200Y10898779D01*
D02*
G37*
G36*
X12001673Y10841980D02*
X11975927D01*
X11951058Y10835316D01*
X11928762Y10822443D01*
X11910557Y10804238D01*
X11897684Y10781942D01*
X11891020Y10757073D01*
Y10731327D01*
X11897684Y10706458D01*
X11910557Y10684162D01*
X11928762Y10665957D01*
X11951058Y10653084D01*
X11975927Y10646420D01*
X12001673D01*
X12026542Y10653084D01*
X12048838Y10665957D01*
X12067043Y10684162D01*
X12079916Y10706458D01*
X12086580Y10731327D01*
Y10757073D01*
X12079916Y10781942D01*
X12067043Y10804238D01*
X12048838Y10822443D01*
X12026542Y10835316D01*
X12001673Y10841980D01*
D02*
G37*
G36*
X8997929Y10746792D02*
X8971525D01*
X8946020Y10739958D01*
X8923154Y10726756D01*
X8904483Y10708086D01*
X8891281Y10685219D01*
X8884447Y10659714D01*
Y10633310D01*
X8891281Y10607806D01*
X8904483Y10584939D01*
X8923154Y10566268D01*
X8946020Y10553066D01*
X8971525Y10546232D01*
X8997929D01*
X9023434Y10553066D01*
X9046300Y10566268D01*
X9064971Y10584939D01*
X9078173Y10607806D01*
X9085007Y10633310D01*
Y10659714D01*
X9078173Y10685219D01*
X9064971Y10708086D01*
X9046300Y10726756D01*
X9023434Y10739958D01*
X8997929Y10746792D01*
D02*
G37*
G36*
X8743929D02*
X8717525D01*
X8692020Y10739958D01*
X8669154Y10726756D01*
X8650483Y10708086D01*
X8637281Y10685219D01*
X8630447Y10659714D01*
Y10633310D01*
X8637281Y10607806D01*
X8650483Y10584939D01*
X8669154Y10566268D01*
X8692020Y10553066D01*
X8717525Y10546232D01*
X8743929D01*
X8769434Y10553066D01*
X8792300Y10566268D01*
X8810971Y10584939D01*
X8824173Y10607806D01*
X8831007Y10633310D01*
Y10659714D01*
X8824173Y10685219D01*
X8810971Y10708086D01*
X8792300Y10726756D01*
X8769434Y10739958D01*
X8743929Y10746792D01*
D02*
G37*
G36*
X6923929D02*
X6897525D01*
X6872021Y10739958D01*
X6849154Y10726756D01*
X6830483Y10708086D01*
X6817281Y10685219D01*
X6810447Y10659714D01*
Y10633310D01*
X6817281Y10607806D01*
X6830483Y10584939D01*
X6849154Y10566268D01*
X6872021Y10553066D01*
X6897525Y10546232D01*
X6923929D01*
X6949434Y10553066D01*
X6972301Y10566268D01*
X6990971Y10584939D01*
X7004173Y10607806D01*
X7011007Y10633310D01*
Y10659714D01*
X7004173Y10685219D01*
X6990971Y10708086D01*
X6972301Y10726756D01*
X6949434Y10739958D01*
X6923929Y10746792D01*
D02*
G37*
G36*
X6669929D02*
X6643525D01*
X6618021Y10739958D01*
X6595154Y10726756D01*
X6576483Y10708086D01*
X6563281Y10685219D01*
X6556447Y10659714D01*
Y10633310D01*
X6563281Y10607806D01*
X6576483Y10584939D01*
X6595154Y10566268D01*
X6618021Y10553066D01*
X6643525Y10546232D01*
X6669929D01*
X6695434Y10553066D01*
X6718301Y10566268D01*
X6736971Y10584939D01*
X6750173Y10607806D01*
X6757007Y10633310D01*
Y10659714D01*
X6750173Y10685219D01*
X6736971Y10708086D01*
X6718301Y10726756D01*
X6695434Y10739958D01*
X6669929Y10746792D01*
D02*
G37*
G36*
X12002676Y10595600D02*
X11974924D01*
X11948117Y10588417D01*
X11934415Y10580506D01*
X11988800Y10526121D01*
X12043185Y10580506D01*
X12029483Y10588417D01*
X12002676Y10595600D01*
D02*
G37*
G36*
X11326815Y10571480D02*
X11304585D01*
X11284047Y10562973D01*
X11268327Y10547253D01*
X11259820Y10526715D01*
Y10504485D01*
X11260059Y10503908D01*
X11217525Y10461375D01*
X11210788Y10451293D01*
X11208423Y10439400D01*
Y7035800D01*
X11210788Y7023907D01*
X11217525Y7013825D01*
X11526759Y6704592D01*
X11526520Y6704015D01*
Y6681785D01*
X11535027Y6661247D01*
X11550747Y6645527D01*
X11571285Y6637020D01*
X11593515D01*
X11614053Y6645527D01*
X11629773Y6661247D01*
X11638280Y6681785D01*
Y6704015D01*
X11629773Y6724553D01*
X11614053Y6740273D01*
X11593515Y6748780D01*
X11571285D01*
X11570708Y6748541D01*
X11270577Y7048672D01*
Y7950503D01*
X11282310Y7955363D01*
X11284047Y7953627D01*
X11304585Y7945120D01*
X11326815D01*
X11347353Y7953627D01*
X11363073Y7969347D01*
X11371580Y7989885D01*
Y8012115D01*
X11371341Y8012692D01*
X11430173Y8071523D01*
X11895898D01*
X11897684Y8064858D01*
X11910557Y8042562D01*
X11928762Y8024357D01*
X11951058Y8011484D01*
X11975927Y8004820D01*
X12001673D01*
X12026542Y8011484D01*
X12048838Y8024357D01*
X12067043Y8042562D01*
X12079916Y8064858D01*
X12086580Y8089727D01*
Y8115473D01*
X12079916Y8140342D01*
X12067043Y8162638D01*
X12048838Y8180843D01*
X12026542Y8193716D01*
X12001673Y8200380D01*
X11975927D01*
X11951058Y8193716D01*
X11928762Y8180843D01*
X11910557Y8162638D01*
X11897684Y8140342D01*
X11895898Y8133677D01*
X11417300D01*
X11405407Y8131312D01*
X11395325Y8124575D01*
X11327392Y8056641D01*
X11326815Y8056880D01*
X11304585D01*
X11284047Y8048373D01*
X11282310Y8046637D01*
X11270577Y8051497D01*
Y10426528D01*
X11304008Y10459959D01*
X11304585Y10459720D01*
X11326815D01*
X11347353Y10468227D01*
X11363073Y10483947D01*
X11371580Y10504485D01*
Y10526715D01*
X11363073Y10547253D01*
X11347353Y10562973D01*
X11326815Y10571480D01*
D02*
G37*
G36*
X11898494Y10544585D02*
X11890583Y10530883D01*
X11883400Y10504076D01*
Y10476324D01*
X11890583Y10449517D01*
X11898494Y10435815D01*
X11952879Y10490200D01*
X11898494Y10544585D01*
D02*
G37*
G36*
X12079106Y10544585D02*
X12024721Y10490200D01*
X12079106Y10435815D01*
X12087017Y10449517D01*
X12094200Y10476324D01*
Y10504076D01*
X12087017Y10530883D01*
X12079106Y10544585D01*
D02*
G37*
G36*
X11988800Y10454279D02*
X11934415Y10399894D01*
X11948117Y10391983D01*
X11974924Y10384800D01*
X12002676D01*
X12029483Y10391983D01*
X12043185Y10399894D01*
X11988800Y10454279D01*
D02*
G37*
G36*
X8997929Y10492792D02*
X8971525D01*
X8946020Y10485958D01*
X8923154Y10472756D01*
X8904483Y10454086D01*
X8891281Y10431219D01*
X8884447Y10405714D01*
Y10379310D01*
X8891281Y10353806D01*
X8904483Y10330939D01*
X8923154Y10312268D01*
X8946020Y10299066D01*
X8971525Y10292232D01*
X8997929D01*
X9023434Y10299066D01*
X9046300Y10312268D01*
X9064971Y10330939D01*
X9078173Y10353806D01*
X9085007Y10379310D01*
Y10405714D01*
X9078173Y10431219D01*
X9064971Y10454086D01*
X9046300Y10472756D01*
X9023434Y10485958D01*
X8997929Y10492792D01*
D02*
G37*
G36*
X8743929D02*
X8717525D01*
X8692020Y10485958D01*
X8669154Y10472756D01*
X8650483Y10454086D01*
X8637281Y10431219D01*
X8630447Y10405714D01*
Y10379310D01*
X8637281Y10353806D01*
X8650483Y10330939D01*
X8669154Y10312268D01*
X8692020Y10299066D01*
X8717525Y10292232D01*
X8743929D01*
X8769434Y10299066D01*
X8792300Y10312268D01*
X8810971Y10330939D01*
X8824173Y10353806D01*
X8831007Y10379310D01*
Y10405714D01*
X8824173Y10431219D01*
X8810971Y10454086D01*
X8792300Y10472756D01*
X8769434Y10485958D01*
X8743929Y10492792D01*
D02*
G37*
G36*
X6923929D02*
X6897525D01*
X6872021Y10485958D01*
X6849154Y10472756D01*
X6830483Y10454086D01*
X6817281Y10431219D01*
X6810447Y10405714D01*
Y10379310D01*
X6817281Y10353806D01*
X6830483Y10330939D01*
X6849154Y10312268D01*
X6872021Y10299066D01*
X6897525Y10292232D01*
X6923929D01*
X6949434Y10299066D01*
X6972301Y10312268D01*
X6990971Y10330939D01*
X7004173Y10353806D01*
X7011007Y10379310D01*
Y10405714D01*
X7004173Y10431219D01*
X6990971Y10454086D01*
X6972301Y10472756D01*
X6949434Y10485958D01*
X6923929Y10492792D01*
D02*
G37*
G36*
X6669929D02*
X6643525D01*
X6618021Y10485958D01*
X6595154Y10472756D01*
X6576483Y10454086D01*
X6563281Y10431219D01*
X6556447Y10405714D01*
Y10379310D01*
X6563281Y10353806D01*
X6576483Y10330939D01*
X6595154Y10312268D01*
X6618021Y10299066D01*
X6643525Y10292232D01*
X6669929D01*
X6695434Y10299066D01*
X6718301Y10312268D01*
X6736971Y10330939D01*
X6750173Y10353806D01*
X6757007Y10379310D01*
Y10405714D01*
X6750173Y10431219D01*
X6736971Y10454086D01*
X6718301Y10472756D01*
X6695434Y10485958D01*
X6669929Y10492792D01*
D02*
G37*
G36*
X8997929Y10238792D02*
X8971525D01*
X8946020Y10231958D01*
X8923154Y10218756D01*
X8904483Y10200086D01*
X8891281Y10177219D01*
X8884447Y10151714D01*
Y10125310D01*
X8891281Y10099806D01*
X8904483Y10076939D01*
X8923154Y10058268D01*
X8946020Y10045066D01*
X8971525Y10038232D01*
X8997929D01*
X9023434Y10045066D01*
X9046300Y10058268D01*
X9064971Y10076939D01*
X9078173Y10099806D01*
X9085007Y10125310D01*
Y10151714D01*
X9078173Y10177219D01*
X9064971Y10200086D01*
X9046300Y10218756D01*
X9023434Y10231958D01*
X8997929Y10238792D01*
D02*
G37*
G36*
X8743929D02*
X8717525D01*
X8692020Y10231958D01*
X8669154Y10218756D01*
X8650483Y10200086D01*
X8637281Y10177219D01*
X8630447Y10151714D01*
Y10125310D01*
X8637281Y10099806D01*
X8650483Y10076939D01*
X8669154Y10058268D01*
X8692020Y10045066D01*
X8717525Y10038232D01*
X8743929D01*
X8769434Y10045066D01*
X8792300Y10058268D01*
X8810971Y10076939D01*
X8824173Y10099806D01*
X8831007Y10125310D01*
Y10151714D01*
X8824173Y10177219D01*
X8810971Y10200086D01*
X8792300Y10218756D01*
X8769434Y10231958D01*
X8743929Y10238792D01*
D02*
G37*
G36*
X6923929D02*
X6897525D01*
X6872021Y10231958D01*
X6849154Y10218756D01*
X6830483Y10200086D01*
X6817281Y10177219D01*
X6810447Y10151714D01*
Y10125310D01*
X6817281Y10099806D01*
X6830483Y10076939D01*
X6849154Y10058268D01*
X6872021Y10045066D01*
X6897525Y10038232D01*
X6923929D01*
X6949434Y10045066D01*
X6972301Y10058268D01*
X6990971Y10076939D01*
X7004173Y10099806D01*
X7011007Y10125310D01*
Y10151714D01*
X7004173Y10177219D01*
X6990971Y10200086D01*
X6972301Y10218756D01*
X6949434Y10231958D01*
X6923929Y10238792D01*
D02*
G37*
G36*
X6669929D02*
X6643525D01*
X6618021Y10231958D01*
X6595154Y10218756D01*
X6576483Y10200086D01*
X6563281Y10177219D01*
X6556447Y10151714D01*
Y10125310D01*
X6563281Y10099806D01*
X6576483Y10076939D01*
X6595154Y10058268D01*
X6618021Y10045066D01*
X6643525Y10038232D01*
X6669929D01*
X6695434Y10045066D01*
X6718301Y10058268D01*
X6736971Y10076939D01*
X6750173Y10099806D01*
X6757007Y10125310D01*
Y10151714D01*
X6750173Y10177219D01*
X6736971Y10200086D01*
X6718301Y10218756D01*
X6695434Y10231958D01*
X6669929Y10238792D01*
D02*
G37*
G36*
X8997929Y9984792D02*
X8971525D01*
X8946020Y9977958D01*
X8923154Y9964756D01*
X8904483Y9946086D01*
X8891281Y9923219D01*
X8884447Y9897714D01*
Y9871310D01*
X8891281Y9845806D01*
X8904483Y9822939D01*
X8923154Y9804268D01*
X8946020Y9791066D01*
X8971525Y9784232D01*
X8997929D01*
X9023434Y9791066D01*
X9046300Y9804268D01*
X9064971Y9822939D01*
X9078173Y9845806D01*
X9085007Y9871310D01*
Y9897714D01*
X9078173Y9923219D01*
X9064971Y9946086D01*
X9046300Y9964756D01*
X9023434Y9977958D01*
X8997929Y9984792D01*
D02*
G37*
G36*
X8743929D02*
X8717525D01*
X8692020Y9977958D01*
X8669154Y9964756D01*
X8650483Y9946086D01*
X8637281Y9923219D01*
X8630447Y9897714D01*
Y9871310D01*
X8637281Y9845806D01*
X8650483Y9822939D01*
X8669154Y9804268D01*
X8692020Y9791066D01*
X8717525Y9784232D01*
X8743929D01*
X8769434Y9791066D01*
X8792300Y9804268D01*
X8810971Y9822939D01*
X8824173Y9845806D01*
X8831007Y9871310D01*
Y9897714D01*
X8824173Y9923219D01*
X8810971Y9946086D01*
X8792300Y9964756D01*
X8769434Y9977958D01*
X8743929Y9984792D01*
D02*
G37*
G36*
X6923929D02*
X6897525D01*
X6872021Y9977958D01*
X6849154Y9964756D01*
X6830483Y9946086D01*
X6817281Y9923219D01*
X6810447Y9897714D01*
Y9871310D01*
X6817281Y9845806D01*
X6830483Y9822939D01*
X6849154Y9804268D01*
X6872021Y9791066D01*
X6897525Y9784232D01*
X6923929D01*
X6949434Y9791066D01*
X6972301Y9804268D01*
X6990971Y9822939D01*
X7004173Y9845806D01*
X7011007Y9871310D01*
Y9897714D01*
X7004173Y9923219D01*
X6990971Y9946086D01*
X6972301Y9964756D01*
X6949434Y9977958D01*
X6923929Y9984792D01*
D02*
G37*
G36*
X6669929D02*
X6643525D01*
X6618021Y9977958D01*
X6595154Y9964756D01*
X6576483Y9946086D01*
X6563281Y9923219D01*
X6556447Y9897714D01*
Y9871310D01*
X6563281Y9845806D01*
X6576483Y9822939D01*
X6595154Y9804268D01*
X6618021Y9791066D01*
X6643525Y9784232D01*
X6669929D01*
X6695434Y9791066D01*
X6718301Y9804268D01*
X6736971Y9822939D01*
X6750173Y9845806D01*
X6757007Y9871310D01*
Y9897714D01*
X6750173Y9923219D01*
X6736971Y9946086D01*
X6718301Y9964756D01*
X6695434Y9977958D01*
X6669929Y9984792D01*
D02*
G37*
G36*
X12002676Y9655800D02*
X11974924D01*
X11948117Y9648617D01*
X11934415Y9640706D01*
X11988800Y9586321D01*
X12043185Y9640706D01*
X12029483Y9648617D01*
X12002676Y9655800D01*
D02*
G37*
G36*
X8051731Y9563100D02*
X8026469D01*
X8015899Y9558722D01*
X8039100Y9535521D01*
X8062301Y9558722D01*
X8051731Y9563100D01*
D02*
G37*
G36*
X8997929Y9730792D02*
X8971525D01*
X8946020Y9723958D01*
X8923154Y9710756D01*
X8904483Y9692086D01*
X8891281Y9669219D01*
X8884447Y9643714D01*
Y9617310D01*
X8891281Y9591806D01*
X8904483Y9568939D01*
X8923154Y9550268D01*
X8946020Y9537066D01*
X8971525Y9530232D01*
X8997929D01*
X9023434Y9537066D01*
X9046300Y9550268D01*
X9064971Y9568939D01*
X9078173Y9591806D01*
X9085007Y9617310D01*
Y9643714D01*
X9078173Y9669219D01*
X9064971Y9692086D01*
X9046300Y9710756D01*
X9023434Y9723958D01*
X8997929Y9730792D01*
D02*
G37*
G36*
X8743929D02*
X8717525D01*
X8692020Y9723958D01*
X8669154Y9710756D01*
X8650483Y9692086D01*
X8637281Y9669219D01*
X8630447Y9643714D01*
Y9617310D01*
X8637281Y9591806D01*
X8650483Y9568939D01*
X8669154Y9550268D01*
X8692020Y9537066D01*
X8717525Y9530232D01*
X8743929D01*
X8769434Y9537066D01*
X8792300Y9550268D01*
X8810971Y9568939D01*
X8824173Y9591806D01*
X8831007Y9617310D01*
Y9643714D01*
X8824173Y9669219D01*
X8810971Y9692086D01*
X8792300Y9710756D01*
X8769434Y9723958D01*
X8743929Y9730792D01*
D02*
G37*
G36*
X6923929D02*
X6897525D01*
X6872021Y9723958D01*
X6849154Y9710756D01*
X6830483Y9692086D01*
X6817281Y9669219D01*
X6810447Y9643714D01*
Y9617310D01*
X6817281Y9591806D01*
X6830483Y9568939D01*
X6849154Y9550268D01*
X6872021Y9537066D01*
X6897525Y9530232D01*
X6923929D01*
X6949434Y9537066D01*
X6972301Y9550268D01*
X6990971Y9568939D01*
X7004173Y9591806D01*
X7011007Y9617310D01*
Y9643714D01*
X7004173Y9669219D01*
X6990971Y9692086D01*
X6972301Y9710756D01*
X6949434Y9723958D01*
X6923929Y9730792D01*
D02*
G37*
G36*
X6669929D02*
X6643525D01*
X6618021Y9723958D01*
X6595154Y9710756D01*
X6576483Y9692086D01*
X6563281Y9669219D01*
X6556447Y9643714D01*
Y9617310D01*
X6563281Y9591806D01*
X6576483Y9568939D01*
X6595154Y9550268D01*
X6618021Y9537066D01*
X6643525Y9530232D01*
X6669929D01*
X6695434Y9537066D01*
X6718301Y9550268D01*
X6736971Y9568939D01*
X6750173Y9591806D01*
X6757007Y9617310D01*
Y9643714D01*
X6750173Y9669219D01*
X6736971Y9692086D01*
X6718301Y9710756D01*
X6695434Y9723958D01*
X6669929Y9730792D01*
D02*
G37*
G36*
X11898494Y9604785D02*
X11890583Y9591083D01*
X11883400Y9564276D01*
Y9536524D01*
X11890583Y9509717D01*
X11898494Y9496015D01*
X11952879Y9550400D01*
X11898494Y9604785D01*
D02*
G37*
G36*
X12079106Y9604785D02*
X12024721Y9550400D01*
X12079106Y9496015D01*
X12087017Y9509717D01*
X12094200Y9536524D01*
Y9564276D01*
X12087017Y9591083D01*
X12079106Y9604785D01*
D02*
G37*
G36*
X8098222Y9522801D02*
X8075021Y9499600D01*
X8098222Y9476399D01*
X8102600Y9486969D01*
Y9512231D01*
X8098222Y9522801D01*
D02*
G37*
G36*
X7979978Y9522801D02*
X7975600Y9512231D01*
Y9486969D01*
X7979978Y9476399D01*
X8003179Y9499600D01*
X7979978Y9522801D01*
D02*
G37*
G36*
X11988800Y9514479D02*
X11934415Y9460094D01*
X11948117Y9452183D01*
X11974924Y9445000D01*
X12002676D01*
X12029483Y9452183D01*
X12043185Y9460094D01*
X11988800Y9514479D01*
D02*
G37*
G36*
X8039100Y9463679D02*
X8015899Y9440478D01*
X8026469Y9436100D01*
X8051731D01*
X8062301Y9440478D01*
X8039100Y9463679D01*
D02*
G37*
G36*
X7442131Y9423400D02*
X7416869D01*
X7406299Y9419022D01*
X7429500Y9395821D01*
X7452701Y9419022D01*
X7442131Y9423400D01*
D02*
G37*
G36*
X3174931Y9410700D02*
X3149669D01*
X3139099Y9406322D01*
X3162300Y9383121D01*
X3185501Y9406322D01*
X3174931Y9410700D01*
D02*
G37*
G36*
X7488622Y9383101D02*
X7465421Y9359900D01*
X7488622Y9336699D01*
X7493000Y9347269D01*
Y9372531D01*
X7488622Y9383101D01*
D02*
G37*
G36*
X7370378Y9383101D02*
X7366000Y9372531D01*
Y9347269D01*
X7370378Y9336699D01*
X7393579Y9359900D01*
X7370378Y9383101D01*
D02*
G37*
G36*
X3221422Y9370401D02*
X3198221Y9347200D01*
X3221422Y9323999D01*
X3225800Y9334569D01*
Y9359831D01*
X3221422Y9370401D01*
D02*
G37*
G36*
X3103178Y9370401D02*
X3098800Y9359831D01*
Y9334569D01*
X3103178Y9323999D01*
X3126379Y9347200D01*
X3103178Y9370401D01*
D02*
G37*
G36*
X7429500Y9323979D02*
X7406299Y9300778D01*
X7416869Y9296400D01*
X7442131D01*
X7452701Y9300778D01*
X7429500Y9323979D01*
D02*
G37*
G36*
X3162300Y9311279D02*
X3139099Y9288078D01*
X3149669Y9283700D01*
X3174931D01*
X3185501Y9288078D01*
X3162300Y9311279D01*
D02*
G37*
G36*
X8997929Y9476792D02*
X8971525D01*
X8946020Y9469958D01*
X8923154Y9456756D01*
X8904483Y9438086D01*
X8891281Y9415219D01*
X8884447Y9389714D01*
Y9363310D01*
X8891281Y9337806D01*
X8904483Y9314939D01*
X8923154Y9296268D01*
X8946020Y9283066D01*
X8971525Y9276232D01*
X8997929D01*
X9023434Y9283066D01*
X9046300Y9296268D01*
X9064971Y9314939D01*
X9078173Y9337806D01*
X9085007Y9363310D01*
Y9389714D01*
X9078173Y9415219D01*
X9064971Y9438086D01*
X9046300Y9456756D01*
X9023434Y9469958D01*
X8997929Y9476792D01*
D02*
G37*
G36*
X8743929D02*
X8717525D01*
X8692020Y9469958D01*
X8669154Y9456756D01*
X8650483Y9438086D01*
X8637281Y9415219D01*
X8630447Y9389714D01*
Y9363310D01*
X8637281Y9337806D01*
X8650483Y9314939D01*
X8669154Y9296268D01*
X8692020Y9283066D01*
X8717525Y9276232D01*
X8743929D01*
X8769434Y9283066D01*
X8792300Y9296268D01*
X8810971Y9314939D01*
X8824173Y9337806D01*
X8831007Y9363310D01*
Y9389714D01*
X8824173Y9415219D01*
X8810971Y9438086D01*
X8792300Y9456756D01*
X8769434Y9469958D01*
X8743929Y9476792D01*
D02*
G37*
G36*
X6923929D02*
X6897525D01*
X6872021Y9469958D01*
X6849154Y9456756D01*
X6830483Y9438086D01*
X6817281Y9415219D01*
X6810447Y9389714D01*
Y9363310D01*
X6817281Y9337806D01*
X6830483Y9314939D01*
X6849154Y9296268D01*
X6872021Y9283066D01*
X6897525Y9276232D01*
X6923929D01*
X6949434Y9283066D01*
X6972301Y9296268D01*
X6990971Y9314939D01*
X7004173Y9337806D01*
X7011007Y9363310D01*
Y9389714D01*
X7004173Y9415219D01*
X6990971Y9438086D01*
X6972301Y9456756D01*
X6949434Y9469958D01*
X6923929Y9476792D01*
D02*
G37*
G36*
X6669929D02*
X6643525D01*
X6618021Y9469958D01*
X6595154Y9456756D01*
X6576483Y9438086D01*
X6563281Y9415219D01*
X6556447Y9389714D01*
Y9363310D01*
X6563281Y9337806D01*
X6576483Y9314939D01*
X6595154Y9296268D01*
X6618021Y9283066D01*
X6643525Y9276232D01*
X6669929D01*
X6695434Y9283066D01*
X6718301Y9296268D01*
X6736971Y9314939D01*
X6750173Y9337806D01*
X6757007Y9363310D01*
Y9389714D01*
X6750173Y9415219D01*
X6736971Y9438086D01*
X6718301Y9456756D01*
X6695434Y9469958D01*
X6669929Y9476792D01*
D02*
G37*
G36*
X12001673Y9394180D02*
X11975927D01*
X11951058Y9387516D01*
X11928762Y9374643D01*
X11910557Y9356438D01*
X11897684Y9334142D01*
X11891196Y9309931D01*
X11856953D01*
X11845061Y9307565D01*
X11834978Y9300828D01*
X11403592Y8869441D01*
X11403015Y8869680D01*
X11380785D01*
X11360247Y8861173D01*
X11344527Y8845453D01*
X11336020Y8824915D01*
Y8802685D01*
X11344527Y8782147D01*
X11360247Y8766427D01*
X11380785Y8757920D01*
X11403015D01*
X11423553Y8766427D01*
X11439273Y8782147D01*
X11447780Y8802685D01*
Y8824915D01*
X11447541Y8825492D01*
X11869826Y9247776D01*
X11903966D01*
X11910557Y9236362D01*
X11928762Y9218157D01*
X11951058Y9205284D01*
X11975927Y9198620D01*
X12001673D01*
X12026542Y9205284D01*
X12048838Y9218157D01*
X12067043Y9236362D01*
X12079916Y9258658D01*
X12086580Y9283527D01*
Y9309273D01*
X12079916Y9334142D01*
X12067043Y9356438D01*
X12048838Y9374643D01*
X12026542Y9387516D01*
X12001673Y9394180D01*
D02*
G37*
G36*
X5676831Y9194800D02*
X5651569D01*
X5640999Y9190422D01*
X5664200Y9167221D01*
X5687401Y9190422D01*
X5676831Y9194800D01*
D02*
G37*
G36*
X5723322Y9154501D02*
X5700121Y9131300D01*
X5723322Y9108099D01*
X5727700Y9118669D01*
Y9143931D01*
X5723322Y9154501D01*
D02*
G37*
G36*
X5605078Y9154501D02*
X5600700Y9143931D01*
Y9118669D01*
X5605078Y9108099D01*
X5628279Y9131300D01*
X5605078Y9154501D01*
D02*
G37*
G36*
X3886131Y9131300D02*
X3860869D01*
X3850299Y9126922D01*
X3873500Y9103721D01*
X3896701Y9126922D01*
X3886131Y9131300D01*
D02*
G37*
G36*
X5664200Y9095379D02*
X5640999Y9072178D01*
X5651569Y9067800D01*
X5676831D01*
X5687401Y9072178D01*
X5664200Y9095379D01*
D02*
G37*
G36*
X3932622Y9091001D02*
X3909421Y9067800D01*
X3932622Y9044599D01*
X3937000Y9055169D01*
Y9080431D01*
X3932622Y9091001D01*
D02*
G37*
G36*
X3814378Y9091001D02*
X3810000Y9080431D01*
Y9055169D01*
X3814378Y9044599D01*
X3837579Y9067800D01*
X3814378Y9091001D01*
D02*
G37*
G36*
X8997929Y9222792D02*
X8971525D01*
X8946020Y9215958D01*
X8923154Y9202756D01*
X8904483Y9184086D01*
X8891281Y9161219D01*
X8884447Y9135714D01*
Y9109310D01*
X8891281Y9083806D01*
X8904483Y9060939D01*
X8923154Y9042268D01*
X8946020Y9029066D01*
X8971525Y9022232D01*
X8997929D01*
X9023434Y9029066D01*
X9046300Y9042268D01*
X9064971Y9060939D01*
X9078173Y9083806D01*
X9085007Y9109310D01*
Y9135714D01*
X9078173Y9161219D01*
X9064971Y9184086D01*
X9046300Y9202756D01*
X9023434Y9215958D01*
X8997929Y9222792D01*
D02*
G37*
G36*
X8743929D02*
X8717525D01*
X8692020Y9215958D01*
X8669154Y9202756D01*
X8650483Y9184086D01*
X8637281Y9161219D01*
X8630447Y9135714D01*
Y9109310D01*
X8637281Y9083806D01*
X8650483Y9060939D01*
X8669154Y9042268D01*
X8692020Y9029066D01*
X8717525Y9022232D01*
X8743929D01*
X8769434Y9029066D01*
X8792300Y9042268D01*
X8810971Y9060939D01*
X8824173Y9083806D01*
X8831007Y9109310D01*
Y9135714D01*
X8824173Y9161219D01*
X8810971Y9184086D01*
X8792300Y9202756D01*
X8769434Y9215958D01*
X8743929Y9222792D01*
D02*
G37*
G36*
X6923929D02*
X6897525D01*
X6872021Y9215958D01*
X6849154Y9202756D01*
X6830483Y9184086D01*
X6817281Y9161219D01*
X6810447Y9135714D01*
Y9109310D01*
X6817281Y9083806D01*
X6830483Y9060939D01*
X6849154Y9042268D01*
X6872021Y9029066D01*
X6897525Y9022232D01*
X6923929D01*
X6949434Y9029066D01*
X6972301Y9042268D01*
X6990971Y9060939D01*
X7004173Y9083806D01*
X7011007Y9109310D01*
Y9135714D01*
X7004173Y9161219D01*
X6990971Y9184086D01*
X6972301Y9202756D01*
X6949434Y9215958D01*
X6923929Y9222792D01*
D02*
G37*
G36*
X6669929D02*
X6643525D01*
X6618021Y9215958D01*
X6595154Y9202756D01*
X6576483Y9184086D01*
X6563281Y9161219D01*
X6556447Y9135714D01*
Y9109310D01*
X6563281Y9083806D01*
X6576483Y9060939D01*
X6595154Y9042268D01*
X6618021Y9029066D01*
X6643525Y9022232D01*
X6669929D01*
X6695434Y9029066D01*
X6718301Y9042268D01*
X6736971Y9060939D01*
X6750173Y9083806D01*
X6757007Y9109310D01*
Y9135714D01*
X6750173Y9161219D01*
X6736971Y9184086D01*
X6718301Y9202756D01*
X6695434Y9215958D01*
X6669929Y9222792D01*
D02*
G37*
G36*
X3873500Y9031879D02*
X3850299Y9008678D01*
X3860869Y9004300D01*
X3886131D01*
X3896701Y9008678D01*
X3873500Y9031879D01*
D02*
G37*
G36*
X3532105Y9074100D02*
X3503695D01*
X3476252Y9066747D01*
X3461685Y9058336D01*
X3517900Y9002121D01*
X3574115Y9058336D01*
X3559548Y9066747D01*
X3532105Y9074100D01*
D02*
G37*
G36*
X3610036Y9022415D02*
X3553821Y8966200D01*
X3610036Y8909985D01*
X3618447Y8924552D01*
X3625800Y8951995D01*
Y8980405D01*
X3618447Y9007848D01*
X3610036Y9022415D01*
D02*
G37*
G36*
X3425764D02*
X3417353Y9007848D01*
X3410000Y8980405D01*
Y8951995D01*
X3417353Y8924552D01*
X3425764Y8909985D01*
X3481979Y8966200D01*
X3425764Y9022415D01*
D02*
G37*
G36*
X3277102Y9066480D02*
X3250698D01*
X3225193Y9059646D01*
X3202327Y9046444D01*
X3183656Y9027773D01*
X3170454Y9004907D01*
X3163620Y8979402D01*
Y8952998D01*
X3170454Y8927493D01*
X3183656Y8904627D01*
X3202327Y8885956D01*
X3225193Y8872754D01*
X3250698Y8865920D01*
X3277102D01*
X3302607Y8872754D01*
X3325473Y8885956D01*
X3344144Y8904627D01*
X3357346Y8927493D01*
X3364180Y8952998D01*
Y8979402D01*
X3357346Y9004907D01*
X3344144Y9027773D01*
X3325473Y9046444D01*
X3302607Y9059646D01*
X3277102Y9066480D01*
D02*
G37*
G36*
X3517900Y8930279D02*
X3461685Y8874064D01*
X3476252Y8865653D01*
X3503695Y8858300D01*
X3532105D01*
X3559548Y8865653D01*
X3574115Y8874064D01*
X3517900Y8930279D01*
D02*
G37*
G36*
X8997929Y8968792D02*
X8971525D01*
X8946020Y8961958D01*
X8923154Y8948756D01*
X8904483Y8930086D01*
X8891281Y8907219D01*
X8884447Y8881714D01*
Y8855310D01*
X8891281Y8829806D01*
X8904483Y8806939D01*
X8923154Y8788268D01*
X8946020Y8775066D01*
X8971525Y8768232D01*
X8997929D01*
X9023434Y8775066D01*
X9046300Y8788268D01*
X9064971Y8806939D01*
X9078173Y8829806D01*
X9085007Y8855310D01*
Y8881714D01*
X9078173Y8907219D01*
X9064971Y8930086D01*
X9046300Y8948756D01*
X9023434Y8961958D01*
X8997929Y8968792D01*
D02*
G37*
G36*
X8743929D02*
X8717525D01*
X8692020Y8961958D01*
X8669154Y8948756D01*
X8650483Y8930086D01*
X8637281Y8907219D01*
X8630447Y8881714D01*
Y8855310D01*
X8637281Y8829806D01*
X8650483Y8806939D01*
X8669154Y8788268D01*
X8692020Y8775066D01*
X8717525Y8768232D01*
X8743929D01*
X8769434Y8775066D01*
X8792300Y8788268D01*
X8810971Y8806939D01*
X8824173Y8829806D01*
X8831007Y8855310D01*
Y8881714D01*
X8824173Y8907219D01*
X8810971Y8930086D01*
X8792300Y8948756D01*
X8769434Y8961958D01*
X8743929Y8968792D01*
D02*
G37*
G36*
X6923929D02*
X6897525D01*
X6872021Y8961958D01*
X6849154Y8948756D01*
X6830483Y8930086D01*
X6817281Y8907219D01*
X6810447Y8881714D01*
Y8855310D01*
X6817281Y8829806D01*
X6830483Y8806939D01*
X6849154Y8788268D01*
X6872021Y8775066D01*
X6897525Y8768232D01*
X6923929D01*
X6949434Y8775066D01*
X6972301Y8788268D01*
X6990971Y8806939D01*
X7004173Y8829806D01*
X7011007Y8855310D01*
Y8881714D01*
X7004173Y8907219D01*
X6990971Y8930086D01*
X6972301Y8948756D01*
X6949434Y8961958D01*
X6923929Y8968792D01*
D02*
G37*
G36*
X6669929D02*
X6643525D01*
X6618021Y8961958D01*
X6595154Y8948756D01*
X6576483Y8930086D01*
X6563281Y8907219D01*
X6556447Y8881714D01*
Y8855310D01*
X6563281Y8829806D01*
X6576483Y8806939D01*
X6595154Y8788268D01*
X6618021Y8775066D01*
X6643525Y8768232D01*
X6669929D01*
X6695434Y8775066D01*
X6718301Y8788268D01*
X6736971Y8806939D01*
X6750173Y8829806D01*
X6757007Y8855310D01*
Y8881714D01*
X6750173Y8907219D01*
X6736971Y8930086D01*
X6718301Y8948756D01*
X6695434Y8961958D01*
X6669929Y8968792D01*
D02*
G37*
G36*
X8024815Y9339580D02*
X8002585D01*
X7982047Y9331073D01*
X7966327Y9315353D01*
X7957820Y9294815D01*
Y9272585D01*
X7966327Y9252047D01*
X7982047Y9236327D01*
X7982623Y9236088D01*
Y8915400D01*
X7984988Y8903507D01*
X7991725Y8893425D01*
X8097759Y8787392D01*
X8097520Y8786815D01*
Y8764585D01*
X8106027Y8744047D01*
X8121747Y8728327D01*
X8142285Y8719820D01*
X8164515D01*
X8185053Y8728327D01*
X8200773Y8744047D01*
X8209280Y8764585D01*
Y8786815D01*
X8200773Y8807353D01*
X8185053Y8823073D01*
X8164515Y8831580D01*
X8142285D01*
X8141708Y8831341D01*
X8044777Y8928272D01*
Y9236088D01*
X8045353Y9236327D01*
X8061073Y9252047D01*
X8069580Y9272585D01*
Y9294815D01*
X8061073Y9315353D01*
X8045353Y9331073D01*
X8024815Y9339580D01*
D02*
G37*
G36*
X4129400Y8849212D02*
X4049400D01*
X4026856Y8844728D01*
X4007743Y8831957D01*
X3994972Y8812844D01*
X3990488Y8790300D01*
Y8710300D01*
X3994972Y8687756D01*
X4007743Y8668643D01*
X4026856Y8655872D01*
X4049400Y8651388D01*
X4129400D01*
X4151944Y8655872D01*
X4171057Y8668643D01*
X4183828Y8687756D01*
X4188312Y8710300D01*
Y8790300D01*
X4183828Y8812844D01*
X4171057Y8831957D01*
X4151944Y8844728D01*
X4129400Y8849212D01*
D02*
G37*
G36*
X3531102Y8812480D02*
X3504698D01*
X3479193Y8805646D01*
X3456327Y8792444D01*
X3437656Y8773773D01*
X3424454Y8750907D01*
X3417620Y8725402D01*
Y8698998D01*
X3424454Y8673493D01*
X3437656Y8650627D01*
X3456327Y8631956D01*
X3479193Y8618754D01*
X3504698Y8611920D01*
X3531102D01*
X3556607Y8618754D01*
X3579473Y8631956D01*
X3598144Y8650627D01*
X3611346Y8673493D01*
X3618180Y8698998D01*
Y8725402D01*
X3611346Y8750907D01*
X3598144Y8773773D01*
X3579473Y8792444D01*
X3556607Y8805646D01*
X3531102Y8812480D01*
D02*
G37*
G36*
X3277102D02*
X3250698D01*
X3225193Y8805646D01*
X3202327Y8792444D01*
X3183656Y8773773D01*
X3170454Y8750907D01*
X3163620Y8725402D01*
Y8698998D01*
X3170454Y8673493D01*
X3183656Y8650627D01*
X3202327Y8631956D01*
X3225193Y8618754D01*
X3250698Y8611920D01*
X3277102D01*
X3302607Y8618754D01*
X3325473Y8631956D01*
X3344144Y8650627D01*
X3357346Y8673493D01*
X3364180Y8698998D01*
Y8725402D01*
X3357346Y8750907D01*
X3344144Y8773773D01*
X3325473Y8792444D01*
X3302607Y8805646D01*
X3277102Y8812480D01*
D02*
G37*
G36*
X3136131Y8560500D02*
X3110869D01*
X3100299Y8556122D01*
X3123500Y8532921D01*
X3146701Y8556122D01*
X3136131Y8560500D01*
D02*
G37*
G36*
X8997929Y8714792D02*
X8971525D01*
X8946020Y8707958D01*
X8923154Y8694756D01*
X8904483Y8676086D01*
X8891281Y8653219D01*
X8884447Y8627714D01*
Y8601310D01*
X8891281Y8575806D01*
X8904483Y8552939D01*
X8923154Y8534268D01*
X8935089Y8527377D01*
X8931686Y8514677D01*
X8783768D01*
X8780365Y8527377D01*
X8792300Y8534268D01*
X8810971Y8552939D01*
X8824173Y8575806D01*
X8831007Y8601310D01*
Y8627714D01*
X8824173Y8653219D01*
X8810971Y8676086D01*
X8792300Y8694756D01*
X8769434Y8707958D01*
X8743929Y8714792D01*
X8717525D01*
X8692020Y8707958D01*
X8669154Y8694756D01*
X8650483Y8676086D01*
X8637281Y8653219D01*
X8630447Y8627714D01*
Y8601310D01*
X8637281Y8575806D01*
X8650483Y8552939D01*
X8669154Y8534268D01*
X8681089Y8527377D01*
X8677686Y8514677D01*
X8534400D01*
X8522507Y8512312D01*
X8512425Y8505575D01*
X8416856Y8410005D01*
X8277827D01*
X8274426Y8413406D01*
X8264344Y8420143D01*
X8252451Y8422509D01*
X8121543D01*
X8121304Y8423085D01*
X8105585Y8438804D01*
X8085047Y8447312D01*
X8062816D01*
X8042278Y8438804D01*
X8026559Y8423085D01*
X8018052Y8402547D01*
Y8380316D01*
X8026559Y8359778D01*
X8042278Y8344059D01*
X8062816Y8335552D01*
X8085047D01*
X8105585Y8344059D01*
X8121304Y8359778D01*
X8121543Y8360354D01*
X8239579D01*
X8242980Y8356953D01*
X8253062Y8350216D01*
X8264955Y8347851D01*
X8327533D01*
X8330059Y8335151D01*
X8312247Y8327773D01*
X8296527Y8312053D01*
X8288020Y8291515D01*
Y8269285D01*
X8296527Y8248747D01*
X8312247Y8233027D01*
X8332785Y8224520D01*
X8355015D01*
X8375553Y8233027D01*
X8391273Y8248747D01*
X8391512Y8249323D01*
X8638189D01*
X8681813Y8205699D01*
X8680155Y8193108D01*
X8669154Y8186756D01*
X8650483Y8168086D01*
X8637281Y8145219D01*
X8630447Y8119714D01*
Y8093310D01*
X8637281Y8067806D01*
X8650483Y8044939D01*
X8663345Y8032077D01*
X8658084Y8019377D01*
X8509173D01*
X8340475Y8188075D01*
X8330393Y8194812D01*
X8318500Y8197177D01*
X8140873D01*
X8005841Y8332208D01*
X8006080Y8332785D01*
Y8355015D01*
X7997573Y8375553D01*
X7981853Y8391273D01*
X7961315Y8399780D01*
X7939085D01*
X7918547Y8391273D01*
X7902827Y8375553D01*
X7894320Y8355015D01*
Y8332785D01*
X7902827Y8312247D01*
X7913102Y8301972D01*
X7911310Y8291711D01*
X7955461Y8247561D01*
X7996622Y8206399D01*
X8001000Y8216969D01*
Y8231190D01*
X8013700Y8236450D01*
X8106025Y8144125D01*
X8116107Y8137388D01*
X8128000Y8135023D01*
X8305628D01*
X8474325Y7966325D01*
X8484407Y7959588D01*
X8496300Y7957223D01*
X8670891D01*
X8674169Y7944991D01*
X8730727Y7888433D01*
X8787285Y7944991D01*
X8790563Y7957223D01*
X8924891D01*
X8928169Y7944991D01*
X8984727Y7888433D01*
X9041285Y7944991D01*
X9044563Y7957223D01*
X9790654D01*
X9802546Y7959588D01*
X9807088Y7962623D01*
X9818685Y7957820D01*
X9840915D01*
X9861453Y7966327D01*
X9877173Y7982047D01*
X9885680Y8002585D01*
Y8024815D01*
X9877173Y8045353D01*
X9861453Y8061073D01*
X9840915Y8069580D01*
X9818685D01*
X9798147Y8061073D01*
X9782427Y8045353D01*
X9773920Y8024815D01*
Y8019377D01*
X9057370D01*
X9052109Y8032077D01*
X9064971Y8044939D01*
X9078173Y8067806D01*
X9085007Y8093310D01*
Y8119714D01*
X9078173Y8145219D01*
X9064971Y8168086D01*
X9057342Y8175715D01*
X9062602Y8188415D01*
X10462035D01*
X11085979Y7564472D01*
X11082020Y7554915D01*
Y7532685D01*
X11090527Y7512147D01*
X11106247Y7496427D01*
X11126785Y7487920D01*
X11149015D01*
X11169553Y7496427D01*
X11185273Y7512147D01*
X11193780Y7532685D01*
Y7554915D01*
X11185273Y7575453D01*
X11169553Y7591173D01*
X11149015Y7599680D01*
X11138670D01*
X10496883Y8241467D01*
X10486801Y8248204D01*
X10474908Y8250569D01*
X9010936D01*
X9009264Y8263269D01*
X9023434Y8267066D01*
X9046300Y8280268D01*
X9064971Y8298939D01*
X9078173Y8321806D01*
X9085007Y8347310D01*
Y8373714D01*
X9078173Y8399219D01*
X9064971Y8422086D01*
X9047234Y8439823D01*
X9047983Y8447036D01*
X9049454Y8452523D01*
X9874178D01*
X9913859Y8412842D01*
X9913620Y8412266D01*
Y8390035D01*
X9922127Y8369497D01*
X9937847Y8353778D01*
X9958385Y8345270D01*
X9980615D01*
X10001153Y8353778D01*
X10016873Y8369497D01*
X10025380Y8390035D01*
Y8412266D01*
X10016873Y8432804D01*
X10001153Y8448523D01*
X9980615Y8457030D01*
X9958385D01*
X9957809Y8456792D01*
X9909025Y8505575D01*
X9898943Y8512312D01*
X9887051Y8514677D01*
X9037768D01*
X9034365Y8527377D01*
X9046300Y8534268D01*
X9064971Y8552939D01*
X9078173Y8575806D01*
X9085007Y8601310D01*
Y8627714D01*
X9078173Y8653219D01*
X9064971Y8676086D01*
X9046300Y8694756D01*
X9023434Y8707958D01*
X8997929Y8714792D01*
D02*
G37*
G36*
X6923929D02*
X6897525D01*
X6872021Y8707958D01*
X6849154Y8694756D01*
X6830483Y8676086D01*
X6817281Y8653219D01*
X6810447Y8627714D01*
Y8601310D01*
X6817281Y8575806D01*
X6830483Y8552939D01*
X6849154Y8534268D01*
X6872021Y8521066D01*
X6897525Y8514232D01*
X6923929D01*
X6949434Y8521066D01*
X6972301Y8534268D01*
X6990971Y8552939D01*
X7004173Y8575806D01*
X7011007Y8601310D01*
Y8627714D01*
X7004173Y8653219D01*
X6990971Y8676086D01*
X6972301Y8694756D01*
X6949434Y8707958D01*
X6923929Y8714792D01*
D02*
G37*
G36*
X6669929D02*
X6643525D01*
X6618021Y8707958D01*
X6595154Y8694756D01*
X6576483Y8676086D01*
X6563281Y8653219D01*
X6556447Y8627714D01*
Y8601310D01*
X6563281Y8575806D01*
X6576483Y8552939D01*
X6595154Y8534268D01*
X6618021Y8521066D01*
X6643525Y8514232D01*
X6669929D01*
X6695434Y8521066D01*
X6718301Y8534268D01*
X6736971Y8552939D01*
X6750173Y8575806D01*
X6757007Y8601310D01*
Y8627714D01*
X6750173Y8653219D01*
X6736971Y8676086D01*
X6718301Y8694756D01*
X6695434Y8707958D01*
X6669929Y8714792D01*
D02*
G37*
G36*
X3182622Y8520201D02*
X3159421Y8497000D01*
X3182622Y8473799D01*
X3187000Y8484369D01*
Y8509631D01*
X3182622Y8520201D01*
D02*
G37*
G36*
X3064378Y8520201D02*
X3060000Y8509631D01*
Y8484369D01*
X3064378Y8473799D01*
X3087579Y8497000D01*
X3064378Y8520201D01*
D02*
G37*
G36*
X3123500Y8461079D02*
X3100299Y8437878D01*
X3110869Y8433500D01*
X3136131D01*
X3146701Y8437878D01*
X3123500Y8461079D01*
D02*
G37*
G36*
X4102273Y8594080D02*
X4076527D01*
X4051658Y8587416D01*
X4029362Y8574543D01*
X4011157Y8556338D01*
X3998284Y8534042D01*
X3991620Y8509173D01*
Y8483427D01*
X3998284Y8458558D01*
X4011157Y8436262D01*
X4029362Y8418057D01*
X4051658Y8405184D01*
X4076527Y8398520D01*
X4102273D01*
X4127142Y8405184D01*
X4149438Y8418057D01*
X4167643Y8436262D01*
X4180516Y8458558D01*
X4187180Y8483427D01*
Y8509173D01*
X4180516Y8534042D01*
X4167643Y8556338D01*
X4149438Y8574543D01*
X4127142Y8587416D01*
X4102273Y8594080D01*
D02*
G37*
G36*
X12002676Y8462000D02*
X11974924D01*
X11948117Y8454817D01*
X11934415Y8446906D01*
X11988800Y8392521D01*
X12043185Y8446906D01*
X12029483Y8454817D01*
X12002676Y8462000D01*
D02*
G37*
G36*
X11898494Y8410985D02*
X11890583Y8397283D01*
X11883400Y8370476D01*
Y8342724D01*
X11890583Y8315917D01*
X11898494Y8302215D01*
X11952879Y8356600D01*
X11898494Y8410985D01*
D02*
G37*
G36*
X12079106Y8410985D02*
X12024721Y8356600D01*
X12079106Y8302215D01*
X12087017Y8315917D01*
X12094200Y8342724D01*
Y8370476D01*
X12087017Y8397283D01*
X12079106Y8410985D01*
D02*
G37*
G36*
X6923929Y8460792D02*
X6897525D01*
X6872021Y8453958D01*
X6849154Y8440756D01*
X6830483Y8422086D01*
X6817281Y8399219D01*
X6810447Y8373714D01*
Y8347310D01*
X6817281Y8321806D01*
X6830483Y8298939D01*
X6849154Y8280268D01*
X6872021Y8267066D01*
X6897525Y8260232D01*
X6923929D01*
X6949434Y8267066D01*
X6972301Y8280268D01*
X6990971Y8298939D01*
X7004173Y8321806D01*
X7011007Y8347310D01*
Y8373714D01*
X7004173Y8399219D01*
X6990971Y8422086D01*
X6972301Y8440756D01*
X6949434Y8453958D01*
X6923929Y8460792D01*
D02*
G37*
G36*
X6669929D02*
X6643525D01*
X6618021Y8453958D01*
X6595154Y8440756D01*
X6576483Y8422086D01*
X6563281Y8399219D01*
X6556447Y8373714D01*
Y8347310D01*
X6563281Y8321806D01*
X6576483Y8298939D01*
X6595154Y8280268D01*
X6618021Y8267066D01*
X6643525Y8260232D01*
X6669929D01*
X6695434Y8267066D01*
X6718301Y8280268D01*
X6736971Y8298939D01*
X6750173Y8321806D01*
X6757007Y8347310D01*
Y8373714D01*
X6750173Y8399219D01*
X6736971Y8422086D01*
X6718301Y8440756D01*
X6695434Y8453958D01*
X6669929Y8460792D01*
D02*
G37*
G36*
X11988800Y8320679D02*
X11934415Y8266294D01*
X11948117Y8258383D01*
X11974924Y8251200D01*
X12002676D01*
X12029483Y8258383D01*
X12043185Y8266294D01*
X11988800Y8320679D01*
D02*
G37*
G36*
X7878378Y8252801D02*
X7874000Y8242231D01*
Y8216969D01*
X7878378Y8206399D01*
X7901579Y8229600D01*
X7878378Y8252801D01*
D02*
G37*
G36*
X7937500Y8193679D02*
X7914299Y8170478D01*
X7924869Y8166100D01*
X7950131D01*
X7960701Y8170478D01*
X7937500Y8193679D01*
D02*
G37*
G36*
X4102273Y8340080D02*
X4076527D01*
X4051658Y8333416D01*
X4029362Y8320543D01*
X4011157Y8302338D01*
X3998284Y8280042D01*
X3991620Y8255173D01*
Y8229427D01*
X3998284Y8204558D01*
X4011157Y8182262D01*
X4029362Y8164057D01*
X4051658Y8151184D01*
X4076527Y8144520D01*
X4102273D01*
X4127142Y8151184D01*
X4149438Y8164057D01*
X4167643Y8182262D01*
X4180516Y8204558D01*
X4187180Y8229427D01*
Y8255173D01*
X4180516Y8280042D01*
X4167643Y8302338D01*
X4149438Y8320543D01*
X4127142Y8333416D01*
X4102273Y8340080D01*
D02*
G37*
G36*
X3532105Y8159700D02*
X3503695D01*
X3476252Y8152347D01*
X3461685Y8143936D01*
X3517900Y8087721D01*
X3574115Y8143936D01*
X3559548Y8152347D01*
X3532105Y8159700D01*
D02*
G37*
G36*
X6923929Y8206792D02*
X6897525D01*
X6872021Y8199958D01*
X6849154Y8186756D01*
X6830483Y8168086D01*
X6817281Y8145219D01*
X6810447Y8119714D01*
Y8093310D01*
X6817281Y8067806D01*
X6830483Y8044939D01*
X6849154Y8026268D01*
X6872021Y8013066D01*
X6897525Y8006232D01*
X6923929D01*
X6949434Y8013066D01*
X6972301Y8026268D01*
X6990971Y8044939D01*
X7004173Y8067806D01*
X7011007Y8093310D01*
Y8119714D01*
X7004173Y8145219D01*
X6990971Y8168086D01*
X6972301Y8186756D01*
X6949434Y8199958D01*
X6923929Y8206792D01*
D02*
G37*
G36*
X6669929D02*
X6643525D01*
X6618021Y8199958D01*
X6595154Y8186756D01*
X6576483Y8168086D01*
X6563281Y8145219D01*
X6556447Y8119714D01*
Y8093310D01*
X6563281Y8067806D01*
X6576483Y8044939D01*
X6595154Y8026268D01*
X6618021Y8013066D01*
X6643525Y8006232D01*
X6669929D01*
X6695434Y8013066D01*
X6718301Y8026268D01*
X6736971Y8044939D01*
X6750173Y8067806D01*
X6757007Y8093310D01*
Y8119714D01*
X6750173Y8145219D01*
X6736971Y8168086D01*
X6718301Y8186756D01*
X6695434Y8199958D01*
X6669929Y8206792D01*
D02*
G37*
G36*
X3610036Y8108015D02*
X3553821Y8051800D01*
X3610036Y7995585D01*
X3618447Y8010152D01*
X3625800Y8037595D01*
Y8066005D01*
X3618447Y8093448D01*
X3610036Y8108015D01*
D02*
G37*
G36*
X3425764D02*
X3417353Y8093448D01*
X3410000Y8066005D01*
Y8037595D01*
X3417353Y8010152D01*
X3425764Y7995585D01*
X3481979Y8051800D01*
X3425764Y8108015D01*
D02*
G37*
G36*
X4102273Y8086080D02*
X4076527D01*
X4051658Y8079416D01*
X4029362Y8066543D01*
X4011157Y8048338D01*
X3998284Y8026042D01*
X3991620Y8001173D01*
Y7975427D01*
X3998284Y7950558D01*
X4011157Y7928262D01*
X4029362Y7910057D01*
X4051658Y7897184D01*
X4076527Y7890520D01*
X4102273D01*
X4127142Y7897184D01*
X4149438Y7910057D01*
X4167643Y7928262D01*
X4180516Y7950558D01*
X4187180Y7975427D01*
Y8001173D01*
X4180516Y8026042D01*
X4167643Y8048338D01*
X4149438Y8066543D01*
X4127142Y8079416D01*
X4102273Y8086080D01*
D02*
G37*
G36*
X8892591Y7908727D02*
X8884180Y7894160D01*
X8876827Y7866717D01*
Y7838307D01*
X8884180Y7810864D01*
X8892591Y7796297D01*
X8948806Y7852512D01*
X8892591Y7908727D01*
D02*
G37*
G36*
X8638591D02*
X8630180Y7894160D01*
X8622827Y7866717D01*
Y7838307D01*
X8630180Y7810864D01*
X8638591Y7796297D01*
X8694806Y7852512D01*
X8638591Y7908727D01*
D02*
G37*
G36*
X9076863Y7908727D02*
X9020648Y7852512D01*
X9076863Y7796297D01*
X9085274Y7810864D01*
X9092627Y7838307D01*
Y7866717D01*
X9085274Y7894160D01*
X9076863Y7908727D01*
D02*
G37*
G36*
X8822863D02*
X8766648Y7852512D01*
X8822863Y7796297D01*
X8831274Y7810864D01*
X8838627Y7838307D01*
Y7866717D01*
X8831274Y7894160D01*
X8822863Y7908727D01*
D02*
G37*
G36*
X6923929Y7952792D02*
X6897525D01*
X6872021Y7945958D01*
X6849154Y7932756D01*
X6830483Y7914086D01*
X6817281Y7891219D01*
X6810447Y7865714D01*
Y7839310D01*
X6817281Y7813806D01*
X6830483Y7790939D01*
X6849154Y7772268D01*
X6872021Y7759066D01*
X6897525Y7752232D01*
X6923929D01*
X6949434Y7759066D01*
X6972301Y7772268D01*
X6990971Y7790939D01*
X7004173Y7813806D01*
X7011007Y7839310D01*
Y7865714D01*
X7004173Y7891219D01*
X6990971Y7914086D01*
X6972301Y7932756D01*
X6949434Y7945958D01*
X6923929Y7952792D01*
D02*
G37*
G36*
X6669929D02*
X6643525D01*
X6618021Y7945958D01*
X6595154Y7932756D01*
X6576483Y7914086D01*
X6563281Y7891219D01*
X6556447Y7865714D01*
Y7839310D01*
X6563281Y7813806D01*
X6576483Y7790939D01*
X6595154Y7772268D01*
X6618021Y7759066D01*
X6643525Y7752232D01*
X6669929D01*
X6695434Y7759066D01*
X6718301Y7772268D01*
X6736971Y7790939D01*
X6750173Y7813806D01*
X6757007Y7839310D01*
Y7865714D01*
X6750173Y7891219D01*
X6736971Y7914086D01*
X6718301Y7932756D01*
X6695434Y7945958D01*
X6669929Y7952792D01*
D02*
G37*
G36*
X8984727Y7816591D02*
X8928512Y7760376D01*
X8943079Y7751965D01*
X8970522Y7744612D01*
X8998932D01*
X9026375Y7751965D01*
X9040942Y7760376D01*
X8984727Y7816591D01*
D02*
G37*
G36*
X8730727D02*
X8674512Y7760376D01*
X8689079Y7751965D01*
X8716522Y7744612D01*
X8744932D01*
X8772375Y7751965D01*
X8786942Y7760376D01*
X8730727Y7816591D01*
D02*
G37*
G36*
X8115473Y7903180D02*
X8089727D01*
X8064858Y7896516D01*
X8042562Y7883643D01*
X8024357Y7865438D01*
X8011484Y7843142D01*
X8004820Y7818273D01*
Y7792527D01*
X8011484Y7767658D01*
X8024357Y7745362D01*
X8042562Y7727157D01*
X8064858Y7714284D01*
X8089727Y7707620D01*
X8115473D01*
X8140342Y7714284D01*
X8162638Y7727157D01*
X8180843Y7745362D01*
X8193716Y7767658D01*
X8200380Y7792527D01*
Y7818273D01*
X8193716Y7843142D01*
X8180843Y7865438D01*
X8162638Y7883643D01*
X8140342Y7896516D01*
X8115473Y7903180D01*
D02*
G37*
G36*
X7861473D02*
X7835727D01*
X7810858Y7896516D01*
X7788562Y7883643D01*
X7770357Y7865438D01*
X7757484Y7843142D01*
X7750820Y7818273D01*
Y7792527D01*
X7757484Y7767658D01*
X7770357Y7745362D01*
X7788562Y7727157D01*
X7810858Y7714284D01*
X7835727Y7707620D01*
X7861473D01*
X7886342Y7714284D01*
X7908638Y7727157D01*
X7926843Y7745362D01*
X7939716Y7767658D01*
X7946380Y7792527D01*
Y7818273D01*
X7939716Y7843142D01*
X7926843Y7865438D01*
X7908638Y7883643D01*
X7886342Y7896516D01*
X7861473Y7903180D01*
D02*
G37*
G36*
X7415215Y8450580D02*
X7392985D01*
X7372447Y8442073D01*
X7356727Y8426353D01*
X7348220Y8405815D01*
Y8383585D01*
X7356727Y8363047D01*
X7372447Y8347327D01*
X7373023Y8347088D01*
Y7995900D01*
X7375388Y7984007D01*
X7382125Y7973925D01*
X7498170Y7857880D01*
X7495688Y7845400D01*
Y7765400D01*
X7500172Y7742855D01*
X7512943Y7723743D01*
X7532056Y7710972D01*
X7554600Y7706488D01*
X7634600D01*
X7657144Y7710972D01*
X7676257Y7723743D01*
X7689028Y7742855D01*
X7693512Y7765400D01*
Y7845400D01*
X7689028Y7867944D01*
X7676257Y7887057D01*
X7657144Y7899827D01*
X7634600Y7904312D01*
X7554600D01*
X7542120Y7901830D01*
X7435177Y8008772D01*
Y8347088D01*
X7435753Y8347327D01*
X7451473Y8363047D01*
X7459980Y8383585D01*
Y8405815D01*
X7451473Y8426353D01*
X7435753Y8442073D01*
X7415215Y8450580D01*
D02*
G37*
G36*
X3277102Y7898080D02*
X3250698D01*
X3225193Y7891246D01*
X3202327Y7878044D01*
X3183656Y7859373D01*
X3170454Y7836507D01*
X3163620Y7811002D01*
Y7784598D01*
X3170454Y7759093D01*
X3183656Y7736227D01*
X3202327Y7717556D01*
X3225193Y7704354D01*
X3250698Y7697520D01*
X3277102D01*
X3302607Y7704354D01*
X3325473Y7717556D01*
X3344144Y7736227D01*
X3357346Y7759093D01*
X3364180Y7784598D01*
Y7811002D01*
X3357346Y7836507D01*
X3344144Y7859373D01*
X3325473Y7878044D01*
X3302607Y7891246D01*
X3277102Y7898080D01*
D02*
G37*
G36*
X8997929Y7698792D02*
X8971525D01*
X8946020Y7691958D01*
X8923154Y7678756D01*
X8904483Y7660086D01*
X8891281Y7637219D01*
X8884447Y7611714D01*
Y7585310D01*
X8891281Y7559806D01*
X8904483Y7536939D01*
X8923154Y7518268D01*
X8946020Y7505066D01*
X8971525Y7498232D01*
X8997929D01*
X9023434Y7505066D01*
X9046300Y7518268D01*
X9064971Y7536939D01*
X9078173Y7559806D01*
X9085007Y7585310D01*
Y7611714D01*
X9078173Y7637219D01*
X9064971Y7660086D01*
X9046300Y7678756D01*
X9023434Y7691958D01*
X8997929Y7698792D01*
D02*
G37*
G36*
X8743929D02*
X8717525D01*
X8692020Y7691958D01*
X8669154Y7678756D01*
X8650483Y7660086D01*
X8637281Y7637219D01*
X8630447Y7611714D01*
Y7585310D01*
X8637281Y7559806D01*
X8650483Y7536939D01*
X8669154Y7518268D01*
X8692020Y7505066D01*
X8717525Y7498232D01*
X8743929D01*
X8769434Y7505066D01*
X8792300Y7518268D01*
X8810971Y7536939D01*
X8824173Y7559806D01*
X8831007Y7585310D01*
Y7611714D01*
X8824173Y7637219D01*
X8810971Y7660086D01*
X8792300Y7678756D01*
X8769434Y7691958D01*
X8743929Y7698792D01*
D02*
G37*
G36*
X6923929D02*
X6897525D01*
X6872021Y7691958D01*
X6849154Y7678756D01*
X6830483Y7660086D01*
X6817281Y7637219D01*
X6810447Y7611714D01*
Y7585310D01*
X6817281Y7559806D01*
X6830483Y7536939D01*
X6849154Y7518268D01*
X6872021Y7505066D01*
X6897525Y7498232D01*
X6923929D01*
X6949434Y7505066D01*
X6972301Y7518268D01*
X6990971Y7536939D01*
X7004173Y7559806D01*
X7011007Y7585310D01*
Y7611714D01*
X7004173Y7637219D01*
X6990971Y7660086D01*
X6972301Y7678756D01*
X6949434Y7691958D01*
X6923929Y7698792D01*
D02*
G37*
G36*
X6669929D02*
X6643525D01*
X6618021Y7691958D01*
X6595154Y7678756D01*
X6576483Y7660086D01*
X6563281Y7637219D01*
X6556447Y7611714D01*
Y7585310D01*
X6563281Y7559806D01*
X6576483Y7536939D01*
X6595154Y7518268D01*
X6618021Y7505066D01*
X6643525Y7498232D01*
X6669929D01*
X6695434Y7505066D01*
X6718301Y7518268D01*
X6736971Y7536939D01*
X6750173Y7559806D01*
X6757007Y7585310D01*
Y7611714D01*
X6750173Y7637219D01*
X6736971Y7660086D01*
X6718301Y7678756D01*
X6695434Y7691958D01*
X6669929Y7698792D01*
D02*
G37*
G36*
X6924932Y7452412D02*
X6896522D01*
X6869079Y7445059D01*
X6854512Y7436649D01*
X6910727Y7380434D01*
X6966942Y7436648D01*
X6952375Y7445059D01*
X6924932Y7452412D01*
D02*
G37*
G36*
X6670932D02*
X6642522D01*
X6615079Y7445059D01*
X6600512Y7436649D01*
X6656727Y7380434D01*
X6712942Y7436648D01*
X6698375Y7445059D01*
X6670932Y7452412D01*
D02*
G37*
G36*
X7002864Y7400727D02*
X6946649Y7344512D01*
X7002864Y7288297D01*
X7011274Y7302864D01*
X7018627Y7330307D01*
Y7358717D01*
X7011274Y7386160D01*
X7002864Y7400727D01*
D02*
G37*
G36*
X6748864D02*
X6692649Y7344512D01*
X6748864Y7288297D01*
X6757274Y7302864D01*
X6764627Y7330307D01*
Y7358717D01*
X6757274Y7386160D01*
X6748864Y7400727D01*
D02*
G37*
G36*
X6818591Y7400728D02*
X6810180Y7386160D01*
X6802827Y7358717D01*
Y7330307D01*
X6810180Y7302864D01*
X6818591Y7288297D01*
X6874806Y7344512D01*
X6818591Y7400728D01*
D02*
G37*
G36*
X6564591D02*
X6556180Y7386160D01*
X6548827Y7358717D01*
Y7330307D01*
X6556180Y7302864D01*
X6564591Y7288297D01*
X6620806Y7344512D01*
X6564591Y7400728D01*
D02*
G37*
G36*
X8997929Y7444792D02*
X8971525D01*
X8946020Y7437958D01*
X8923154Y7424756D01*
X8904483Y7406086D01*
X8891281Y7383219D01*
X8884447Y7357714D01*
Y7331310D01*
X8891281Y7305806D01*
X8904483Y7282939D01*
X8923154Y7264268D01*
X8946020Y7251066D01*
X8971525Y7244232D01*
X8997929D01*
X9023434Y7251066D01*
X9046300Y7264268D01*
X9064971Y7282939D01*
X9078173Y7305806D01*
X9085007Y7331310D01*
Y7357714D01*
X9078173Y7383219D01*
X9064971Y7406086D01*
X9046300Y7424756D01*
X9023434Y7437958D01*
X8997929Y7444792D01*
D02*
G37*
G36*
X8743929D02*
X8717525D01*
X8692020Y7437958D01*
X8669154Y7424756D01*
X8650483Y7406086D01*
X8637281Y7383219D01*
X8630447Y7357714D01*
Y7331310D01*
X8637281Y7305806D01*
X8650483Y7282939D01*
X8669154Y7264268D01*
X8692020Y7251066D01*
X8717525Y7244232D01*
X8743929D01*
X8769434Y7251066D01*
X8792300Y7264268D01*
X8810971Y7282939D01*
X8824173Y7305806D01*
X8831007Y7331310D01*
Y7357714D01*
X8824173Y7383219D01*
X8810971Y7406086D01*
X8792300Y7424756D01*
X8769434Y7437958D01*
X8743929Y7444792D01*
D02*
G37*
G36*
X6910727Y7308591D02*
X6854512Y7252376D01*
X6869079Y7243965D01*
X6896522Y7236612D01*
X6924932D01*
X6952375Y7243965D01*
X6966943Y7252376D01*
X6910727Y7308591D01*
D02*
G37*
G36*
X6656727D02*
X6600512Y7252376D01*
X6615079Y7243965D01*
X6642522Y7236612D01*
X6670932D01*
X6698375Y7243965D01*
X6712943Y7252376D01*
X6656727Y7308591D01*
D02*
G37*
G36*
X12002676Y7268200D02*
X11974924D01*
X11948117Y7261017D01*
X11934415Y7253106D01*
X11988800Y7198721D01*
X12043185Y7253106D01*
X12029483Y7261017D01*
X12002676Y7268200D01*
D02*
G37*
G36*
X3835331Y7200900D02*
X3810069D01*
X3799499Y7196522D01*
X3822700Y7173321D01*
X3845901Y7196522D01*
X3835331Y7200900D01*
D02*
G37*
G36*
X3881822Y7160601D02*
X3858621Y7137400D01*
X3881822Y7114199D01*
X3886200Y7124769D01*
Y7150031D01*
X3881822Y7160601D01*
D02*
G37*
G36*
X3763578Y7160601D02*
X3759200Y7150031D01*
Y7124769D01*
X3763578Y7114199D01*
X3786779Y7137400D01*
X3763578Y7160601D01*
D02*
G37*
G36*
X11898494Y7217185D02*
X11890583Y7203483D01*
X11883400Y7176676D01*
Y7148924D01*
X11890583Y7122117D01*
X11898494Y7108415D01*
X11952879Y7162800D01*
X11898494Y7217185D01*
D02*
G37*
G36*
X12079106Y7217185D02*
X12024721Y7162800D01*
X12079106Y7108415D01*
X12087017Y7122117D01*
X12094200Y7148924D01*
Y7176676D01*
X12087017Y7203483D01*
X12079106Y7217185D01*
D02*
G37*
G36*
X3822700Y7101479D02*
X3799499Y7078278D01*
X3810069Y7073900D01*
X3835331D01*
X3845901Y7078278D01*
X3822700Y7101479D01*
D02*
G37*
G36*
X11988800Y7126879D02*
X11934415Y7072494D01*
X11948117Y7064583D01*
X11974924Y7057400D01*
X12002676D01*
X12029483Y7064583D01*
X12043185Y7072494D01*
X11988800Y7126879D01*
D02*
G37*
G36*
X8997929Y7190792D02*
X8971525D01*
X8946020Y7183958D01*
X8923154Y7170756D01*
X8904483Y7152086D01*
X8891281Y7129219D01*
X8884447Y7103714D01*
Y7077310D01*
X8891281Y7051806D01*
X8904483Y7028939D01*
X8923154Y7010268D01*
X8946020Y6997066D01*
X8971525Y6990232D01*
X8997929D01*
X9023434Y6997066D01*
X9046300Y7010268D01*
X9064971Y7028939D01*
X9078173Y7051806D01*
X9085007Y7077310D01*
Y7103714D01*
X9078173Y7129219D01*
X9064971Y7152086D01*
X9046300Y7170756D01*
X9023434Y7183958D01*
X8997929Y7190792D01*
D02*
G37*
G36*
X8743929D02*
X8717525D01*
X8692020Y7183958D01*
X8669154Y7170756D01*
X8650483Y7152086D01*
X8637281Y7129219D01*
X8630447Y7103714D01*
Y7077310D01*
X8637281Y7051806D01*
X8650483Y7028939D01*
X8669154Y7010268D01*
X8692020Y6997066D01*
X8717525Y6990232D01*
X8743929D01*
X8769434Y6997066D01*
X8792300Y7010268D01*
X8810971Y7028939D01*
X8824173Y7051806D01*
X8831007Y7077310D01*
Y7103714D01*
X8824173Y7129219D01*
X8810971Y7152086D01*
X8792300Y7170756D01*
X8769434Y7183958D01*
X8743929Y7190792D01*
D02*
G37*
G36*
X6923929D02*
X6897525D01*
X6872021Y7183958D01*
X6849154Y7170756D01*
X6830483Y7152086D01*
X6817281Y7129219D01*
X6810447Y7103714D01*
Y7077310D01*
X6817281Y7051806D01*
X6830483Y7028939D01*
X6849154Y7010268D01*
X6872021Y6997066D01*
X6897525Y6990232D01*
X6923929D01*
X6949434Y6997066D01*
X6972301Y7010268D01*
X6990971Y7028939D01*
X7004173Y7051806D01*
X7011007Y7077310D01*
Y7103714D01*
X7004173Y7129219D01*
X6990971Y7152086D01*
X6972301Y7170756D01*
X6949434Y7183958D01*
X6923929Y7190792D01*
D02*
G37*
G36*
X6669929D02*
X6643525D01*
X6618021Y7183958D01*
X6595154Y7170756D01*
X6576483Y7152086D01*
X6563281Y7129219D01*
X6556447Y7103714D01*
Y7077310D01*
X6563281Y7051806D01*
X6576483Y7028939D01*
X6595154Y7010268D01*
X6618021Y6997066D01*
X6643525Y6990232D01*
X6669929D01*
X6695434Y6997066D01*
X6718301Y7010268D01*
X6736971Y7028939D01*
X6750173Y7051806D01*
X6757007Y7077310D01*
Y7103714D01*
X6750173Y7129219D01*
X6736971Y7152086D01*
X6718301Y7170756D01*
X6695434Y7183958D01*
X6669929Y7190792D01*
D02*
G37*
G36*
X12001673Y7006580D02*
X11975927D01*
X11951058Y6999916D01*
X11928762Y6987043D01*
X11910557Y6968838D01*
X11897684Y6946542D01*
X11891020Y6921673D01*
Y6895927D01*
X11897684Y6871058D01*
X11901133Y6865083D01*
X11632402Y6596352D01*
X10197475D01*
X10185582Y6593987D01*
X10175500Y6587250D01*
X9820525Y6232275D01*
X9813788Y6222193D01*
X9811423Y6210300D01*
Y5189302D01*
X9796799Y5180859D01*
X9782941Y5167001D01*
X9773142Y5150029D01*
X9768070Y5131099D01*
Y5111501D01*
X9773142Y5092571D01*
X9782941Y5075599D01*
X9796799Y5061741D01*
X9813771Y5051942D01*
X9832701Y5046870D01*
X9852299D01*
X9871229Y5051942D01*
X9888201Y5061741D01*
X9902059Y5075599D01*
X9911858Y5092571D01*
X9916930Y5111501D01*
Y5131099D01*
X9911858Y5150029D01*
X9902059Y5167001D01*
X9888201Y5180859D01*
X9873577Y5189302D01*
Y6197428D01*
X10210347Y6534198D01*
X11645275D01*
X11657168Y6536563D01*
X11667250Y6543300D01*
X11945083Y6821133D01*
X11951058Y6817684D01*
X11975927Y6811020D01*
X12001673D01*
X12026542Y6817684D01*
X12048838Y6830557D01*
X12067043Y6848762D01*
X12079916Y6871058D01*
X12086580Y6895927D01*
Y6921673D01*
X12079916Y6946542D01*
X12067043Y6968838D01*
X12048838Y6987043D01*
X12026542Y6999916D01*
X12001673Y7006580D01*
D02*
G37*
G36*
X3949631Y6527800D02*
X3924369D01*
X3913799Y6523422D01*
X3937000Y6500221D01*
X3960201Y6523422D01*
X3949631Y6527800D01*
D02*
G37*
G36*
X3996122Y6487501D02*
X3972921Y6464300D01*
X3996122Y6441099D01*
X4000500Y6451669D01*
Y6476931D01*
X3996122Y6487501D01*
D02*
G37*
G36*
X3877878Y6487501D02*
X3873500Y6476931D01*
Y6451669D01*
X3877878Y6441099D01*
X3901079Y6464300D01*
X3877878Y6487501D01*
D02*
G37*
G36*
X3937000Y6428379D02*
X3913799Y6405178D01*
X3924369Y6400800D01*
X3949631D01*
X3960201Y6405178D01*
X3937000Y6428379D01*
D02*
G37*
G36*
X5050222Y6436701D02*
X5027021Y6413500D01*
X5050222Y6390299D01*
X5054600Y6400869D01*
Y6426131D01*
X5050222Y6436701D01*
D02*
G37*
G36*
X4931978Y6436701D02*
X4927600Y6426131D01*
Y6400869D01*
X4931978Y6390299D01*
X4955179Y6413500D01*
X4931978Y6436701D01*
D02*
G37*
G36*
X4991100Y6377579D02*
X4967899Y6354378D01*
X4978469Y6350000D01*
X5003731D01*
X5014301Y6354378D01*
X4991100Y6377579D01*
D02*
G37*
G36*
X8966131Y6337300D02*
X8940869D01*
X8930299Y6332922D01*
X8953500Y6309721D01*
X8976701Y6332922D01*
X8966131Y6337300D01*
D02*
G37*
G36*
X9012622Y6297001D02*
X8989421Y6273800D01*
X9012622Y6250599D01*
X9017000Y6261169D01*
Y6286431D01*
X9012622Y6297001D01*
D02*
G37*
G36*
X8894378Y6297001D02*
X8890000Y6286431D01*
Y6261169D01*
X8894378Y6250599D01*
X8917579Y6273800D01*
X8894378Y6297001D01*
D02*
G37*
G36*
X10182493Y6313000D02*
X10152107D01*
X10122757Y6305135D01*
X10105595Y6295227D01*
X10167300Y6233521D01*
X10229005Y6295226D01*
X10211843Y6305135D01*
X10182493Y6313000D01*
D02*
G37*
G36*
X8953500Y6237879D02*
X8930299Y6214678D01*
X8940869Y6210300D01*
X8966131D01*
X8976701Y6214678D01*
X8953500Y6237879D01*
D02*
G37*
G36*
X3285819Y6263998D02*
X3236321Y6214500D01*
X3285819Y6165002D01*
X3285915Y6165127D01*
X3295780Y6188943D01*
X3299145Y6214500D01*
X3295780Y6240057D01*
X3285915Y6263872D01*
X3285819Y6263998D01*
D02*
G37*
G36*
X11514926Y6259305D02*
X11453221Y6197600D01*
X11514927Y6135895D01*
X11524835Y6153057D01*
X11532700Y6182407D01*
Y6212793D01*
X11524835Y6242143D01*
X11514926Y6259305D01*
D02*
G37*
G36*
X10264926D02*
X10203221Y6197600D01*
X10264927Y6135895D01*
X10274835Y6153057D01*
X10282700Y6182407D01*
Y6212793D01*
X10274835Y6242143D01*
X10264926Y6259305D01*
D02*
G37*
G36*
X10069674Y6259305D02*
X10059764Y6242143D01*
X10051900Y6212793D01*
Y6182407D01*
X10059764Y6153057D01*
X10069674Y6135895D01*
X10131379Y6197600D01*
X10069674Y6259305D01*
D02*
G37*
G36*
X10167300Y6161679D02*
X10105595Y6099974D01*
X10122757Y6090065D01*
X10152107Y6082200D01*
X10182493D01*
X10211843Y6090065D01*
X10229005Y6099974D01*
X10167300Y6161679D01*
D02*
G37*
G36*
X5320591Y6057260D02*
X5295329D01*
X5284759Y6052882D01*
X5307960Y6029681D01*
X5331161Y6052882D01*
X5320591Y6057260D01*
D02*
G37*
G36*
X12002676Y6074400D02*
X11974924D01*
X11948117Y6067217D01*
X11934415Y6059306D01*
X11988800Y6004921D01*
X12043185Y6059306D01*
X12029483Y6067217D01*
X12002676Y6074400D01*
D02*
G37*
G36*
X5367082Y6016961D02*
X5343881Y5993760D01*
X5367082Y5970559D01*
X5371460Y5981129D01*
Y6006391D01*
X5367082Y6016961D01*
D02*
G37*
G36*
X5248838Y6016961D02*
X5244460Y6006391D01*
Y5981129D01*
X5248838Y5970559D01*
X5272039Y5993760D01*
X5248838Y6016961D01*
D02*
G37*
G36*
X5307960Y5957839D02*
X5284759Y5934638D01*
X5295329Y5930260D01*
X5320591D01*
X5331161Y5934638D01*
X5307960Y5957839D01*
D02*
G37*
G36*
X11898494Y6023385D02*
X11890583Y6009683D01*
X11883400Y5982876D01*
Y5955124D01*
X11890583Y5928317D01*
X11898494Y5914615D01*
X11952879Y5969000D01*
X11898494Y6023385D01*
D02*
G37*
G36*
X12079106Y6023385D02*
X12024721Y5969000D01*
X12079106Y5914615D01*
X12087017Y5928317D01*
X12094200Y5955124D01*
Y5982876D01*
X12087017Y6009683D01*
X12079106Y6023385D01*
D02*
G37*
G36*
X4189415Y6037580D02*
X4167185D01*
X4146647Y6029073D01*
X4130927Y6013353D01*
X4122420Y5992815D01*
Y5970585D01*
X4130927Y5950047D01*
X4146647Y5934327D01*
X4167185Y5925820D01*
X4189415D01*
X4199712Y5930085D01*
X4208172Y5921625D01*
X4218254Y5914888D01*
X4230146Y5912523D01*
X4918088D01*
X4918327Y5911947D01*
X4934047Y5896227D01*
X4954585Y5887720D01*
X4976815D01*
X4997353Y5896227D01*
X5013073Y5911947D01*
X5021580Y5932485D01*
Y5954715D01*
X5013073Y5975253D01*
X4997353Y5990973D01*
X4976815Y5999480D01*
X4954585D01*
X4934047Y5990973D01*
X4918327Y5975253D01*
X4918088Y5974677D01*
X4243019D01*
X4234180Y5983516D01*
Y5992815D01*
X4225673Y6013353D01*
X4209953Y6029073D01*
X4189415Y6037580D01*
D02*
G37*
G36*
X11988800Y5933079D02*
X11934415Y5878694D01*
X11948117Y5870783D01*
X11974924Y5863600D01*
X12002676D01*
X12029483Y5870783D01*
X12043185Y5878694D01*
X11988800Y5933079D01*
D02*
G37*
G36*
X7377115Y5935980D02*
X7354885D01*
X7334347Y5927473D01*
X7318627Y5911753D01*
X7318388Y5911177D01*
X6934200D01*
X6922307Y5908812D01*
X6912225Y5902075D01*
X6683625Y5673475D01*
X6676888Y5663393D01*
X6674523Y5651500D01*
Y4787900D01*
X6676888Y4776007D01*
X6683625Y4765925D01*
X6989549Y4460002D01*
X6984790Y4446799D01*
X6977768Y4443891D01*
X7018929Y4402729D01*
X7060091Y4361568D01*
X7062999Y4368590D01*
X7076202Y4373349D01*
X7551659Y3897892D01*
X7551420Y3897315D01*
Y3875085D01*
X7559927Y3854547D01*
X7575647Y3838827D01*
X7596185Y3830320D01*
X7618415D01*
X7638953Y3838827D01*
X7654673Y3854547D01*
X7663180Y3875085D01*
Y3897315D01*
X7654673Y3917853D01*
X7638953Y3933573D01*
X7618415Y3942080D01*
X7596185D01*
X7595608Y3941841D01*
X6736677Y4800772D01*
Y5638628D01*
X6947072Y5849023D01*
X7318388D01*
X7318627Y5848447D01*
X7334347Y5832727D01*
X7354885Y5824220D01*
X7377115D01*
X7397653Y5832727D01*
X7413373Y5848447D01*
X7421880Y5868985D01*
Y5891215D01*
X7413373Y5911753D01*
X7397653Y5927473D01*
X7377115Y5935980D01*
D02*
G37*
G36*
X4979355Y5857240D02*
X4957125D01*
X4936587Y5848733D01*
X4920867Y5833013D01*
X4920628Y5832437D01*
X4239260D01*
X4227367Y5830072D01*
X4217285Y5823335D01*
X4207952Y5814002D01*
X4189415Y5821680D01*
X4167185D01*
X4146647Y5813173D01*
X4130927Y5797453D01*
X4122420Y5776915D01*
Y5754685D01*
X4130927Y5734147D01*
X4146647Y5718427D01*
X4167185Y5709920D01*
X4189415D01*
X4209953Y5718427D01*
X4225673Y5734147D01*
X4233062Y5751987D01*
X4235395Y5753545D01*
X4252132Y5770283D01*
X4920628D01*
X4920867Y5769707D01*
X4936587Y5753987D01*
X4957125Y5745480D01*
X4979355D01*
X4999893Y5753987D01*
X5015613Y5769707D01*
X5024120Y5790245D01*
Y5812475D01*
X5015613Y5833013D01*
X4999893Y5848733D01*
X4979355Y5857240D01*
D02*
G37*
G36*
X12001673Y5812780D02*
X11975927D01*
X11951058Y5806116D01*
X11928762Y5793243D01*
X11910557Y5775038D01*
X11897684Y5752742D01*
X11891020Y5727873D01*
Y5702127D01*
X11897684Y5677258D01*
X11910557Y5654962D01*
X11928762Y5636757D01*
X11951058Y5623884D01*
X11975927Y5617220D01*
X12001673D01*
X12026542Y5623884D01*
X12048838Y5636757D01*
X12067043Y5654962D01*
X12079916Y5677258D01*
X12086580Y5702127D01*
Y5727873D01*
X12079916Y5752742D01*
X12067043Y5775038D01*
X12048838Y5793243D01*
X12026542Y5806116D01*
X12001673Y5812780D01*
D02*
G37*
G36*
X10181489Y5805380D02*
X10153111D01*
X10125699Y5798035D01*
X10101122Y5783845D01*
X10081055Y5763778D01*
X10066865Y5739201D01*
X10059520Y5711789D01*
Y5683411D01*
X10066865Y5655999D01*
X10081055Y5631422D01*
X10101122Y5611355D01*
X10125699Y5597165D01*
X10153111Y5589820D01*
X10181489D01*
X10208901Y5597165D01*
X10233478Y5611355D01*
X10253545Y5631422D01*
X10267735Y5655999D01*
X10275080Y5683411D01*
Y5711789D01*
X10267735Y5739201D01*
X10253545Y5763778D01*
X10233478Y5783845D01*
X10208901Y5798035D01*
X10181489Y5805380D01*
D02*
G37*
G36*
X4190931Y5613400D02*
X4165669D01*
X4155099Y5609022D01*
X4178300Y5585821D01*
X4201501Y5609022D01*
X4190931Y5613400D01*
D02*
G37*
G36*
X3632131Y5575300D02*
X3606869D01*
X3596299Y5570922D01*
X3619500Y5547721D01*
X3642701Y5570922D01*
X3632131Y5575300D01*
D02*
G37*
G36*
X4237422Y5573101D02*
X4214221Y5549900D01*
X4237422Y5526699D01*
X4241800Y5537269D01*
Y5562531D01*
X4237422Y5573101D01*
D02*
G37*
G36*
X4119178Y5573101D02*
X4114800Y5562531D01*
Y5537269D01*
X4119178Y5526699D01*
X4142379Y5549900D01*
X4119178Y5573101D01*
D02*
G37*
G36*
X3678622Y5535001D02*
X3655421Y5511800D01*
X3678622Y5488599D01*
X3683000Y5499169D01*
Y5524431D01*
X3678622Y5535001D01*
D02*
G37*
G36*
X3560378Y5535001D02*
X3556000Y5524431D01*
Y5499169D01*
X3560378Y5488599D01*
X3583579Y5511800D01*
X3560378Y5535001D01*
D02*
G37*
G36*
X4178300Y5513979D02*
X4155099Y5490778D01*
X4165669Y5486400D01*
X4190931D01*
X4201501Y5490778D01*
X4178300Y5513979D01*
D02*
G37*
G36*
X3619500Y5475879D02*
X3596299Y5452678D01*
X3606869Y5448300D01*
X3632131D01*
X3642701Y5452678D01*
X3619500Y5475879D01*
D02*
G37*
G36*
X3285819Y5518998D02*
X3236321Y5469500D01*
X3285819Y5420002D01*
X3285915Y5420128D01*
X3295780Y5443943D01*
X3299145Y5469500D01*
X3295780Y5495057D01*
X3285915Y5518873D01*
X3285819Y5518998D01*
D02*
G37*
G36*
X5664131Y5435600D02*
X5638869D01*
X5628299Y5431222D01*
X5651500Y5408021D01*
X5674701Y5431222D01*
X5664131Y5435600D01*
D02*
G37*
G36*
X11123615Y6469380D02*
X11101385D01*
X11080847Y6460873D01*
X11065127Y6445153D01*
X11056620Y6424615D01*
Y6402385D01*
X11065127Y6381847D01*
X11080847Y6366127D01*
X11081423Y6365888D01*
Y5470512D01*
X11080847Y5470273D01*
X11065127Y5454553D01*
X11056620Y5434015D01*
Y5411785D01*
X11065127Y5391247D01*
X11080847Y5375527D01*
X11101385Y5367020D01*
X11123615D01*
X11144153Y5375527D01*
X11159873Y5391247D01*
X11168380Y5411785D01*
Y5434015D01*
X11159873Y5454553D01*
X11144153Y5470273D01*
X11143577Y5470512D01*
Y6365888D01*
X11144153Y6366127D01*
X11159873Y6381847D01*
X11168380Y6402385D01*
Y6424615D01*
X11159873Y6445153D01*
X11144153Y6460873D01*
X11123615Y6469380D01*
D02*
G37*
G36*
X5710622Y5395301D02*
X5687421Y5372100D01*
X5710622Y5348899D01*
X5715000Y5359469D01*
Y5384731D01*
X5710622Y5395301D01*
D02*
G37*
G36*
X5592378Y5395301D02*
X5588000Y5384731D01*
Y5359469D01*
X5592378Y5348899D01*
X5615579Y5372100D01*
X5592378Y5395301D01*
D02*
G37*
G36*
X3287715Y5681980D02*
X3265485D01*
X3244947Y5673473D01*
X3229227Y5657753D01*
X3220720Y5637215D01*
Y5614985D01*
X3229227Y5594447D01*
X3244947Y5578727D01*
X3265485Y5570220D01*
X3287715D01*
X3288292Y5570459D01*
X3495925Y5362825D01*
X3506007Y5356088D01*
X3517900Y5353723D01*
X3787788D01*
X3788027Y5353147D01*
X3803747Y5337427D01*
X3824285Y5328920D01*
X3846515D01*
X3867053Y5337427D01*
X3882773Y5353147D01*
X3891280Y5373685D01*
Y5395915D01*
X3882773Y5416453D01*
X3867053Y5432173D01*
X3846515Y5440680D01*
X3824285D01*
X3803747Y5432173D01*
X3788027Y5416453D01*
X3787788Y5415877D01*
X3530772D01*
X3332241Y5614408D01*
X3332480Y5614985D01*
Y5637215D01*
X3323973Y5657753D01*
X3308253Y5673473D01*
X3287715Y5681980D01*
D02*
G37*
G36*
X5651500Y5336179D02*
X5628299Y5312978D01*
X5638869Y5308600D01*
X5664131D01*
X5674701Y5312978D01*
X5651500Y5336179D01*
D02*
G37*
G36*
X7516401Y11117580D02*
X7494999D01*
X7474327Y11112041D01*
X7455793Y11101340D01*
X7440660Y11086207D01*
X7429959Y11067673D01*
X7424420Y11047001D01*
Y11025599D01*
X7429959Y11004927D01*
X7436528Y10993549D01*
Y10899852D01*
X7101188Y10564512D01*
X7090195Y10550186D01*
X7083285Y10533503D01*
X7080928Y10515600D01*
Y7404100D01*
X7083285Y7386197D01*
X7090195Y7369514D01*
X7101188Y7355188D01*
X7913988Y6542388D01*
X7928314Y6531395D01*
X7944997Y6524485D01*
X7962900Y6522128D01*
X9191548D01*
X9392328Y6321348D01*
Y5372100D01*
X9393122Y5366071D01*
X9390180Y5351280D01*
Y5198561D01*
X9377480Y5191228D01*
X9366170Y5197758D01*
X9345302Y5203350D01*
X9323698D01*
X9302830Y5197758D01*
X9297208Y5194513D01*
X9352461Y5139260D01*
X9334500Y5121300D01*
X9352461Y5103339D01*
X9297208Y5048087D01*
X9302830Y5044842D01*
X9323698Y5039250D01*
X9345302D01*
X9366170Y5044842D01*
X9377480Y5051371D01*
X9390180Y5044039D01*
Y4635598D01*
X9298791Y4544209D01*
X9287844Y4527826D01*
X9284000Y4508500D01*
Y4382260D01*
X9274941Y4373201D01*
X9265142Y4356229D01*
X9260070Y4337299D01*
Y4317701D01*
X9265142Y4298771D01*
X9274941Y4281799D01*
X9288799Y4267941D01*
X9305771Y4258142D01*
X9324701Y4253070D01*
X9344299D01*
X9363229Y4258142D01*
X9380201Y4267941D01*
X9394059Y4281799D01*
X9403858Y4298771D01*
X9408930Y4317701D01*
Y4337299D01*
X9403858Y4356229D01*
X9394059Y4373201D01*
X9385000Y4382260D01*
Y4487582D01*
X9476389Y4578971D01*
X9487336Y4595355D01*
X9491180Y4614680D01*
Y5310163D01*
X9496086Y5312195D01*
X9510412Y5323188D01*
X9521405Y5337514D01*
X9528315Y5354197D01*
X9530672Y5372100D01*
Y6350000D01*
X9528315Y6367903D01*
X9521405Y6384586D01*
X9510412Y6398912D01*
X9269112Y6640212D01*
X9254786Y6651205D01*
X9238103Y6658115D01*
X9220200Y6660472D01*
X7991552D01*
X7219272Y7432752D01*
Y10486948D01*
X7554612Y10822288D01*
X7565605Y10836614D01*
X7572515Y10853297D01*
X7574872Y10871200D01*
Y10993549D01*
X7581441Y11004927D01*
X7586980Y11025599D01*
Y11047001D01*
X7581441Y11067673D01*
X7570740Y11086207D01*
X7555607Y11101340D01*
X7537073Y11112041D01*
X7516401Y11117580D01*
D02*
G37*
G36*
X9261287Y5158591D02*
X9258042Y5152970D01*
X9252450Y5132102D01*
Y5110498D01*
X9258042Y5089630D01*
X9261287Y5084008D01*
X9298579Y5121300D01*
X9261287Y5158591D01*
D02*
G37*
G36*
X9598299Y5195730D02*
X9578701D01*
X9559771Y5190658D01*
X9542799Y5180859D01*
X9528941Y5167001D01*
X9519142Y5150029D01*
X9514070Y5131099D01*
Y5111501D01*
X9519142Y5092571D01*
X9528941Y5075599D01*
X9542799Y5061741D01*
X9559771Y5051942D01*
X9578701Y5046870D01*
X9598299D01*
X9617229Y5051942D01*
X9634201Y5061741D01*
X9648059Y5075599D01*
X9657858Y5092571D01*
X9662930Y5111501D01*
Y5131099D01*
X9657858Y5150029D01*
X9648059Y5167001D01*
X9634201Y5180859D01*
X9617229Y5190658D01*
X9598299Y5195730D01*
D02*
G37*
G36*
X9090299D02*
X9070701D01*
X9051771Y5190658D01*
X9034799Y5180859D01*
X9020941Y5167001D01*
X9011142Y5150029D01*
X9006070Y5131099D01*
Y5111501D01*
X9011142Y5092571D01*
X9020941Y5075599D01*
X9034799Y5061741D01*
X9051771Y5051942D01*
X9070701Y5046870D01*
X9090299D01*
X9109229Y5051942D01*
X9126201Y5061741D01*
X9140059Y5075599D01*
X9149858Y5092571D01*
X9154930Y5111501D01*
Y5131099D01*
X9149858Y5150029D01*
X9140059Y5167001D01*
X9126201Y5180859D01*
X9109229Y5190658D01*
X9090299Y5195730D01*
D02*
G37*
G36*
X8836299D02*
X8816701D01*
X8797771Y5190658D01*
X8780799Y5180859D01*
X8766941Y5167001D01*
X8757142Y5150029D01*
X8752070Y5131099D01*
Y5111501D01*
X8757142Y5092571D01*
X8766941Y5075599D01*
X8780799Y5061741D01*
X8797771Y5051942D01*
X8816701Y5046870D01*
X8836299D01*
X8855229Y5051942D01*
X8872201Y5061741D01*
X8886059Y5075599D01*
X8895858Y5092571D01*
X8900930Y5111501D01*
Y5131099D01*
X8895858Y5150029D01*
X8886059Y5167001D01*
X8872201Y5180859D01*
X8855229Y5190658D01*
X8836299Y5195730D01*
D02*
G37*
G36*
X8582299D02*
X8562701D01*
X8543771Y5190658D01*
X8526799Y5180859D01*
X8512941Y5167001D01*
X8503142Y5150029D01*
X8498070Y5131099D01*
Y5111501D01*
X8503142Y5092571D01*
X8512941Y5075599D01*
X8526799Y5061741D01*
X8543771Y5051942D01*
X8562701Y5046870D01*
X8582299D01*
X8601229Y5051942D01*
X8618201Y5061741D01*
X8632059Y5075599D01*
X8641858Y5092571D01*
X8646930Y5111501D01*
Y5131099D01*
X8641858Y5150029D01*
X8632059Y5167001D01*
X8618201Y5180859D01*
X8601229Y5190658D01*
X8582299Y5195730D01*
D02*
G37*
G36*
X8328299D02*
X8308701D01*
X8289771Y5190658D01*
X8272799Y5180859D01*
X8258941Y5167001D01*
X8249142Y5150029D01*
X8244070Y5131099D01*
Y5111501D01*
X8249142Y5092571D01*
X8258941Y5075599D01*
X8272799Y5061741D01*
X8289771Y5051942D01*
X8308701Y5046870D01*
X8328299D01*
X8347229Y5051942D01*
X8364201Y5061741D01*
X8378059Y5075599D01*
X8387858Y5092571D01*
X8392930Y5111501D01*
Y5131099D01*
X8387858Y5150029D01*
X8378059Y5167001D01*
X8364201Y5180859D01*
X8347229Y5190658D01*
X8328299Y5195730D01*
D02*
G37*
G36*
X9879015Y4907280D02*
X9856785D01*
X9836247Y4898773D01*
X9820527Y4883053D01*
X9820288Y4882477D01*
X9623412D01*
X9623173Y4883053D01*
X9607453Y4898773D01*
X9586915Y4907280D01*
X9564685D01*
X9544147Y4898773D01*
X9528427Y4883053D01*
X9519920Y4862515D01*
Y4840285D01*
X9528427Y4819747D01*
X9544147Y4804027D01*
X9564685Y4795520D01*
X9586915D01*
X9607453Y4804027D01*
X9623173Y4819747D01*
X9623412Y4820323D01*
X9820288D01*
X9820527Y4819747D01*
X9836247Y4804027D01*
X9856785Y4795520D01*
X9879015D01*
X9899553Y4804027D01*
X9915273Y4819747D01*
X9923780Y4840285D01*
Y4862515D01*
X9915273Y4883053D01*
X9899553Y4898773D01*
X9879015Y4907280D01*
D02*
G37*
G36*
X12002676Y4880600D02*
X11974924D01*
X11948117Y4873417D01*
X11934415Y4865506D01*
X11988800Y4811121D01*
X12043185Y4865506D01*
X12029483Y4873417D01*
X12002676Y4880600D01*
D02*
G37*
G36*
X10933115Y4856480D02*
X10910885D01*
X10890347Y4847973D01*
X10874627Y4832253D01*
X10866120Y4811715D01*
Y4789485D01*
X10866359Y4788908D01*
X10836525Y4759075D01*
X10829788Y4748993D01*
X10827423Y4737100D01*
Y4395502D01*
X10812799Y4387059D01*
X10798941Y4373201D01*
X10789142Y4356229D01*
X10784070Y4337299D01*
Y4317701D01*
X10789142Y4298771D01*
X10798941Y4281799D01*
X10812799Y4267941D01*
X10829771Y4258142D01*
X10848701Y4253070D01*
X10868299D01*
X10887229Y4258142D01*
X10904201Y4267941D01*
X10918059Y4281799D01*
X10927858Y4298771D01*
X10932930Y4317701D01*
Y4337299D01*
X10927858Y4356229D01*
X10918059Y4373201D01*
X10904201Y4387059D01*
X10889577Y4395502D01*
Y4724228D01*
X10910308Y4744959D01*
X10910885Y4744720D01*
X10933115D01*
X10953653Y4753227D01*
X10969373Y4768947D01*
X10977880Y4789485D01*
Y4811715D01*
X10969373Y4832253D01*
X10953653Y4847973D01*
X10933115Y4856480D01*
D02*
G37*
G36*
X11898494Y4829585D02*
X11890583Y4815883D01*
X11883400Y4789076D01*
Y4761324D01*
X11890583Y4734517D01*
X11898494Y4720815D01*
X11952879Y4775200D01*
X11898494Y4829585D01*
D02*
G37*
G36*
X12079106Y4829585D02*
X12024721Y4775200D01*
X12079106Y4720815D01*
X12087017Y4734517D01*
X12094200Y4761324D01*
Y4789076D01*
X12087017Y4815883D01*
X12079106Y4829585D01*
D02*
G37*
G36*
X11988800Y4739279D02*
X11934415Y4684894D01*
X11948117Y4676983D01*
X11974924Y4669800D01*
X12002676D01*
X12029483Y4676983D01*
X12043185Y4684894D01*
X11988800Y4739279D01*
D02*
G37*
G36*
X9873640Y4691380D02*
X9851409D01*
X9830871Y4682873D01*
X9815152Y4667153D01*
X9814913Y4666577D01*
X9623412D01*
X9623173Y4667153D01*
X9607453Y4682873D01*
X9586915Y4691380D01*
X9564685D01*
X9544147Y4682873D01*
X9528427Y4667153D01*
X9519920Y4646615D01*
Y4624385D01*
X9528427Y4603847D01*
X9544147Y4588127D01*
X9564685Y4579620D01*
X9586915D01*
X9607453Y4588127D01*
X9623173Y4603847D01*
X9623412Y4604423D01*
X9814913D01*
X9815152Y4603847D01*
X9830871Y4588127D01*
X9851409Y4579620D01*
X9873640D01*
X9894178Y4588127D01*
X9909897Y4603847D01*
X9918404Y4624385D01*
Y4646615D01*
X9909897Y4667153D01*
X9894178Y4682873D01*
X9873640Y4691380D01*
D02*
G37*
G36*
X4127431Y4597400D02*
X4102169D01*
X4091599Y4593022D01*
X4114800Y4569821D01*
X4138001Y4593022D01*
X4127431Y4597400D01*
D02*
G37*
G36*
X4173922Y4557101D02*
X4150721Y4533900D01*
X4173922Y4510699D01*
X4178300Y4521269D01*
Y4546531D01*
X4173922Y4557101D01*
D02*
G37*
G36*
X4055678Y4557101D02*
X4051300Y4546531D01*
Y4521269D01*
X4055678Y4510699D01*
X4078879Y4533900D01*
X4055678Y4557101D01*
D02*
G37*
G36*
X4114800Y4497979D02*
X4091599Y4474778D01*
X4102169Y4470400D01*
X4127431D01*
X4138001Y4474778D01*
X4114800Y4497979D01*
D02*
G37*
G36*
X6409431Y4470400D02*
X6384169D01*
X6373600Y4466022D01*
X6396800Y4442821D01*
X6420001Y4466022D01*
X6409431Y4470400D01*
D02*
G37*
G36*
X4952931D02*
X4927669D01*
X4917099Y4466022D01*
X4940300Y4442821D01*
X4963501Y4466022D01*
X4952931Y4470400D01*
D02*
G37*
G36*
X12001673Y4618980D02*
X11975927D01*
X11951058Y4612316D01*
X11928762Y4599443D01*
X11910557Y4581238D01*
X11897684Y4558942D01*
X11891020Y4534073D01*
Y4508327D01*
X11897684Y4483458D01*
X11910557Y4461162D01*
X11928762Y4442957D01*
X11951058Y4430084D01*
X11975927Y4423420D01*
X12001673D01*
X12026542Y4430084D01*
X12048838Y4442957D01*
X12067043Y4461162D01*
X12079916Y4483458D01*
X12086580Y4508327D01*
Y4534073D01*
X12079916Y4558942D01*
X12067043Y4581238D01*
X12048838Y4599443D01*
X12026542Y4612316D01*
X12001673Y4618980D01*
D02*
G37*
G36*
X6455922Y4430101D02*
X6432721Y4406900D01*
X6455922Y4383699D01*
X6460300Y4394269D01*
Y4419531D01*
X6455922Y4430101D01*
D02*
G37*
G36*
X4999422D02*
X4976221Y4406900D01*
X4999422Y4383699D01*
X5003800Y4394269D01*
Y4419531D01*
X4999422Y4430101D01*
D02*
G37*
G36*
X6337678Y4430101D02*
X6333300Y4419531D01*
Y4394269D01*
X6337678Y4383699D01*
X6360879Y4406900D01*
X6337678Y4430101D01*
D02*
G37*
G36*
X4881178D02*
X4876800Y4419531D01*
Y4394269D01*
X4881178Y4383699D01*
X4904379Y4406900D01*
X4881178Y4430101D01*
D02*
G37*
G36*
X9599302Y4409550D02*
X9577698D01*
X9556830Y4403958D01*
X9551208Y4400713D01*
X9588500Y4363421D01*
X9625792Y4400713D01*
X9620170Y4403958D01*
X9599302Y4409550D01*
D02*
G37*
G36*
X6396800Y4370979D02*
X6373600Y4347778D01*
X6384169Y4343400D01*
X6409431D01*
X6420001Y4347778D01*
X6396800Y4370979D01*
D02*
G37*
G36*
X4940300D02*
X4917099Y4347778D01*
X4927669Y4343400D01*
X4952931D01*
X4963501Y4347778D01*
X4940300Y4370979D01*
D02*
G37*
G36*
X5359331Y4368800D02*
X5334069D01*
X5323499Y4364422D01*
X5346700Y4341221D01*
X5369901Y4364422D01*
X5359331Y4368800D01*
D02*
G37*
G36*
X9661713Y4364792D02*
X9624421Y4327500D01*
X9661713Y4290209D01*
X9664958Y4295830D01*
X9670550Y4316698D01*
Y4338302D01*
X9664958Y4359170D01*
X9661713Y4364792D01*
D02*
G37*
G36*
X9515287D02*
X9512042Y4359170D01*
X9506450Y4338302D01*
Y4316698D01*
X9512042Y4295830D01*
X9515287Y4290209D01*
X9552579Y4327500D01*
X9515287Y4364792D01*
D02*
G37*
G36*
X5405822Y4328501D02*
X5382621Y4305300D01*
X5405822Y4282099D01*
X5410200Y4292669D01*
Y4317931D01*
X5405822Y4328501D01*
D02*
G37*
G36*
X3113993Y4344500D02*
X3083607D01*
X3054257Y4336635D01*
X3037095Y4326727D01*
X3098800Y4265021D01*
X3160505Y4326726D01*
X3143343Y4336635D01*
X3113993Y4344500D01*
D02*
G37*
G36*
X10106299Y4401930D02*
X10086701D01*
X10067771Y4396858D01*
X10050799Y4387059D01*
X10036941Y4373201D01*
X10027142Y4356229D01*
X10022070Y4337299D01*
Y4317701D01*
X10027142Y4298771D01*
X10036941Y4281799D01*
X10050799Y4267941D01*
X10067771Y4258142D01*
X10086701Y4253070D01*
X10106299D01*
X10125229Y4258142D01*
X10142201Y4267941D01*
X10156059Y4281799D01*
X10165858Y4298771D01*
X10170930Y4317701D01*
Y4337299D01*
X10165858Y4356229D01*
X10156059Y4373201D01*
X10142201Y4387059D01*
X10125229Y4396858D01*
X10106299Y4401930D01*
D02*
G37*
G36*
X9852299D02*
X9832701D01*
X9813771Y4396858D01*
X9796799Y4387059D01*
X9782941Y4373201D01*
X9773142Y4356229D01*
X9768070Y4337299D01*
Y4317701D01*
X9773142Y4298771D01*
X9782941Y4281799D01*
X9796799Y4267941D01*
X9813771Y4258142D01*
X9832701Y4253070D01*
X9852299D01*
X9871229Y4258142D01*
X9888201Y4267941D01*
X9902059Y4281799D01*
X9911858Y4298771D01*
X9916930Y4317701D01*
Y4337299D01*
X9911858Y4356229D01*
X9902059Y4373201D01*
X9888201Y4387059D01*
X9871229Y4396858D01*
X9852299Y4401930D01*
D02*
G37*
G36*
X9090299D02*
X9070701D01*
X9051771Y4396858D01*
X9034799Y4387059D01*
X9020941Y4373201D01*
X9011142Y4356229D01*
X9006070Y4337299D01*
Y4317701D01*
X9011142Y4298771D01*
X9020941Y4281799D01*
X9034799Y4267941D01*
X9051771Y4258142D01*
X9070701Y4253070D01*
X9090299D01*
X9109229Y4258142D01*
X9126201Y4267941D01*
X9140059Y4281799D01*
X9149858Y4298771D01*
X9154930Y4317701D01*
Y4337299D01*
X9149858Y4356229D01*
X9140059Y4373201D01*
X9126201Y4387059D01*
X9109229Y4396858D01*
X9090299Y4401930D01*
D02*
G37*
G36*
X8836299D02*
X8816701D01*
X8797771Y4396858D01*
X8780799Y4387059D01*
X8766941Y4373201D01*
X8757142Y4356229D01*
X8752070Y4337299D01*
Y4317701D01*
X8757142Y4298771D01*
X8766941Y4281799D01*
X8780799Y4267941D01*
X8797771Y4258142D01*
X8816701Y4253070D01*
X8836299D01*
X8855229Y4258142D01*
X8872201Y4267941D01*
X8886059Y4281799D01*
X8895858Y4298771D01*
X8900930Y4317701D01*
Y4337299D01*
X8895858Y4356229D01*
X8886059Y4373201D01*
X8872201Y4387059D01*
X8855229Y4396858D01*
X8836299Y4401930D01*
D02*
G37*
G36*
X8074299D02*
X8054701D01*
X8035771Y4396858D01*
X8018799Y4387059D01*
X8004941Y4373201D01*
X7995142Y4356229D01*
X7990070Y4337299D01*
Y4317701D01*
X7995142Y4298771D01*
X8004941Y4281799D01*
X8018799Y4267941D01*
X8035771Y4258142D01*
X8054701Y4253070D01*
X8074299D01*
X8093229Y4258142D01*
X8110201Y4267941D01*
X8124059Y4281799D01*
X8133858Y4298771D01*
X8138930Y4317701D01*
Y4337299D01*
X8133858Y4356229D01*
X8124059Y4373201D01*
X8110201Y4387059D01*
X8093229Y4396858D01*
X8074299Y4401930D01*
D02*
G37*
G36*
X9588500Y4291579D02*
X9551208Y4254287D01*
X9556830Y4251042D01*
X9577698Y4245450D01*
X9599302D01*
X9620170Y4251042D01*
X9625792Y4254287D01*
X9588500Y4291579D01*
D02*
G37*
G36*
X3196426Y4290805D02*
X3134721Y4229100D01*
X3196427Y4167395D01*
X3206335Y4184557D01*
X3214200Y4213907D01*
Y4244293D01*
X3206335Y4273643D01*
X3196426Y4290805D01*
D02*
G37*
G36*
X5706678Y4176101D02*
X5702300Y4165531D01*
Y4140269D01*
X5706678Y4129699D01*
X5729879Y4152900D01*
X5706678Y4176101D01*
D02*
G37*
G36*
X5765800Y4116979D02*
X5742599Y4093778D01*
X5753169Y4089400D01*
X5778431D01*
X5789001Y4093778D01*
X5765800Y4116979D01*
D02*
G37*
G36*
X4186334Y6974298D02*
X4164103D01*
X4143565Y6965791D01*
X4127846Y6950072D01*
X4119338Y6929534D01*
Y6907303D01*
X4127846Y6886765D01*
X4143565Y6871046D01*
X4164103Y6862538D01*
X4186334D01*
X4186910Y6862777D01*
X5216962Y5832725D01*
X5227044Y5825988D01*
X5238937Y5823623D01*
X5270803D01*
X5275663Y5811890D01*
X5273927Y5810153D01*
X5265420Y5789615D01*
Y5775726D01*
X4937446Y5447752D01*
X4600775D01*
X4590953Y5457573D01*
X4570415Y5466080D01*
X4548185D01*
X4527647Y5457573D01*
X4511927Y5441853D01*
X4503420Y5421315D01*
Y5399085D01*
X4511927Y5378547D01*
X4527647Y5362827D01*
X4548185Y5354320D01*
X4570415D01*
X4590953Y5362827D01*
X4600775Y5372648D01*
X4953000D01*
X4967370Y5375507D01*
X4979553Y5383647D01*
X5318526Y5722620D01*
X5332415D01*
X5352953Y5731127D01*
X5368673Y5746847D01*
X5377180Y5767385D01*
Y5789615D01*
X5368673Y5810153D01*
X5366937Y5811890D01*
X5371797Y5823623D01*
X5397328D01*
X7110878Y4110072D01*
X7106920Y4100515D01*
Y4078285D01*
X7115427Y4057747D01*
X7131147Y4042027D01*
X7151685Y4033520D01*
X7173915D01*
X7194453Y4042027D01*
X7210173Y4057747D01*
X7218680Y4078285D01*
Y4100515D01*
X7210173Y4121053D01*
X7194453Y4136773D01*
X7173915Y4145280D01*
X7163570D01*
X7000281Y4308568D01*
X7005542Y4321268D01*
X7013599D01*
X7024169Y4325647D01*
X6983008Y4366808D01*
X6941847Y4407969D01*
X6937468Y4397399D01*
Y4389342D01*
X6924768Y4384081D01*
X5432175Y5876675D01*
X5422093Y5883412D01*
X5410200Y5885777D01*
X5251809D01*
X4230860Y6906727D01*
X4231098Y6907303D01*
Y6929534D01*
X4222591Y6950072D01*
X4206872Y6965791D01*
X4186334Y6974298D01*
D02*
G37*
G36*
X11593515Y5326380D02*
X11571285D01*
X11550747Y5317873D01*
X11535027Y5302153D01*
X11526520Y5281615D01*
Y5259385D01*
X11535027Y5238847D01*
X11550747Y5223127D01*
X11551323Y5222888D01*
Y4076700D01*
X11553688Y4064807D01*
X11560425Y4054725D01*
X11628359Y3986792D01*
X11628120Y3986215D01*
Y3963985D01*
X11636627Y3943447D01*
X11652347Y3927727D01*
X11672885Y3919220D01*
X11695115D01*
X11715653Y3927727D01*
X11731373Y3943447D01*
X11739880Y3963985D01*
Y3986215D01*
X11731373Y4006753D01*
X11715653Y4022473D01*
X11695115Y4030980D01*
X11672885D01*
X11672308Y4030741D01*
X11613477Y4089572D01*
Y5222888D01*
X11614053Y5223127D01*
X11629773Y5238847D01*
X11638280Y5259385D01*
Y5281615D01*
X11629773Y5302153D01*
X11614053Y5317873D01*
X11593515Y5326380D01*
D02*
G37*
G36*
X5816531Y3898900D02*
X5791269D01*
X5780699Y3894522D01*
X5803900Y3871321D01*
X5827101Y3894522D01*
X5816531Y3898900D01*
D02*
G37*
G36*
X11226731D02*
X11201469D01*
X11190899Y3894522D01*
X11214100Y3871321D01*
X11237301Y3894522D01*
X11226731Y3898900D01*
D02*
G37*
G36*
X5535615Y4907280D02*
X5513385D01*
X5492847Y4898773D01*
X5477127Y4883053D01*
X5468620Y4862515D01*
Y4840285D01*
X5477127Y4819747D01*
X5492847Y4804027D01*
X5493423Y4803788D01*
Y4508500D01*
X5495788Y4496607D01*
X5502525Y4486525D01*
X5760917Y4228133D01*
X5756057Y4216400D01*
X5753169D01*
X5742599Y4212022D01*
X5783761Y4170861D01*
X5824922Y4129699D01*
X5829300Y4140269D01*
Y4143157D01*
X5841033Y4148017D01*
X6078459Y3910591D01*
X6078220Y3910015D01*
Y3887785D01*
X6086727Y3867247D01*
X6102447Y3851527D01*
X6122985Y3843020D01*
X6145215D01*
X6165753Y3851527D01*
X6181473Y3867247D01*
X6189980Y3887785D01*
Y3910015D01*
X6181473Y3930553D01*
X6165753Y3946273D01*
X6145215Y3954780D01*
X6122985D01*
X6122409Y3954541D01*
X5555577Y4521372D01*
Y4803788D01*
X5556153Y4804027D01*
X5571873Y4819747D01*
X5580380Y4840285D01*
Y4862515D01*
X5571873Y4883053D01*
X5556153Y4898773D01*
X5535615Y4907280D01*
D02*
G37*
G36*
X11273222Y3858601D02*
X11250021Y3835400D01*
X11273222Y3812199D01*
X11277600Y3822769D01*
Y3848031D01*
X11273222Y3858601D01*
D02*
G37*
G36*
X11887131Y3721100D02*
X11861869D01*
X11851299Y3716722D01*
X11874500Y3693521D01*
X11897701Y3716722D01*
X11887131Y3721100D01*
D02*
G37*
G36*
X11933622Y3680801D02*
X11910421Y3657600D01*
X11933622Y3634399D01*
X11938000Y3644969D01*
Y3670231D01*
X11933622Y3680801D01*
D02*
G37*
G36*
X11874500Y3621679D02*
X11851299Y3598478D01*
X11861869Y3594100D01*
X11887131D01*
X11897701Y3598478D01*
X11874500Y3621679D01*
D02*
G37*
%LPD*%
G36*
X7278643Y6494614D02*
X7281297Y6484023D01*
X7267827Y6470553D01*
X7267588Y6469977D01*
X6578772D01*
X6564307Y6484443D01*
X6564517Y6486060D01*
X6569987Y6496723D01*
X7277403D01*
X7278643Y6494614D01*
D02*
G37*
G36*
X7267827Y6407247D02*
X7281297Y6393777D01*
X7278643Y6383186D01*
X7277403Y6381077D01*
X6591472D01*
X6577427Y6395123D01*
X6582687Y6407823D01*
X7267588D01*
X7267827Y6407247D01*
D02*
G37*
G36*
X8667471Y8447036D02*
X8668220Y8439823D01*
X8650483Y8422086D01*
X8637281Y8399219D01*
X8630447Y8373714D01*
Y8347310D01*
X8636645Y8324177D01*
X8630417Y8311477D01*
X8391512D01*
X8391273Y8312053D01*
X8375553Y8327773D01*
X8357741Y8335151D01*
X8360267Y8347851D01*
X8429728D01*
X8441621Y8350216D01*
X8451703Y8356953D01*
X8547272Y8452523D01*
X8666000D01*
X8667471Y8447036D01*
D02*
G37*
G36*
X8921471D02*
X8922220Y8439823D01*
X8904483Y8422086D01*
X8891281Y8399219D01*
X8884447Y8373714D01*
Y8347310D01*
X8891281Y8321806D01*
X8904483Y8298939D01*
X8923154Y8280268D01*
X8946020Y8267066D01*
X8960190Y8263269D01*
X8958518Y8250569D01*
X8756936D01*
X8755264Y8263269D01*
X8769434Y8267066D01*
X8792300Y8280268D01*
X8810971Y8298939D01*
X8824173Y8321806D01*
X8831007Y8347310D01*
Y8373714D01*
X8824173Y8399219D01*
X8810971Y8422086D01*
X8793234Y8439823D01*
X8793983Y8447036D01*
X8795454Y8452523D01*
X8920000D01*
X8921471Y8447036D01*
D02*
G37*
%LPC*%
G36*
X12414043Y10145101D02*
X12390842Y10121900D01*
X12414043Y10098699D01*
X12418421Y10109269D01*
Y10134531D01*
X12414043Y10145101D01*
D02*
G37*
G36*
X12354921Y10085979D02*
X12331720Y10062778D01*
X12342290Y10058400D01*
X12367552D01*
X12378122Y10062778D01*
X12354921Y10085979D01*
D02*
G37*
G36*
X12414043Y8951301D02*
X12390842Y8928100D01*
X12414043Y8904899D01*
X12418421Y8915469D01*
Y8940731D01*
X12414043Y8951301D01*
D02*
G37*
G36*
X12354921Y8892179D02*
X12331720Y8868978D01*
X12342290Y8864600D01*
X12367552D01*
X12378122Y8868978D01*
X12354921Y8892179D01*
D02*
G37*
G36*
X12414043Y7757501D02*
X12390842Y7734300D01*
X12414043Y7711099D01*
X12418421Y7721669D01*
Y7746931D01*
X12414043Y7757501D01*
D02*
G37*
G36*
Y6563701D02*
X12390842Y6540500D01*
X12414043Y6517299D01*
X12418421Y6527869D01*
Y6553131D01*
X12414043Y6563701D01*
D02*
G37*
G36*
X12354921Y6504579D02*
X12331720Y6481378D01*
X12342290Y6477000D01*
X12367552D01*
X12378122Y6481378D01*
X12354921Y6504579D01*
D02*
G37*
G36*
X12414043Y5369901D02*
X12390842Y5346700D01*
X12414043Y5323499D01*
X12418421Y5334069D01*
Y5359331D01*
X12414043Y5369901D01*
D02*
G37*
G36*
X12354921Y5310779D02*
X12331720Y5287578D01*
X12342290Y5283200D01*
X12367552D01*
X12378122Y5287578D01*
X12354921Y5310779D01*
D02*
G37*
G36*
X12414043Y4176101D02*
X12390842Y4152900D01*
X12414043Y4129699D01*
X12418421Y4140269D01*
Y4165531D01*
X12414043Y4176101D01*
D02*
G37*
G36*
X12354921Y4116979D02*
X12331720Y4093778D01*
X12342290Y4089400D01*
X12367552D01*
X12378122Y4093778D01*
X12354921Y4116979D01*
D02*
G37*
G36*
X2849178Y9459301D02*
X2844800Y9448731D01*
Y9423469D01*
X2849178Y9412899D01*
X2872379Y9436100D01*
X2849178Y9459301D01*
D02*
G37*
G36*
X2917764Y9022415D02*
X2909353Y9007848D01*
X2902000Y8980405D01*
Y8951995D01*
X2909353Y8924552D01*
X2917764Y8909985D01*
X2973979Y8966200D01*
X2917764Y9022415D01*
D02*
G37*
G36*
X2768531Y8331200D02*
X2743269D01*
X2732699Y8326822D01*
X2755900Y8303621D01*
X2779101Y8326822D01*
X2768531Y8331200D01*
D02*
G37*
G36*
X2815022Y8290901D02*
X2791821Y8267700D01*
X2815022Y8244499D01*
X2819400Y8255069D01*
Y8280331D01*
X2815022Y8290901D01*
D02*
G37*
G36*
X2696778Y8290901D02*
X2692400Y8280331D01*
Y8255069D01*
X2696778Y8244499D01*
X2719979Y8267700D01*
X2696778Y8290901D01*
D02*
G37*
G36*
X2755900Y8231779D02*
X2732699Y8208578D01*
X2743269Y8204200D01*
X2768531D01*
X2779101Y8208578D01*
X2755900Y8231779D01*
D02*
G37*
G36*
X2917764Y8108015D02*
X2909353Y8093448D01*
X2902000Y8066005D01*
Y8037595D01*
X2909353Y8010152D01*
X2917764Y7995585D01*
X2973979Y8051800D01*
X2917764Y8108015D01*
D02*
G37*
G36*
X2895531Y7124700D02*
X2870269D01*
X2859699Y7120322D01*
X2882900Y7097121D01*
X2906101Y7120322D01*
X2895531Y7124700D01*
D02*
G37*
G36*
X2942022Y7084401D02*
X2918821Y7061200D01*
X2942022Y7037999D01*
X2946400Y7048569D01*
Y7073831D01*
X2942022Y7084401D01*
D02*
G37*
G36*
X2823778Y7084401D02*
X2819400Y7073831D01*
Y7048569D01*
X2823778Y7037999D01*
X2846979Y7061200D01*
X2823778Y7084401D01*
D02*
G37*
G36*
X2882900Y7025279D02*
X2859699Y7002078D01*
X2870269Y6997700D01*
X2895531D01*
X2906101Y7002078D01*
X2882900Y7025279D01*
D02*
G37*
G36*
X2825400Y6305430D02*
X2760400D01*
X2740748Y6302842D01*
X2722435Y6295257D01*
X2706710Y6283190D01*
X2694643Y6267465D01*
X2687058Y6249152D01*
X2684471Y6229500D01*
X2687058Y6209848D01*
X2694643Y6191535D01*
X2706710Y6175810D01*
X2722435Y6163743D01*
X2740748Y6156158D01*
X2760400Y6153571D01*
X2825400D01*
X2845052Y6156158D01*
X2863364Y6163743D01*
X2879090Y6175810D01*
X2891157Y6191535D01*
X2898742Y6209848D01*
X2901329Y6229500D01*
X2898742Y6249152D01*
X2891157Y6267465D01*
X2879090Y6283190D01*
X2863364Y6295257D01*
X2845052Y6302842D01*
X2825400Y6305430D01*
D02*
G37*
G36*
Y5530429D02*
X2760400D01*
X2740748Y5527842D01*
X2722435Y5520257D01*
X2706710Y5508190D01*
X2694643Y5492465D01*
X2687058Y5474152D01*
X2684471Y5454500D01*
X2687058Y5434848D01*
X2694643Y5416535D01*
X2706710Y5400810D01*
X2722435Y5388743D01*
X2740748Y5381158D01*
X2760400Y5378570D01*
X2825400D01*
X2845052Y5381158D01*
X2863364Y5388743D01*
X2879090Y5400810D01*
X2891157Y5416535D01*
X2898742Y5434848D01*
X2901329Y5454500D01*
X2898742Y5474152D01*
X2891157Y5492465D01*
X2879090Y5508190D01*
X2863364Y5520257D01*
X2845052Y5527842D01*
X2825400Y5530429D01*
D02*
G37*
G36*
X2882831Y4572000D02*
X2857569D01*
X2846999Y4567622D01*
X2870200Y4544421D01*
X2893401Y4567622D01*
X2882831Y4572000D01*
D02*
G37*
G36*
X2929322Y4531701D02*
X2906121Y4508500D01*
X2929322Y4485299D01*
X2933700Y4495869D01*
Y4521131D01*
X2929322Y4531701D01*
D02*
G37*
G36*
X2811078Y4531701D02*
X2806700Y4521131D01*
Y4495869D01*
X2811078Y4485299D01*
X2834279Y4508500D01*
X2811078Y4531701D01*
D02*
G37*
G36*
X2870200Y4472579D02*
X2846999Y4449378D01*
X2857569Y4445000D01*
X2882831D01*
X2893401Y4449378D01*
X2870200Y4472579D01*
D02*
G37*
G36*
X4827176Y3801100D02*
X4799424D01*
X4772617Y3793917D01*
X4758915Y3786006D01*
X4813300Y3731621D01*
X4867685Y3786006D01*
X4853983Y3793917D01*
X4827176Y3801100D01*
D02*
G37*
G36*
X4903606Y3750085D02*
X4849221Y3695700D01*
X4903606Y3641315D01*
X4911517Y3655017D01*
X4918700Y3681824D01*
Y3709576D01*
X4911517Y3736383D01*
X4903606Y3750085D01*
D02*
G37*
G36*
X4722994Y3750085D02*
X4715083Y3736383D01*
X4707900Y3709576D01*
Y3681824D01*
X4715083Y3655017D01*
X4722994Y3641315D01*
X4777379Y3695700D01*
X4722994Y3750085D01*
D02*
G37*
G36*
X4813300Y3659779D02*
X4758915Y3605394D01*
X4772617Y3597483D01*
X4799424Y3590300D01*
X4827176D01*
X4853983Y3597483D01*
X4867685Y3605394D01*
X4813300Y3659779D01*
D02*
G37*
G36*
X6057831Y3302000D02*
X6032569D01*
X6021999Y3297622D01*
X6045200Y3274421D01*
X6068401Y3297622D01*
X6057831Y3302000D01*
D02*
G37*
G36*
X6104322Y3261701D02*
X6081121Y3238500D01*
X6104322Y3215299D01*
X6108700Y3225869D01*
Y3251131D01*
X6104322Y3261701D01*
D02*
G37*
G36*
X5986078Y3261701D02*
X5981700Y3251131D01*
Y3225869D01*
X5986078Y3215299D01*
X6009279Y3238500D01*
X5986078Y3261701D01*
D02*
G37*
G36*
X6045200Y3202579D02*
X6021999Y3179378D01*
X6032569Y3175000D01*
X6057831D01*
X6068401Y3179378D01*
X6045200Y3202579D01*
D02*
G37*
G36*
X7722249Y3060500D02*
X7695551D01*
X7669761Y3053590D01*
X7657443Y3046478D01*
X7708900Y2995021D01*
X7760357Y3046478D01*
X7748039Y3053590D01*
X7722249Y3060500D01*
D02*
G37*
G36*
X7111004Y3022600D02*
X7087596D01*
X7064986Y3016542D01*
X7056994Y3011927D01*
X7099300Y2969621D01*
X7141606Y3011927D01*
X7133614Y3016542D01*
X7111004Y3022600D01*
D02*
G37*
G36*
X7796278Y3010557D02*
X7744821Y2959100D01*
X7796278Y2907643D01*
X7803390Y2919961D01*
X7810300Y2945751D01*
Y2972449D01*
X7803390Y2998239D01*
X7796278Y3010557D01*
D02*
G37*
G36*
X7621522D02*
X7614410Y2998239D01*
X7607500Y2972449D01*
Y2945751D01*
X7614410Y2919961D01*
X7621522Y2907643D01*
X7672979Y2959100D01*
X7621522Y3010557D01*
D02*
G37*
G36*
X6684389Y3083580D02*
X6656011D01*
X6628599Y3076235D01*
X6604022Y3062045D01*
X6583955Y3041978D01*
X6569765Y3017401D01*
X6562420Y2989989D01*
Y2961611D01*
X6569765Y2934199D01*
X6583955Y2909622D01*
X6604022Y2889555D01*
X6628599Y2875365D01*
X6656011Y2868020D01*
X6684389D01*
X6711801Y2875365D01*
X6736378Y2889555D01*
X6756445Y2909622D01*
X6770635Y2934199D01*
X6777980Y2961611D01*
Y2989989D01*
X6770635Y3017401D01*
X6756445Y3041978D01*
X6736378Y3062045D01*
X6711801Y3076235D01*
X6684389Y3083580D01*
D02*
G37*
G36*
X5434389D02*
X5406011D01*
X5378599Y3076235D01*
X5354022Y3062045D01*
X5333955Y3041978D01*
X5319765Y3017401D01*
X5312420Y2989989D01*
Y2961611D01*
X5319765Y2934199D01*
X5333955Y2909622D01*
X5354022Y2889555D01*
X5378599Y2875365D01*
X5406011Y2868020D01*
X5434389D01*
X5461801Y2875365D01*
X5486378Y2889555D01*
X5506445Y2909622D01*
X5520635Y2934199D01*
X5527980Y2961611D01*
Y2989989D01*
X5520635Y3017401D01*
X5506445Y3041978D01*
X5486378Y3062045D01*
X5461801Y3076235D01*
X5434389Y3083580D01*
D02*
G37*
G36*
X7975246Y3052880D02*
X7950554D01*
X7926702Y3046489D01*
X7905318Y3034143D01*
X7887857Y3016682D01*
X7875511Y2995298D01*
X7869120Y2971446D01*
Y2946754D01*
X7875511Y2922902D01*
X7887857Y2901518D01*
X7905318Y2884057D01*
X7926702Y2871711D01*
X7950554Y2865320D01*
X7975246D01*
X7999098Y2871711D01*
X8020482Y2884057D01*
X8037943Y2901518D01*
X8050289Y2922902D01*
X8056680Y2946754D01*
Y2971446D01*
X8050289Y2995298D01*
X8037943Y3016682D01*
X8020482Y3034143D01*
X7999098Y3046489D01*
X7975246Y3052880D01*
D02*
G37*
G36*
X7492900Y3053973D02*
X7416900D01*
X7395136Y3049643D01*
X7376685Y3037315D01*
X7364357Y3018864D01*
X7360027Y2997100D01*
Y2921100D01*
X7364357Y2899336D01*
X7376685Y2880885D01*
X7395136Y2868557D01*
X7416900Y2864227D01*
X7492900D01*
X7514664Y2868557D01*
X7533115Y2880885D01*
X7545443Y2899336D01*
X7549773Y2921100D01*
Y2997100D01*
X7545443Y3018864D01*
X7533115Y3037315D01*
X7514664Y3049643D01*
X7492900Y3053973D01*
D02*
G37*
G36*
X7708900Y2923179D02*
X7657443Y2871722D01*
X7669761Y2864610D01*
X7695551Y2857700D01*
X7722249D01*
X7748039Y2864610D01*
X7760357Y2871722D01*
X7708900Y2923179D01*
D02*
G37*
G36*
X3543300Y4015379D02*
X3500994Y3973073D01*
X3508986Y3968458D01*
X3531596Y3962400D01*
X3555004D01*
X3577614Y3968458D01*
X3585606Y3973073D01*
X3543300Y4015379D01*
D02*
G37*
G36*
X3113993Y3963500D02*
X3083607D01*
X3054257Y3955635D01*
X3037095Y3945727D01*
X3098800Y3884021D01*
X3160505Y3945726D01*
X3143343Y3955635D01*
X3113993Y3963500D01*
D02*
G37*
G36*
X3196426Y3909805D02*
X3134721Y3848100D01*
X3196427Y3786395D01*
X3206335Y3803557D01*
X3214200Y3832907D01*
Y3863293D01*
X3206335Y3892643D01*
X3196426Y3909805D01*
D02*
G37*
G36*
X3001174Y3909805D02*
X2991265Y3892643D01*
X2983400Y3863293D01*
Y3832907D01*
X2991265Y3803557D01*
X3001174Y3786395D01*
X3062879Y3848100D01*
X3001174Y3909805D01*
D02*
G37*
G36*
X3098800Y3812179D02*
X3037095Y3750474D01*
X3054257Y3740565D01*
X3083607Y3732700D01*
X3113993D01*
X3143343Y3740565D01*
X3160505Y3750474D01*
X3098800Y3812179D01*
D02*
G37*
G36*
X4599300Y3801664D02*
X4519300D01*
X4502227Y3799417D01*
X4494645Y3796276D01*
X4559300Y3731621D01*
X4623955Y3796276D01*
X4616373Y3799417D01*
X4599300Y3801664D01*
D02*
G37*
G36*
X4458724Y3760355D02*
X4455583Y3752773D01*
X4453336Y3735700D01*
Y3655700D01*
X4455583Y3638627D01*
X4458724Y3631045D01*
X4523379Y3695700D01*
X4458724Y3760355D01*
D02*
G37*
G36*
X4559300Y3659779D02*
X4494645Y3595124D01*
X4502227Y3591983D01*
X4519300Y3589736D01*
X4599300D01*
X4616373Y3591983D01*
X4623955Y3595124D01*
X4559300Y3659779D01*
D02*
G37*
G36*
X5157606Y3750085D02*
X5103221Y3695700D01*
X5157606Y3641315D01*
X5165517Y3655017D01*
X5172700Y3681824D01*
Y3709576D01*
X5165517Y3736383D01*
X5157606Y3750085D01*
D02*
G37*
G36*
X10360299Y4401930D02*
X10340701D01*
X10321771Y4396858D01*
X10304799Y4387059D01*
X10290941Y4373201D01*
X10281142Y4356229D01*
X10276070Y4337299D01*
Y4317701D01*
X10281142Y4298771D01*
X10290941Y4281799D01*
X10304799Y4267941D01*
X10321771Y4258142D01*
X10340701Y4253070D01*
X10360299D01*
X10379229Y4258142D01*
X10396201Y4267941D01*
X10410059Y4281799D01*
X10419858Y4298771D01*
X10424930Y4317701D01*
Y4337299D01*
X10419858Y4356229D01*
X10410059Y4373201D01*
X10396201Y4387059D01*
X10379229Y4396858D01*
X10360299Y4401930D01*
D02*
G37*
G36*
X8724831Y3721100D02*
X8699569D01*
X8688999Y3716722D01*
X8712200Y3693521D01*
X8735401Y3716722D01*
X8724831Y3721100D01*
D02*
G37*
G36*
X9677331Y3683000D02*
X9652069D01*
X9641499Y3678622D01*
X9664700Y3655421D01*
X9687901Y3678622D01*
X9677331Y3683000D01*
D02*
G37*
G36*
X8771322Y3680801D02*
X8748121Y3657600D01*
X8771322Y3634399D01*
X8775700Y3644969D01*
Y3670231D01*
X8771322Y3680801D01*
D02*
G37*
G36*
X8653078Y3680801D02*
X8648700Y3670231D01*
Y3644969D01*
X8653078Y3634399D01*
X8676279Y3657600D01*
X8653078Y3680801D01*
D02*
G37*
G36*
X8712200Y3621679D02*
X8688999Y3598478D01*
X8699569Y3594100D01*
X8724831D01*
X8735401Y3598478D01*
X8712200Y3621679D01*
D02*
G37*
G36*
X7607231Y3632200D02*
X7581969D01*
X7571399Y3627822D01*
X7594600Y3604621D01*
X7617801Y3627822D01*
X7607231Y3632200D01*
D02*
G37*
G36*
X7653722Y3591901D02*
X7630521Y3568700D01*
X7653722Y3545499D01*
X7658100Y3556069D01*
Y3581331D01*
X7653722Y3591901D01*
D02*
G37*
G36*
X7535478Y3591901D02*
X7531100Y3581331D01*
Y3556069D01*
X7535478Y3545499D01*
X7558679Y3568700D01*
X7535478Y3591901D01*
D02*
G37*
G36*
X6685393Y3591200D02*
X6655007D01*
X6625657Y3583335D01*
X6608495Y3573427D01*
X6670200Y3511721D01*
X6731905Y3573426D01*
X6714743Y3583335D01*
X6685393Y3591200D01*
D02*
G37*
G36*
X5435393D02*
X5405007D01*
X5375657Y3583335D01*
X5358495Y3573427D01*
X5420200Y3511721D01*
X5481905Y3573426D01*
X5464743Y3583335D01*
X5435393Y3591200D01*
D02*
G37*
G36*
X7594600Y3532779D02*
X7571399Y3509578D01*
X7581969Y3505200D01*
X7607231D01*
X7617801Y3509578D01*
X7594600Y3532779D01*
D02*
G37*
G36*
X6767826Y3537505D02*
X6706121Y3475800D01*
X6767827Y3414095D01*
X6777735Y3431257D01*
X6785600Y3460607D01*
Y3490993D01*
X6777735Y3520343D01*
X6767826Y3537505D01*
D02*
G37*
G36*
X5517826D02*
X5456121Y3475800D01*
X5517827Y3414095D01*
X5527735Y3431257D01*
X5535600Y3460607D01*
Y3490993D01*
X5527735Y3520343D01*
X5517826Y3537505D01*
D02*
G37*
G36*
X5322574Y3537505D02*
X5312665Y3520343D01*
X5304800Y3490993D01*
Y3460607D01*
X5312665Y3431257D01*
X5322574Y3414095D01*
X5384279Y3475800D01*
X5322574Y3537505D01*
D02*
G37*
G36*
X6572574D02*
X6562665Y3520343D01*
X6554800Y3490993D01*
Y3460607D01*
X6562665Y3431257D01*
X6572574Y3414095D01*
X6634279Y3475800D01*
X6572574Y3537505D01*
D02*
G37*
G36*
X6670200Y3439879D02*
X6608495Y3378174D01*
X6625657Y3368265D01*
X6655007Y3360400D01*
X6685393D01*
X6714743Y3368265D01*
X6731906Y3378174D01*
X6670200Y3439879D01*
D02*
G37*
G36*
X5420200D02*
X5358495Y3378174D01*
X5375657Y3368265D01*
X5405007Y3360400D01*
X5435393D01*
X5464743Y3368265D01*
X5481905Y3378174D01*
X5420200Y3439879D01*
D02*
G37*
G36*
X9715500Y3227979D02*
X9692299Y3204778D01*
X9702869Y3200400D01*
X9728131D01*
X9738701Y3204778D01*
X9715500Y3227979D01*
D02*
G37*
G36*
X11364473Y3153806D02*
X11359858Y3145814D01*
X11353800Y3123204D01*
Y3099796D01*
X11359858Y3077186D01*
X11364473Y3069194D01*
X11406779Y3111500D01*
X11364473Y3153806D01*
D02*
G37*
G36*
X11124846Y3052880D02*
X11100154D01*
X11076302Y3046489D01*
X11054918Y3034143D01*
X11037457Y3016682D01*
X11025111Y2995298D01*
X11018720Y2971446D01*
Y2946754D01*
X11025111Y2922902D01*
X11037457Y2901518D01*
X11054918Y2884057D01*
X11076302Y2871711D01*
X11100154Y2865320D01*
X11124846D01*
X11148698Y2871711D01*
X11170082Y2884057D01*
X11187543Y2901518D01*
X11199889Y2922902D01*
X11206280Y2946754D01*
Y2971446D01*
X11199889Y2995298D01*
X11187543Y3016682D01*
X11170082Y3034143D01*
X11148698Y3046489D01*
X11124846Y3052880D01*
D02*
G37*
G36*
X10870846D02*
X10846154D01*
X10822302Y3046489D01*
X10800918Y3034143D01*
X10783457Y3016682D01*
X10771111Y2995298D01*
X10764720Y2971446D01*
Y2946754D01*
X10771111Y2922902D01*
X10783457Y2901518D01*
X10800918Y2884057D01*
X10822302Y2871711D01*
X10846154Y2865320D01*
X10870846D01*
X10894698Y2871711D01*
X10916082Y2884057D01*
X10933543Y2901518D01*
X10945889Y2922902D01*
X10952280Y2946754D01*
Y2971446D01*
X10945889Y2995298D01*
X10933543Y3016682D01*
X10916082Y3034143D01*
X10894698Y3046489D01*
X10870846Y3052880D01*
D02*
G37*
G36*
X10616846D02*
X10592154D01*
X10568302Y3046489D01*
X10546918Y3034143D01*
X10529457Y3016682D01*
X10517111Y2995298D01*
X10510720Y2971446D01*
Y2946754D01*
X10517111Y2922902D01*
X10529457Y2901518D01*
X10546918Y2884057D01*
X10568302Y2871711D01*
X10592154Y2865320D01*
X10616846D01*
X10640698Y2871711D01*
X10662082Y2884057D01*
X10679543Y2901518D01*
X10691889Y2922902D01*
X10698280Y2946754D01*
Y2971446D01*
X10691889Y2995298D01*
X10679543Y3016682D01*
X10662082Y3034143D01*
X10640698Y3046489D01*
X10616846Y3052880D01*
D02*
G37*
G36*
X10362846D02*
X10338154D01*
X10314302Y3046489D01*
X10292918Y3034143D01*
X10275457Y3016682D01*
X10263111Y2995298D01*
X10256720Y2971446D01*
Y2946754D01*
X10263111Y2922902D01*
X10275457Y2901518D01*
X10292918Y2884057D01*
X10314302Y2871711D01*
X10338154Y2865320D01*
X10362846D01*
X10386698Y2871711D01*
X10408082Y2884057D01*
X10425543Y2901518D01*
X10437889Y2922902D01*
X10444280Y2946754D01*
Y2971446D01*
X10437889Y2995298D01*
X10425543Y3016682D01*
X10408082Y3034143D01*
X10386698Y3046489D01*
X10362846Y3052880D01*
D02*
G37*
G36*
X10108846D02*
X10084154D01*
X10060302Y3046489D01*
X10038918Y3034143D01*
X10021457Y3016682D01*
X10009111Y2995298D01*
X10002720Y2971446D01*
Y2946754D01*
X10009111Y2922902D01*
X10021457Y2901518D01*
X10038918Y2884057D01*
X10060302Y2871711D01*
X10084154Y2865320D01*
X10108846D01*
X10132698Y2871711D01*
X10154082Y2884057D01*
X10171543Y2901518D01*
X10183889Y2922902D01*
X10190280Y2946754D01*
Y2971446D01*
X10183889Y2995298D01*
X10171543Y3016682D01*
X10154082Y3034143D01*
X10132698Y3046489D01*
X10108846Y3052880D01*
D02*
G37*
G36*
X9880500Y3053973D02*
X9804500D01*
X9782736Y3049643D01*
X9764285Y3037315D01*
X9751957Y3018864D01*
X9747627Y2997100D01*
Y2921100D01*
X9751957Y2899336D01*
X9764285Y2880885D01*
X9782736Y2868557D01*
X9804500Y2864227D01*
X9880500D01*
X9902264Y2868557D01*
X9920715Y2880885D01*
X9933043Y2899336D01*
X9937373Y2921100D01*
Y2997100D01*
X9933043Y3018864D01*
X9920715Y3037315D01*
X9902264Y3049643D01*
X9880500Y3053973D01*
D02*
G37*
G36*
X9676404Y2768600D02*
X9652996D01*
X9630386Y2762542D01*
X9622394Y2757927D01*
X9664700Y2715621D01*
X9707006Y2757927D01*
X9699014Y2762542D01*
X9676404Y2768600D01*
D02*
G37*
G36*
X9742927Y2722006D02*
X9700621Y2679700D01*
X9742927Y2637394D01*
X9747542Y2645386D01*
X9753600Y2667996D01*
Y2691404D01*
X9747542Y2714014D01*
X9742927Y2722006D01*
D02*
G37*
G36*
X8738249Y3060500D02*
X8711551D01*
X8685761Y3053590D01*
X8673443Y3046478D01*
X8724900Y2995021D01*
X8776357Y3046478D01*
X8764039Y3053590D01*
X8738249Y3060500D01*
D02*
G37*
G36*
X9066278Y3010557D02*
X9014821Y2959100D01*
X9066278Y2907643D01*
X9073390Y2919961D01*
X9080300Y2945751D01*
Y2972449D01*
X9073390Y2998239D01*
X9066278Y3010557D01*
D02*
G37*
G36*
X8812278D02*
X8760821Y2959100D01*
X8812278Y2907643D01*
X8819390Y2919961D01*
X8826300Y2945751D01*
Y2972449D01*
X8819390Y2998239D01*
X8812278Y3010557D01*
D02*
G37*
G36*
X8891522D02*
X8884410Y2998239D01*
X8877500Y2972449D01*
Y2945751D01*
X8884410Y2919961D01*
X8891522Y2907643D01*
X8942979Y2959100D01*
X8891522Y3010557D01*
D02*
G37*
G36*
X8637522D02*
X8630410Y2998239D01*
X8623500Y2972449D01*
Y2945751D01*
X8630410Y2919961D01*
X8637522Y2907643D01*
X8688979Y2959100D01*
X8637522Y3010557D01*
D02*
G37*
G36*
X9245246Y3052880D02*
X9220554D01*
X9196702Y3046489D01*
X9175318Y3034143D01*
X9157857Y3016682D01*
X9145511Y2995298D01*
X9139120Y2971446D01*
Y2946754D01*
X9145511Y2922902D01*
X9157857Y2901518D01*
X9175318Y2884057D01*
X9196702Y2871711D01*
X9220554Y2865320D01*
X9245246D01*
X9269098Y2871711D01*
X9290482Y2884057D01*
X9307943Y2901518D01*
X9320289Y2922902D01*
X9326680Y2946754D01*
Y2971446D01*
X9320289Y2995298D01*
X9307943Y3016682D01*
X9290482Y3034143D01*
X9269098Y3046489D01*
X9245246Y3052880D01*
D02*
G37*
G36*
X8978900Y2923179D02*
X8927443Y2871722D01*
X8939761Y2864610D01*
X8965551Y2857700D01*
X8992249D01*
X9018039Y2864610D01*
X9030357Y2871722D01*
X8978900Y2923179D01*
D02*
G37*
G36*
X8724900D02*
X8673443Y2871722D01*
X8685761Y2864610D01*
X8711551Y2857700D01*
X8738249D01*
X8764039Y2864610D01*
X8776357Y2871722D01*
X8724900Y2923179D01*
D02*
G37*
%LPD*%
D29*
X5151120Y2669540D02*
X5153660Y2667000D01*
X8242300D01*
X8470900Y2895600D01*
Y2959100D01*
D30*
X5840596Y7011804D02*
G03*
X5792604Y7059796I-100196J-52204D01*
G01*
X3187701Y5803900D02*
G03*
X3225801Y5765800I38100J0D01*
G01*
X3187701Y5900420D02*
G03*
X3111501Y5900420I-38100J0D01*
G01*
X3035301Y5700580D02*
G03*
X3111501Y5700580I38100J0D01*
G01*
X3035301Y5800817D02*
G03*
X3024142Y5827758I-38100J0D01*
G01*
X3517900Y5384800D02*
X3835400D01*
X3276600Y5626100D02*
X3517900Y5384800D01*
X4213420Y5775520D02*
X4239260Y5801360D01*
X4188020Y5775520D02*
X4213420D01*
X4239260Y5801360D02*
X4968240D01*
X4178300Y5765800D02*
X4188020Y5775520D01*
X4230146Y5943600D02*
X4965700D01*
X4178300Y5981700D02*
X4192046D01*
X4230146Y5943600D01*
X8651061Y8280400D02*
X8711969Y8219492D01*
X8343900Y8280400D02*
X8651061D01*
X11562827Y3657600D02*
X11874500D01*
X11537427Y3632200D02*
X11562827Y3657600D01*
X11252200Y3708400D02*
X11747500D01*
X11976100Y3937000D01*
X11178980Y3825680D02*
X11204380D01*
X11125200Y3771900D02*
X11178980Y3825680D01*
X11125200Y3721100D02*
Y3771900D01*
X11204380Y3825680D02*
X11214100Y3835400D01*
Y3632200D02*
X11537427D01*
X11125200Y3721100D02*
X11214100Y3632200D01*
X11025370Y3693930D02*
Y5034170D01*
Y3693930D02*
X11163300Y3556000D01*
X11277600D01*
X10096500Y3365500D02*
X10731500Y4000500D01*
X6832600Y4902200D02*
X8369300Y3365500D01*
X10096500D01*
X9969500Y8401150D02*
Y8401151D01*
X9887051Y8483600D02*
X9969500Y8401151D01*
X9816054Y8013700D02*
X9829800D01*
X7315200Y6438900D02*
X7620000D01*
X6565900D02*
X7315200D01*
X6235700Y6946900D02*
X6565900Y6616700D01*
X7696200D01*
X8445500Y5867400D01*
X6070600Y7023100D02*
X6565900Y6527800D01*
X7645400D02*
X8178800Y5994400D01*
X6565900Y6527800D02*
X7645400D01*
X5969000Y7035800D02*
X6565900Y6438900D01*
X7477320Y6359720D02*
X7478121Y6358919D01*
X7528921D01*
X7810500Y5121300D02*
Y6077340D01*
X7528921Y6358919D02*
X7810500Y6077340D01*
X7467600Y6350000D02*
X7477320Y6359720D01*
X5892800Y7035800D02*
X6578600Y6350000D01*
X7467600D01*
X7620000Y6438900D02*
X7937500Y6121400D01*
X7404100Y7995900D02*
X7594600Y7805400D01*
X7404100Y7995900D02*
Y8394700D01*
X11137900Y7543800D02*
Y7556500D01*
X10474908Y8219492D02*
X11137900Y7556500D01*
X11366500Y7543800D02*
X12164421D01*
X12354921Y7734300D01*
X8711969Y8219492D02*
X10474908D01*
X11239500Y7035800D02*
Y10439400D01*
X11315700Y10515600D01*
X11239500Y7035800D02*
X11582400Y6692900D01*
X8128000Y8166100D02*
X8318500D01*
X8496300Y7988300D02*
X9790654D01*
X8318500Y8166100D02*
X8496300Y7988300D01*
X7950200Y8343900D02*
X8128000Y8166100D01*
X8264955Y8378928D02*
X8429728D01*
X8252451Y8391432D02*
X8264955Y8378928D01*
X8073932Y8391432D02*
X8252451D01*
X9790654Y7988300D02*
X9816054Y8013700D01*
X7937500Y4969643D02*
Y6121400D01*
X8178800Y4467200D02*
Y5994400D01*
X8445500Y4454500D02*
Y5867400D01*
X8429728Y8378928D02*
X8534400Y8483600D01*
X9887051D01*
X11417300Y5041900D02*
Y5697600D01*
X11277600Y4902200D02*
X11417300Y5041900D01*
X11277600Y4711700D02*
Y4902200D01*
X11112500Y4838700D02*
X11290300Y5016500D01*
Y6426200D01*
X11112500Y4327500D02*
Y4838700D01*
X11582400Y4076700D02*
X11684000Y3975100D01*
X11582400Y4076700D02*
Y5270500D01*
X10197475Y6565275D02*
X11645275D01*
X9842500Y6210300D02*
X10197475Y6565275D01*
X11112500Y5422900D02*
Y6413500D01*
X11645275Y6565275D02*
X11988800Y6908800D01*
X11785600Y10807700D02*
X11791950D01*
X11982450Y10998200D01*
X11988800D01*
X11090920Y11362680D02*
X11201400Y11252200D01*
X6388100Y10795000D02*
X6955780Y11362680D01*
X11090920D01*
X6388100Y6908800D02*
Y10795000D01*
Y6908800D02*
X6553200Y6743700D01*
X6235700Y6946900D02*
Y10934700D01*
X6070600Y7023100D02*
Y10998200D01*
X5969000Y7035800D02*
Y11645900D01*
X5892800Y7035800D02*
Y11468100D01*
X5664200Y7188200D02*
X5792604Y7059796D01*
X5840596Y7011804D02*
X6184900Y6667500D01*
X4343400Y7188200D02*
X5664200D01*
X6184900Y6375400D02*
Y6667500D01*
X11971253Y9278853D02*
X11988800Y9296400D01*
X11856953Y9278853D02*
X11971253D01*
X11391900Y8813800D02*
X11856953Y9278853D01*
X11417300Y8102600D02*
X11988800D01*
X11315700Y8001000D02*
X11417300Y8102600D01*
X10858500Y4327500D02*
Y4737100D01*
X10922000Y4800600D01*
X10452100Y6311900D02*
Y6315078D01*
Y5384800D02*
Y6311900D01*
X10350500Y5283200D02*
X10452100Y5384800D01*
X10096500Y5121300D02*
X10363200Y5388000D01*
Y5892800D01*
X10350500Y5121300D02*
Y5283200D01*
X10452100Y5232400D02*
X10541000Y5321300D01*
X10452100Y4749800D02*
Y5232400D01*
X10502900Y5194300D02*
X10553700Y5245100D01*
X10502900Y4051300D02*
Y5194300D01*
X10541000Y5321300D02*
X10912500D01*
X10553700Y5245100D02*
X10734700D01*
X9842500Y5121300D02*
Y6210300D01*
X9575800Y4851400D02*
X9867900D01*
X10912500Y5321300D02*
X11112500Y5121300D01*
X10604500D02*
X10731500Y4994300D01*
Y4000500D02*
Y4994300D01*
X10734700Y5245100D02*
X10858500Y5121300D01*
X10223500Y4521200D02*
X10452100Y4749800D01*
X9982200Y3530600D02*
X10502900Y4051300D01*
X9575800Y4635500D02*
X9862524D01*
X11025370Y5034170D02*
X11112500Y5121300D01*
X10223500Y4076700D02*
Y4521200D01*
X8305800Y3784600D02*
X9931400D01*
X10223500Y4076700D01*
X8420100Y3530600D02*
X9982200D01*
X7010400Y4940300D02*
X8420100Y3530600D01*
X6832600Y5562600D02*
X7010400Y5384800D01*
Y4940300D02*
Y5384800D01*
X6832600Y4902200D02*
Y5334000D01*
X7874000Y3727263D02*
Y3733800D01*
Y3727263D02*
X8470900Y3130363D01*
X8013700Y8915400D02*
X8153400Y8775700D01*
X8013700Y8915400D02*
Y9283700D01*
X6934200Y5880100D02*
X7366000D01*
X8445500Y4454500D02*
X8572500Y4327500D01*
X8178800Y4467200D02*
X8318500Y4327500D01*
X6235700Y10934700D02*
X6731000Y11430000D01*
Y11645900D01*
X7810500Y4842643D02*
X7937500Y4969643D01*
X6070600Y10998200D02*
X6477000Y11404600D01*
Y11645900D01*
X6705600Y5651500D02*
X6934200Y5880100D01*
X5715000Y11645900D02*
X5892800Y11468100D01*
X7810500Y4327500D02*
Y4842643D01*
X6223000Y11341100D02*
Y11645900D01*
X2971800Y9499600D02*
X4254500D01*
X2908300Y9436100D02*
X2971800Y9499600D01*
X6705600Y4787900D02*
Y5651500D01*
Y4787900D02*
X7607300Y3886200D01*
X7162800Y4089400D02*
Y4102100D01*
X5410200Y5854700D02*
X7162800Y4102100D01*
X4175218Y6918418D02*
X5238937Y5854700D01*
X5410200D01*
X8470900Y2959100D02*
Y3130363D01*
X12240621Y4267200D02*
X12354921Y4152900D01*
X11988800Y4267200D02*
X12240621D01*
X11988800Y5461000D02*
X12240621D01*
X12354921Y5346700D01*
X12240621Y6654800D02*
X12354921Y6540500D01*
X11988800Y6654800D02*
X12240621D01*
X11988800Y7848600D02*
X12240621D01*
X12354921Y7734300D01*
X11988800Y9042400D02*
X12240621D01*
X12354921Y8928100D01*
X12240621Y10236200D02*
X12354921Y10121900D01*
X11988800Y10236200D02*
X12240621D01*
X3187700Y7327900D02*
X3924300D01*
X4737100Y6515100D02*
X5927980D01*
X3924300Y7327900D02*
X4737100Y6515100D01*
X4557980Y6846620D02*
X5891480D01*
X3606800Y7543800D02*
X3860800D01*
X4557980Y6846620D01*
X5524500Y4508500D02*
Y4851400D01*
Y4508500D02*
X6134100Y3898900D01*
X3404920Y7910780D02*
X3620820D01*
X4343400Y7188200D01*
X5891480Y6846620D02*
X6057900Y6680200D01*
X3263900Y8051800D02*
X3404920Y7910780D01*
X3009900Y7501342D02*
Y7797800D01*
X3185521Y7325721D02*
X3187700Y7327900D01*
X3009900Y7501342D02*
X3185521Y7325721D01*
X3391114Y5981700D02*
X3467100D01*
X3068320D02*
X3391114D01*
X2946400Y6103620D02*
X3068320Y5981700D01*
X2875280Y6103620D02*
X2946400D01*
X3299460Y5765800D02*
X3467100D01*
X2799080Y6103620D02*
X2875280D01*
X2715260Y5897880D02*
X2847340Y5765800D01*
X2715260Y5897880D02*
Y6019800D01*
X2799080Y6103620D01*
X3225801Y5765800D02*
X3299460D01*
X3187701Y5803900D02*
Y5900420D01*
X3111501Y5700580D02*
Y5900420D01*
X3035301Y5700580D02*
Y5800817D01*
X2870200Y5981700D02*
X3024142Y5827758D01*
X2847340Y5765800D02*
X2870200D01*
Y5981700D02*
X2897693D01*
D36*
X12369800Y3505200D02*
Y3517900D01*
X12221384Y3356784D02*
X12369800Y3505200D01*
X12137216Y3356784D02*
X12221384D01*
X12077699Y3416300D02*
X12137216Y3356784D01*
X11747500Y3416300D02*
X12077699D01*
X11442700Y3111500D02*
X11747500Y3416300D01*
X7150100Y10515600D02*
X7505700Y10871200D01*
X7150100Y7404100D02*
Y10515600D01*
X7505700Y10871200D02*
Y11036300D01*
X9220200Y6591300D02*
X9461500Y6350000D01*
X7150100Y7404100D02*
X7962900Y6591300D01*
X9220200D01*
X9461500Y5372100D02*
Y6350000D01*
D37*
X9440680Y4614680D02*
Y5351280D01*
X9334500Y4508500D02*
X9440680Y4614680D01*
X7721600Y3721100D02*
X8216900Y3225800D01*
X9334500Y4327500D02*
Y4508500D01*
X9440680Y5351280D02*
X9461500Y5372100D01*
X8216900Y2959100D02*
Y3225800D01*
X5715000Y3721100D02*
X7721600D01*
X5537200Y3898900D02*
X5715000Y3721100D01*
D38*
X5486400Y6959600D02*
D03*
X5740400D02*
D03*
X5486400Y6705600D02*
D03*
X8730727Y10646512D02*
D03*
X8984727D02*
D03*
X8730727Y10392512D02*
D03*
X8984727D02*
D03*
X8730727Y10138512D02*
D03*
X8984727D02*
D03*
X8730727Y9884512D02*
D03*
X8984727D02*
D03*
Y9630512D02*
D03*
X8730727Y9376512D02*
D03*
X8984727D02*
D03*
X8730727Y9122512D02*
D03*
X8984727D02*
D03*
X8730727Y8868512D02*
D03*
X8984727D02*
D03*
X8730727Y8614512D02*
D03*
X8984727D02*
D03*
X8730727Y8360512D02*
D03*
X8984727D02*
D03*
X8730727Y8106512D02*
D03*
X8984727D02*
D03*
X8730727Y7852512D02*
D03*
X8984727D02*
D03*
X8730727Y7598512D02*
D03*
X8984727D02*
D03*
X8730727Y7344512D02*
D03*
X8984727D02*
D03*
X8730727Y7090512D02*
D03*
X8984727D02*
D03*
X8730727Y9630512D02*
D03*
X6656727Y10646512D02*
D03*
X6910727D02*
D03*
X6656727Y10392512D02*
D03*
X6910727D02*
D03*
X6656727Y10138512D02*
D03*
X6910727D02*
D03*
X6656727Y9884512D02*
D03*
X6910727D02*
D03*
Y9630512D02*
D03*
X6656727Y9376512D02*
D03*
X6910727D02*
D03*
X6656727Y9122512D02*
D03*
X6910727D02*
D03*
X6656727Y8868512D02*
D03*
X6910727D02*
D03*
X6656727Y8614512D02*
D03*
X6910727D02*
D03*
X6656727Y8360512D02*
D03*
X6910727D02*
D03*
X6656727Y8106512D02*
D03*
X6910727D02*
D03*
X6656727Y7852512D02*
D03*
X6910727D02*
D03*
X6656727Y7598512D02*
D03*
X6910727D02*
D03*
X6656727Y7344512D02*
D03*
X6910727D02*
D03*
X6656727Y7090512D02*
D03*
X6910727D02*
D03*
X6656727Y9630512D02*
D03*
X3009900Y8051800D02*
D03*
X3263900Y7797800D02*
D03*
Y8051800D02*
D03*
X3517900Y7797800D02*
D03*
Y8051800D02*
D03*
X3009900Y8966200D02*
D03*
X3263900Y8712200D02*
D03*
Y8966200D02*
D03*
X3517900Y8712200D02*
D03*
Y8966200D02*
D03*
D39*
X5740400Y6705600D02*
D03*
D40*
X4559300Y3695700D02*
D03*
X7594600Y7805400D02*
D03*
X10947400Y11252200D02*
D03*
D41*
X4813300Y3695700D02*
D03*
X5067300D02*
D03*
X7848600Y7805400D02*
D03*
X8102600D02*
D03*
X11201400Y11252200D02*
D03*
X11455400D02*
D03*
X11988800Y4521200D02*
D03*
Y4775200D02*
D03*
Y5715000D02*
D03*
Y5969000D02*
D03*
Y6908800D02*
D03*
Y7162800D02*
D03*
Y8102600D02*
D03*
Y8356600D02*
D03*
Y9296400D02*
D03*
Y9550400D02*
D03*
Y10998200D02*
D03*
Y10744200D02*
D03*
Y10490200D02*
D03*
X4089400Y7988300D02*
D03*
Y8242300D02*
D03*
Y8496300D02*
D03*
D42*
X10167300Y6197600D02*
D03*
X11417300D02*
D03*
X10167300Y5697600D02*
D03*
X11417300D02*
D03*
X6670200Y2975800D02*
D03*
X5420200D02*
D03*
X6670200Y3475800D02*
D03*
X5420200D02*
D03*
D43*
X11988800Y4267200D02*
D03*
Y5461000D02*
D03*
Y6654800D02*
D03*
Y7848600D02*
D03*
Y9042400D02*
D03*
Y10236200D02*
D03*
X4089400Y8750300D02*
D03*
D44*
X2819400Y6604000D02*
D03*
Y5080000D02*
D03*
D45*
X3098800Y3848100D02*
D03*
Y4229100D02*
D03*
D46*
X11112500Y2959100D02*
D03*
X10858500D02*
D03*
X10604500D02*
D03*
X10096500D02*
D03*
X10350500D02*
D03*
X8724900D02*
D03*
X8470900D02*
D03*
X8216900D02*
D03*
X7708900D02*
D03*
X7962900D02*
D03*
X8978900D02*
D03*
X9232900D02*
D03*
X9220000Y11645900D02*
D03*
X9474000D02*
D03*
X9728000D02*
D03*
X10236000D02*
D03*
X9982000D02*
D03*
X8966000D02*
D03*
X8712000D02*
D03*
X8001000Y11645900D02*
D03*
X7747000D02*
D03*
X7493000D02*
D03*
X6985000D02*
D03*
X6731000D02*
D03*
X6477000D02*
D03*
X5969000D02*
D03*
X6223000D02*
D03*
X7239000D02*
D03*
D47*
X9842500Y2959100D02*
D03*
X7454900D02*
D03*
X10490000Y11645900D02*
D03*
X5715000Y11645900D02*
D03*
D48*
X3009900Y7797800D02*
D03*
Y8712200D02*
D03*
D49*
X11874500Y11747500D02*
D03*
X2921000D02*
D03*
X11874500Y2921000D02*
D03*
X2921000D02*
D03*
D50*
X11112500Y5121300D02*
D03*
D51*
X10858500D02*
D03*
X10604500D02*
D03*
X10350500D02*
D03*
X10096500D02*
D03*
X9842500D02*
D03*
X9588500D02*
D03*
X9334500D02*
D03*
X9080500D02*
D03*
X8826500D02*
D03*
X8572500D02*
D03*
X8318500D02*
D03*
X8064500D02*
D03*
X7810500D02*
D03*
Y4327500D02*
D03*
X8064500D02*
D03*
X8318500D02*
D03*
X8572500D02*
D03*
X8826500D02*
D03*
X9080500D02*
D03*
X9334500D02*
D03*
X9588500D02*
D03*
X9842500D02*
D03*
X10096500D02*
D03*
X10350500D02*
D03*
X10604500D02*
D03*
X10858500D02*
D03*
X11112500D02*
D03*
D52*
X3172900Y6214500D02*
D03*
Y5469500D02*
D03*
D53*
X2792900Y6229500D02*
D03*
Y5454500D02*
D03*
D54*
X3067900Y6092000D02*
D03*
Y5592000D02*
D03*
D55*
X5151120Y2669540D02*
D03*
X7505700Y11036300D02*
D03*
X11442700Y3111500D02*
D03*
X9664700Y2679700D02*
D03*
X7099300Y2933700D02*
D03*
X3543300Y4051300D02*
D03*
X2870200Y5765800D02*
D03*
Y5981700D02*
D03*
D56*
X3835400Y5384800D02*
D03*
X4178300Y5981700D02*
D03*
Y5765800D02*
D03*
Y5549900D02*
D03*
X8039100Y9499600D02*
D03*
X8343900Y8280400D02*
D03*
X3162300Y9347200D02*
D03*
X11874500Y3657600D02*
D03*
X12369800Y3517900D02*
D03*
X5803900Y3835400D02*
D03*
X9664700Y3619500D02*
D03*
X8712200Y3657600D02*
D03*
X6396800Y4406900D02*
D03*
X11976100Y3937000D02*
D03*
X11252200Y3708400D02*
D03*
X8737600Y3441700D02*
D03*
X5651500Y5372100D02*
D03*
X5307960Y5993760D02*
D03*
X9969500Y8401150D02*
D03*
X9829800Y8013700D02*
D03*
X3123500Y8497000D02*
D03*
X3619500Y5511800D02*
D03*
X3937000Y6464300D02*
D03*
X3822700Y7137400D02*
D03*
X3873500Y9067800D02*
D03*
X5664200Y9131300D02*
D03*
X4991100Y6413500D02*
D03*
X5346700Y4305300D02*
D03*
X5765800Y4152900D02*
D03*
X7315200Y6438900D02*
D03*
X7467600Y6350000D02*
D03*
X7404100Y8394700D02*
D03*
X11137900Y7543800D02*
D03*
X11366500D02*
D03*
X8073932Y8391432D02*
D03*
X7950200Y8343900D02*
D03*
X7937500Y8229600D02*
D03*
X7594600Y3568700D02*
D03*
X8953500Y6273800D02*
D03*
X11277600Y4711700D02*
D03*
X11684000Y3975100D02*
D03*
X11214100Y3835400D02*
D03*
X11582400Y5270500D02*
D03*
Y6692900D02*
D03*
X11290300Y6426200D02*
D03*
X11112500Y6413500D02*
D03*
X11315700Y10515600D02*
D03*
X11125200Y10934700D02*
D03*
X11785600Y10807700D02*
D03*
X6553200Y6743700D02*
D03*
X11391900Y8813800D02*
D03*
X11315700Y8001000D02*
D03*
X11112500Y5422900D02*
D03*
X10922000Y4800600D02*
D03*
X10452100Y6311900D02*
D03*
X10363200Y5892800D02*
D03*
X9575800Y4851400D02*
D03*
X9867900D02*
D03*
X9575800Y4635500D02*
D03*
X9862524D02*
D03*
X11277600Y3556000D02*
D03*
X8305800Y3784600D02*
D03*
X7950200Y3543300D02*
D03*
X7874000Y3733800D02*
D03*
X6832600Y5334000D02*
D03*
Y5562600D02*
D03*
X7429500Y9359900D02*
D03*
X8013700Y9283700D02*
D03*
X8153400Y8775700D02*
D03*
X7366000Y5880100D02*
D03*
X6223000Y11341100D02*
D03*
X9715500Y3263900D02*
D03*
X4254500Y9499600D02*
D03*
X7000968Y4384768D02*
D03*
X5321300Y5778500D02*
D03*
X7162800Y4089400D02*
D03*
X7607300Y3886200D02*
D03*
X12354921Y4152900D02*
D03*
Y5346700D02*
D03*
Y6540500D02*
D03*
Y7734300D02*
D03*
Y8928100D02*
D03*
Y10121900D02*
D03*
X4175218Y6918418D02*
D03*
X4559300Y5410200D02*
D03*
X4968240Y5801360D02*
D03*
X5524500Y4851400D02*
D03*
X6134100Y3898900D02*
D03*
X5537200D02*
D03*
X6045200Y3238500D02*
D03*
X2870200Y4508500D02*
D03*
X2882900Y7061200D02*
D03*
X2755900Y8267700D02*
D03*
X2908300Y9436100D02*
D03*
X4114800Y4533900D02*
D03*
X4940300Y4406900D02*
D03*
X3606800Y7543800D02*
D03*
X6057900Y6680200D02*
D03*
X5927980Y6515100D02*
D03*
X6184900Y6375400D02*
D03*
X3276600Y5626100D02*
D03*
X4965700Y5943600D02*
D03*
X3467100Y5981700D02*
D03*
Y5765800D02*
D03*
D57*
X4953000Y5410200D02*
X5321300Y5778500D01*
X4559300Y5410200D02*
X4953000D01*
%TF.MD5,de2f4b682f1982d85a8a6b30c70182bc*%
M02*
