%TF.GenerationSoftware,Altium Limited,Altium Designer,24.3.1 (35)*%
G04 Layer_Color=8388736*
%FSLAX45Y45*%
%MOMM*%
%TF.SameCoordinates,7E0553B6-A888-4128-BDB4-EB5F29F5F182*%
%TF.FilePolarity,Negative*%
%TF.FileFunction,Soldermask,Top*%
%TF.Part,Single*%
G01*
G75*
%TA.AperFunction,SMDPad,CuDef*%
%ADD68R,1.50320X1.10320*%
%ADD69R,1.65320X1.15320*%
%ADD70R,1.10320X1.50320*%
G04:AMPARAMS|DCode=71|XSize=1.8542mm|YSize=5.2832mm|CornerRadius=0.51435mm|HoleSize=0mm|Usage=FLASHONLY|Rotation=270.000|XOffset=0mm|YOffset=0mm|HoleType=Round|Shape=RoundedRectangle|*
%AMROUNDEDRECTD71*
21,1,1.85420,4.25450,0,0,270.0*
21,1,0.82550,5.28320,0,0,270.0*
1,1,1.02870,-2.12725,-0.41275*
1,1,1.02870,-2.12725,0.41275*
1,1,1.02870,2.12725,0.41275*
1,1,1.02870,2.12725,-0.41275*
%
%ADD71ROUNDEDRECTD71*%
%ADD72R,1.15320X1.65320*%
%ADD73R,1.30320X1.50320*%
%ADD74R,0.85320X1.72820*%
%ADD75R,0.80320X1.40320*%
%ADD76R,0.70320X1.20320*%
%ADD77R,2.10320X2.80320*%
%ADD78R,1.20320X1.10320*%
%ADD79R,0.80160X2.50160*%
%ADD80R,3.30160X2.50160*%
%ADD81R,1.40320X0.80320*%
%ADD82R,0.80320X1.67820*%
%ADD83R,1.67820X0.80320*%
%TA.AperFunction,ConnectorPad*%
%ADD84R,1.49860X0.58420*%
%TA.AperFunction,SMDPad,CuDef*%
%ADD85R,1.20320X1.15320*%
%ADD86R,1.80320X3.70320*%
%TA.AperFunction,ComponentPad*%
%ADD87C,1.85320*%
G04:AMPARAMS|DCode=88|XSize=1.8532mm|YSize=1.8532mm|CornerRadius=0.5141mm|HoleSize=0mm|Usage=FLASHONLY|Rotation=90.000|XOffset=0mm|YOffset=0mm|HoleType=Round|Shape=RoundedRectangle|*
%AMROUNDEDRECTD88*
21,1,1.85320,0.82500,0,0,90.0*
21,1,0.82500,1.85320,0,0,90.0*
1,1,1.02820,0.41250,0.41250*
1,1,1.02820,0.41250,-0.41250*
1,1,1.02820,-0.41250,-0.41250*
1,1,1.02820,-0.41250,0.41250*
%
%ADD88ROUNDEDRECTD88*%
G04:AMPARAMS|DCode=89|XSize=1.8032mm|YSize=1.8032mm|CornerRadius=0.5016mm|HoleSize=0mm|Usage=FLASHONLY|Rotation=0.000|XOffset=0mm|YOffset=0mm|HoleType=Round|Shape=RoundedRectangle|*
%AMROUNDEDRECTD89*
21,1,1.80320,0.80000,0,0,0.0*
21,1,0.80000,1.80320,0,0,0.0*
1,1,1.00320,0.40000,-0.40000*
1,1,1.00320,-0.40000,-0.40000*
1,1,1.00320,-0.40000,0.40000*
1,1,1.00320,0.40000,0.40000*
%
%ADD89ROUNDEDRECTD89*%
%ADD90C,1.80320*%
%ADD91C,2.00320*%
G04:AMPARAMS|DCode=92|XSize=1.8032mm|YSize=1.8032mm|CornerRadius=0.5016mm|HoleSize=0mm|Usage=FLASHONLY|Rotation=90.000|XOffset=0mm|YOffset=0mm|HoleType=Round|Shape=RoundedRectangle|*
%AMROUNDEDRECTD92*
21,1,1.80320,0.80000,0,0,90.0*
21,1,0.80000,1.80320,0,0,90.0*
1,1,1.00320,0.40000,0.40000*
1,1,1.00320,0.40000,-0.40000*
1,1,1.00320,-0.40000,-0.40000*
1,1,1.00320,-0.40000,0.40000*
%
%ADD92ROUNDEDRECTD92*%
%ADD93C,2.48920*%
%TA.AperFunction,ViaPad*%
%ADD94C,2.00320*%
%TA.AperFunction,ComponentPad*%
%ADD95C,1.72320*%
G04:AMPARAMS|DCode=96|XSize=1.7232mm|YSize=1.7232mm|CornerRadius=0.4816mm|HoleSize=0mm|Usage=FLASHONLY|Rotation=0.000|XOffset=0mm|YOffset=0mm|HoleType=Round|Shape=RoundedRectangle|*
%AMROUNDEDRECTD96*
21,1,1.72320,0.76000,0,0,0.0*
21,1,0.76000,1.72320,0,0,0.0*
1,1,0.96320,0.38000,-0.38000*
1,1,0.96320,-0.38000,-0.38000*
1,1,0.96320,-0.38000,0.38000*
1,1,0.96320,0.38000,0.38000*
%
%ADD96ROUNDEDRECTD96*%
%ADD97R,1.85320X1.85320*%
%ADD98C,5.91820*%
%ADD99R,1.33620X1.33620*%
%ADD100C,1.33620*%
%ADD101O,2.20320X1.65320*%
%ADD102O,2.00320X1.35320*%
%ADD103C,1.00320*%
%TA.AperFunction,ViaPad*%
%ADD104C,1.47320*%
%ADD105C,0.96520*%
D68*
X7594600Y3441700D02*
D03*
Y3211700D02*
D03*
X8191500Y8046000D02*
D03*
Y8276000D02*
D03*
Y9346500D02*
D03*
Y9576500D02*
D03*
X11976100Y3542600D02*
D03*
Y3772600D02*
D03*
X11772900Y3542600D02*
D03*
Y3772600D02*
D03*
X8737600Y6057200D02*
D03*
Y6287200D02*
D03*
X9182100Y6057200D02*
D03*
Y6287200D02*
D03*
X11709400Y4864800D02*
D03*
Y4634800D02*
D03*
Y6084000D02*
D03*
Y5854000D02*
D03*
Y7277800D02*
D03*
Y7047800D02*
D03*
Y8458900D02*
D03*
Y8228900D02*
D03*
X11722100Y9652700D02*
D03*
Y9422700D02*
D03*
X6807200Y4509200D02*
D03*
Y4279200D02*
D03*
X6553200Y4509200D02*
D03*
Y4279200D02*
D03*
X5702300Y5093400D02*
D03*
Y4863400D02*
D03*
X5199380Y5192300D02*
D03*
Y4962300D02*
D03*
X4960620Y5192300D02*
D03*
Y4962300D02*
D03*
X4483100Y5192300D02*
D03*
Y4962300D02*
D03*
X4721860Y5192300D02*
D03*
Y4962300D02*
D03*
X5676900Y3999800D02*
D03*
Y4229800D02*
D03*
X5448300Y3999800D02*
D03*
Y4229800D02*
D03*
X4432300Y4050600D02*
D03*
Y4280600D02*
D03*
X2946400Y8267000D02*
D03*
Y8497000D02*
D03*
X4927600Y6312600D02*
D03*
Y6082600D02*
D03*
D69*
X7794693Y3401860D02*
D03*
Y3201860D02*
D03*
X8002126D02*
D03*
Y3401860D02*
D03*
X11557000Y4278300D02*
D03*
Y4078300D02*
D03*
X11341100D02*
D03*
Y4278300D02*
D03*
X3378200Y6856400D02*
D03*
Y6656400D02*
D03*
X3467100Y4967300D02*
D03*
Y5167300D02*
D03*
X6134100Y4227500D02*
D03*
Y4027500D02*
D03*
X5905500Y4227500D02*
D03*
Y4027500D02*
D03*
X5918200Y4497400D02*
D03*
Y4697400D02*
D03*
X4711700Y6097600D02*
D03*
Y6297600D02*
D03*
X6045200Y5154600D02*
D03*
Y4954600D02*
D03*
D70*
X8420800Y3234200D02*
D03*
X8190800D02*
D03*
X8814500D02*
D03*
X8584500D02*
D03*
X9333800Y5308600D02*
D03*
X9563800D02*
D03*
X11315000Y10769600D02*
D03*
X11545000D02*
D03*
X9525700Y3784600D02*
D03*
X9295700D02*
D03*
X9525700Y3594100D02*
D03*
X9295700D02*
D03*
X8902000Y3784600D02*
D03*
X9132000D02*
D03*
X8902000Y3594100D02*
D03*
X9132000D02*
D03*
X9346500Y4140200D02*
D03*
X9576500D02*
D03*
X5320600Y9131300D02*
D03*
X5550600D02*
D03*
X3158900Y9207500D02*
D03*
X2928900D02*
D03*
X3466400Y7099300D02*
D03*
X3696400D02*
D03*
X3798000Y6464300D02*
D03*
X3568000D02*
D03*
X7481000Y11391900D02*
D03*
X7251000D02*
D03*
D71*
X6783727Y7090512D02*
D03*
Y7344512D02*
D03*
Y7598512D02*
D03*
Y7852512D02*
D03*
Y8106512D02*
D03*
Y8360512D02*
D03*
Y8614512D02*
D03*
Y8868512D02*
D03*
Y9122512D02*
D03*
Y9376512D02*
D03*
Y9630512D02*
D03*
Y9884512D02*
D03*
Y10138512D02*
D03*
Y10392512D02*
D03*
Y10646512D02*
D03*
X8857727Y7344512D02*
D03*
Y7852512D02*
D03*
Y8360512D02*
D03*
Y8868512D02*
D03*
Y9376512D02*
D03*
Y9884512D02*
D03*
Y10392512D02*
D03*
Y7090512D02*
D03*
Y7598512D02*
D03*
Y8106512D02*
D03*
Y8614512D02*
D03*
Y9122512D02*
D03*
Y9630512D02*
D03*
Y10138512D02*
D03*
Y10646512D02*
D03*
D72*
X11530000Y4559300D02*
D03*
X11330000D02*
D03*
X6478600Y5334000D02*
D03*
X6678600D02*
D03*
X6478600Y5562600D02*
D03*
X6678600D02*
D03*
X6653200Y6205220D02*
D03*
X6453200D02*
D03*
X7786700Y8084800D02*
D03*
X7986700D02*
D03*
X11580800Y3365500D02*
D03*
X11380800D02*
D03*
X8624900Y4147540D02*
D03*
X8824900D02*
D03*
X11530000Y10985500D02*
D03*
X11330000D02*
D03*
X8840800Y5308600D02*
D03*
X9040800D02*
D03*
X3414700Y4749800D02*
D03*
X3214700D02*
D03*
X7173900Y5778500D02*
D03*
X6973900D02*
D03*
X7173900Y5994400D02*
D03*
X6973900D02*
D03*
X5154600Y9131300D02*
D03*
X4954600D02*
D03*
X3333420Y6469380D02*
D03*
X3133420D02*
D03*
X5018100Y6604000D02*
D03*
X5218100D02*
D03*
X3265500Y7543800D02*
D03*
X3465500D02*
D03*
X3837000Y5981700D02*
D03*
X4037000D02*
D03*
X3837000Y5765800D02*
D03*
X4037000D02*
D03*
Y5549900D02*
D03*
X3837000D02*
D03*
D73*
X6670900Y5994400D02*
D03*
X6460900D02*
D03*
X3267300Y4965700D02*
D03*
X3057300D02*
D03*
X6670900Y5778500D02*
D03*
X6460900D02*
D03*
X4778600Y9131300D02*
D03*
X4568600D02*
D03*
D74*
X8191500Y8575600D02*
D03*
X8064500D02*
D03*
X7937500D02*
D03*
X7810500D02*
D03*
X7683500D02*
D03*
X7556500D02*
D03*
X7429500D02*
D03*
Y9118000D02*
D03*
X7556500D02*
D03*
X7683500D02*
D03*
X7810500D02*
D03*
X7937500D02*
D03*
X8064500D02*
D03*
X8191500D02*
D03*
D75*
X11575800Y3558000D02*
D03*
X11385800D02*
D03*
Y3808000D02*
D03*
X11480800D02*
D03*
X11575800D02*
D03*
X3588000Y6906800D02*
D03*
X3778000D02*
D03*
Y6656800D02*
D03*
X3683000D02*
D03*
X3588000D02*
D03*
D76*
X11430000Y5085700D02*
D03*
Y4845700D02*
D03*
X3152140Y6674500D02*
D03*
Y6914500D02*
D03*
D77*
X8738500Y5702300D02*
D03*
X9168500D02*
D03*
X6363600Y4940300D02*
D03*
X6793600D02*
D03*
D78*
X9321800Y3209700D02*
D03*
Y3419700D02*
D03*
X9105900Y3209700D02*
D03*
Y3419700D02*
D03*
X5440640Y5172300D02*
D03*
Y4962300D02*
D03*
D79*
X4686300Y4108180D02*
D03*
X4813300D02*
D03*
X4940300D02*
D03*
X5067300D02*
D03*
X5194300D02*
D03*
D80*
X4940300Y4713180D02*
D03*
D81*
X3977100Y9315200D02*
D03*
Y9220200D02*
D03*
Y9125200D02*
D03*
X4227100D02*
D03*
Y9315200D02*
D03*
X5450300Y4692400D02*
D03*
Y4597400D02*
D03*
Y4502400D02*
D03*
X5700300D02*
D03*
Y4692400D02*
D03*
D82*
X5300380Y5529960D02*
D03*
X5380380D02*
D03*
X5460380D02*
D03*
X5540380D02*
D03*
X5620380D02*
D03*
X5700380D02*
D03*
X5780380D02*
D03*
X5860380D02*
D03*
Y6377560D02*
D03*
X5780380D02*
D03*
X5700380D02*
D03*
X5620380D02*
D03*
X5540380D02*
D03*
X5460380D02*
D03*
X5380380D02*
D03*
X5300380D02*
D03*
D83*
X6004180Y5673760D02*
D03*
Y5753760D02*
D03*
Y5833760D02*
D03*
Y5913760D02*
D03*
Y5993760D02*
D03*
Y6073760D02*
D03*
Y6153760D02*
D03*
Y6233760D02*
D03*
X5156580D02*
D03*
Y6153760D02*
D03*
Y6073760D02*
D03*
Y5993760D02*
D03*
Y5913760D02*
D03*
Y5833760D02*
D03*
Y5753760D02*
D03*
Y5673760D02*
D03*
D84*
X3172900Y5972000D02*
D03*
Y5712000D02*
D03*
Y5907000D02*
D03*
Y5842000D02*
D03*
Y5777000D02*
D03*
D85*
X3619500Y5982980D02*
D03*
Y6142980D02*
D03*
Y5761980D02*
D03*
Y5601980D02*
D03*
D86*
X3949700Y5042500D02*
D03*
Y4482500D02*
D03*
Y3899500D02*
D03*
Y3339500D02*
D03*
D87*
X5486400Y6959600D02*
D03*
X5740400D02*
D03*
X5486400Y6705600D02*
D03*
X8730727Y10646512D02*
D03*
X8984727D02*
D03*
X8730727Y10392512D02*
D03*
X8984727D02*
D03*
X8730727Y10138512D02*
D03*
X8984727D02*
D03*
X8730727Y9884512D02*
D03*
X8984727D02*
D03*
Y9630512D02*
D03*
X8730727Y9376512D02*
D03*
X8984727D02*
D03*
X8730727Y9122512D02*
D03*
X8984727D02*
D03*
X8730727Y8868512D02*
D03*
X8984727D02*
D03*
X8730727Y8614512D02*
D03*
X8984727D02*
D03*
X8730727Y8360512D02*
D03*
X8984727D02*
D03*
X8730727Y8106512D02*
D03*
X8984727D02*
D03*
X8730727Y7852512D02*
D03*
X8984727D02*
D03*
X8730727Y7598512D02*
D03*
X8984727D02*
D03*
X8730727Y7344512D02*
D03*
X8984727D02*
D03*
X8730727Y7090512D02*
D03*
X8984727D02*
D03*
X8730727Y9630512D02*
D03*
X6656727Y10646512D02*
D03*
X6910727D02*
D03*
X6656727Y10392512D02*
D03*
X6910727D02*
D03*
X6656727Y10138512D02*
D03*
X6910727D02*
D03*
X6656727Y9884512D02*
D03*
X6910727D02*
D03*
Y9630512D02*
D03*
X6656727Y9376512D02*
D03*
X6910727D02*
D03*
X6656727Y9122512D02*
D03*
X6910727D02*
D03*
X6656727Y8868512D02*
D03*
X6910727D02*
D03*
X6656727Y8614512D02*
D03*
X6910727D02*
D03*
X6656727Y8360512D02*
D03*
X6910727D02*
D03*
X6656727Y8106512D02*
D03*
X6910727D02*
D03*
X6656727Y7852512D02*
D03*
X6910727D02*
D03*
X6656727Y7598512D02*
D03*
X6910727D02*
D03*
X6656727Y7344512D02*
D03*
X6910727D02*
D03*
X6656727Y7090512D02*
D03*
X6910727D02*
D03*
X6656727Y9630512D02*
D03*
X3009900Y8051800D02*
D03*
X3263900Y7797800D02*
D03*
Y8051800D02*
D03*
X3517900Y7797800D02*
D03*
Y8051800D02*
D03*
X3009900Y8966200D02*
D03*
X3263900Y8712200D02*
D03*
Y8966200D02*
D03*
X3517900Y8712200D02*
D03*
Y8966200D02*
D03*
D88*
X5740400Y6705600D02*
D03*
D89*
X4559300Y3695700D02*
D03*
X7594600Y7805400D02*
D03*
X10947400Y11252200D02*
D03*
D90*
X4813300Y3695700D02*
D03*
X5067300D02*
D03*
X7848600Y7805400D02*
D03*
X8102600D02*
D03*
X11201400Y11252200D02*
D03*
X11455400D02*
D03*
X11988800Y4521200D02*
D03*
Y4775200D02*
D03*
Y5715000D02*
D03*
Y5969000D02*
D03*
Y6908800D02*
D03*
Y7162800D02*
D03*
Y8102600D02*
D03*
Y8356600D02*
D03*
Y9296400D02*
D03*
Y9550400D02*
D03*
Y10998200D02*
D03*
Y10744200D02*
D03*
Y10490200D02*
D03*
X4089400Y7988300D02*
D03*
Y8242300D02*
D03*
Y8496300D02*
D03*
D91*
X10167300Y6197600D02*
D03*
X11417300D02*
D03*
X10167300Y5697600D02*
D03*
X11417300D02*
D03*
X6670200Y2975800D02*
D03*
X5420200D02*
D03*
X6670200Y3475800D02*
D03*
X5420200D02*
D03*
D92*
X11988800Y4267200D02*
D03*
Y5461000D02*
D03*
Y6654800D02*
D03*
Y7848600D02*
D03*
Y9042400D02*
D03*
Y10236200D02*
D03*
X4089400Y8750300D02*
D03*
D93*
X2819400Y6604000D02*
D03*
Y5080000D02*
D03*
D94*
X3098800Y3848100D02*
D03*
Y4229100D02*
D03*
D95*
X11112500Y2959100D02*
D03*
X10858500D02*
D03*
X10604500D02*
D03*
X10096500D02*
D03*
X10350500D02*
D03*
X8724900D02*
D03*
X8470900D02*
D03*
X8216900D02*
D03*
X7708900D02*
D03*
X7962900D02*
D03*
X8978900D02*
D03*
X9232900D02*
D03*
X9220000Y11645900D02*
D03*
X9474000D02*
D03*
X9728000D02*
D03*
X10236000D02*
D03*
X9982000D02*
D03*
X8966000D02*
D03*
X8712000D02*
D03*
X8001000Y11645900D02*
D03*
X7747000D02*
D03*
X7493000D02*
D03*
X6985000D02*
D03*
X6731000D02*
D03*
X6477000D02*
D03*
X5969000D02*
D03*
X6223000D02*
D03*
X7239000D02*
D03*
D96*
X9842500Y2959100D02*
D03*
X7454900D02*
D03*
X10490000Y11645900D02*
D03*
X5715000Y11645900D02*
D03*
D97*
X3009900Y7797800D02*
D03*
Y8712200D02*
D03*
D98*
X11874500Y11747500D02*
D03*
X2921000D02*
D03*
X11874500Y2921000D02*
D03*
X2921000D02*
D03*
D99*
X11112500Y5121300D02*
D03*
D100*
X10858500D02*
D03*
X10604500D02*
D03*
X10350500D02*
D03*
X10096500D02*
D03*
X9842500D02*
D03*
X9588500D02*
D03*
X9334500D02*
D03*
X9080500D02*
D03*
X8826500D02*
D03*
X8572500D02*
D03*
X8318500D02*
D03*
X8064500D02*
D03*
X7810500D02*
D03*
Y4327500D02*
D03*
X8064500D02*
D03*
X8318500D02*
D03*
X8572500D02*
D03*
X8826500D02*
D03*
X9080500D02*
D03*
X9334500D02*
D03*
X9588500D02*
D03*
X9842500D02*
D03*
X10096500D02*
D03*
X10350500D02*
D03*
X10604500D02*
D03*
X10858500D02*
D03*
X11112500D02*
D03*
D101*
X3172900Y6214500D02*
D03*
Y5469500D02*
D03*
D102*
X2792900Y6229500D02*
D03*
Y5454500D02*
D03*
D103*
X3067900Y6092000D02*
D03*
Y5592000D02*
D03*
D104*
X5151120Y2669540D02*
D03*
X7505700Y11036300D02*
D03*
X11442700Y3111500D02*
D03*
X9664700Y2679700D02*
D03*
X7099300Y2933700D02*
D03*
X3543300Y4051300D02*
D03*
X2870200Y5765800D02*
D03*
Y5981700D02*
D03*
D105*
X3835400Y5384800D02*
D03*
X4178300Y5981700D02*
D03*
Y5765800D02*
D03*
Y5549900D02*
D03*
X8039100Y9499600D02*
D03*
X8343900Y8280400D02*
D03*
X3162300Y9347200D02*
D03*
X11874500Y3657600D02*
D03*
X12369800Y3517900D02*
D03*
X5803900Y3835400D02*
D03*
X9664700Y3619500D02*
D03*
X8712200Y3657600D02*
D03*
X6396800Y4406900D02*
D03*
X11976100Y3937000D02*
D03*
X11252200Y3708400D02*
D03*
X8737600Y3441700D02*
D03*
X5651500Y5372100D02*
D03*
X5307960Y5993760D02*
D03*
X9969500Y8401150D02*
D03*
X9829800Y8013700D02*
D03*
X3123500Y8497000D02*
D03*
X3619500Y5511800D02*
D03*
X3937000Y6464300D02*
D03*
X3822700Y7137400D02*
D03*
X3873500Y9067800D02*
D03*
X5664200Y9131300D02*
D03*
X4991100Y6413500D02*
D03*
X5346700Y4305300D02*
D03*
X5765800Y4152900D02*
D03*
X7315200Y6438900D02*
D03*
X7467600Y6350000D02*
D03*
X7404100Y8394700D02*
D03*
X11137900Y7543800D02*
D03*
X11366500D02*
D03*
X8073932Y8391432D02*
D03*
X7950200Y8343900D02*
D03*
X7937500Y8229600D02*
D03*
X7594600Y3568700D02*
D03*
X8953500Y6273800D02*
D03*
X11277600Y4711700D02*
D03*
X11684000Y3975100D02*
D03*
X11214100Y3835400D02*
D03*
X11582400Y5270500D02*
D03*
Y6692900D02*
D03*
X11290300Y6426200D02*
D03*
X11112500Y6413500D02*
D03*
X11315700Y10515600D02*
D03*
X11125200Y10934700D02*
D03*
X11785600Y10807700D02*
D03*
X6553200Y6743700D02*
D03*
X11391900Y8813800D02*
D03*
X11315700Y8001000D02*
D03*
X11112500Y5422900D02*
D03*
X10922000Y4800600D02*
D03*
X10452100Y6311900D02*
D03*
X10363200Y5892800D02*
D03*
X9575800Y4851400D02*
D03*
X9867900D02*
D03*
X9575800Y4635500D02*
D03*
X9862524D02*
D03*
X11277600Y3556000D02*
D03*
X8305800Y3784600D02*
D03*
X7950200Y3543300D02*
D03*
X7874000Y3733800D02*
D03*
X6832600Y5334000D02*
D03*
Y5562600D02*
D03*
X7429500Y9359900D02*
D03*
X8013700Y9283700D02*
D03*
X8153400Y8775700D02*
D03*
X7366000Y5880100D02*
D03*
X6223000Y11341100D02*
D03*
X9715500Y3263900D02*
D03*
X4254500Y9499600D02*
D03*
X7000968Y4384768D02*
D03*
X5321300Y5778500D02*
D03*
X7162800Y4089400D02*
D03*
X7607300Y3886200D02*
D03*
X12354921Y4152900D02*
D03*
Y5346700D02*
D03*
Y6540500D02*
D03*
Y7734300D02*
D03*
Y8928100D02*
D03*
Y10121900D02*
D03*
X4175218Y6918418D02*
D03*
X4559300Y5410200D02*
D03*
X4968240Y5801360D02*
D03*
X5524500Y4851400D02*
D03*
X6134100Y3898900D02*
D03*
X5537200D02*
D03*
X6045200Y3238500D02*
D03*
X2870200Y4508500D02*
D03*
X2882900Y7061200D02*
D03*
X2755900Y8267700D02*
D03*
X2908300Y9436100D02*
D03*
X4114800Y4533900D02*
D03*
X4940300Y4406900D02*
D03*
X3606800Y7543800D02*
D03*
X6057900Y6680200D02*
D03*
X5927980Y6515100D02*
D03*
X6184900Y6375400D02*
D03*
X3276600Y5626100D02*
D03*
X4965700Y5943600D02*
D03*
X3467100Y5981700D02*
D03*
Y5765800D02*
D03*
%TF.MD5,99fa4bdcb754a230b4c79981ffc19279*%
M02*
