%TF.GenerationSoftware,Altium Limited,Altium Designer,24.3.1 (35)*%
G04 Layer_Color=16711935*
%FSLAX45Y45*%
%MOMM*%
%TF.SameCoordinates,7E0553B6-A888-4128-BDB4-EB5F29F5F182*%
%TF.FilePolarity,Negative*%
%TF.FileFunction,Soldermask,Bot*%
%TF.Part,Single*%
G01*
G75*
%TA.AperFunction,ComponentPad*%
%ADD87C,1.85320*%
G04:AMPARAMS|DCode=88|XSize=1.8532mm|YSize=1.8532mm|CornerRadius=0.5141mm|HoleSize=0mm|Usage=FLASHONLY|Rotation=90.000|XOffset=0mm|YOffset=0mm|HoleType=Round|Shape=RoundedRectangle|*
%AMROUNDEDRECTD88*
21,1,1.85320,0.82500,0,0,90.0*
21,1,0.82500,1.85320,0,0,90.0*
1,1,1.02820,0.41250,0.41250*
1,1,1.02820,0.41250,-0.41250*
1,1,1.02820,-0.41250,-0.41250*
1,1,1.02820,-0.41250,0.41250*
%
%ADD88ROUNDEDRECTD88*%
G04:AMPARAMS|DCode=89|XSize=1.8032mm|YSize=1.8032mm|CornerRadius=0.5016mm|HoleSize=0mm|Usage=FLASHONLY|Rotation=0.000|XOffset=0mm|YOffset=0mm|HoleType=Round|Shape=RoundedRectangle|*
%AMROUNDEDRECTD89*
21,1,1.80320,0.80000,0,0,0.0*
21,1,0.80000,1.80320,0,0,0.0*
1,1,1.00320,0.40000,-0.40000*
1,1,1.00320,-0.40000,-0.40000*
1,1,1.00320,-0.40000,0.40000*
1,1,1.00320,0.40000,0.40000*
%
%ADD89ROUNDEDRECTD89*%
%ADD90C,1.80320*%
%ADD91C,2.00320*%
G04:AMPARAMS|DCode=92|XSize=1.8032mm|YSize=1.8032mm|CornerRadius=0.5016mm|HoleSize=0mm|Usage=FLASHONLY|Rotation=90.000|XOffset=0mm|YOffset=0mm|HoleType=Round|Shape=RoundedRectangle|*
%AMROUNDEDRECTD92*
21,1,1.80320,0.80000,0,0,90.0*
21,1,0.80000,1.80320,0,0,90.0*
1,1,1.00320,0.40000,0.40000*
1,1,1.00320,0.40000,-0.40000*
1,1,1.00320,-0.40000,-0.40000*
1,1,1.00320,-0.40000,0.40000*
%
%ADD92ROUNDEDRECTD92*%
%ADD93C,2.48920*%
%TA.AperFunction,ViaPad*%
%ADD94C,2.00320*%
%TA.AperFunction,ComponentPad*%
%ADD95C,1.72320*%
G04:AMPARAMS|DCode=96|XSize=1.7232mm|YSize=1.7232mm|CornerRadius=0.4816mm|HoleSize=0mm|Usage=FLASHONLY|Rotation=0.000|XOffset=0mm|YOffset=0mm|HoleType=Round|Shape=RoundedRectangle|*
%AMROUNDEDRECTD96*
21,1,1.72320,0.76000,0,0,0.0*
21,1,0.76000,1.72320,0,0,0.0*
1,1,0.96320,0.38000,-0.38000*
1,1,0.96320,-0.38000,-0.38000*
1,1,0.96320,-0.38000,0.38000*
1,1,0.96320,0.38000,0.38000*
%
%ADD96ROUNDEDRECTD96*%
%ADD97R,1.85320X1.85320*%
%ADD98C,5.91820*%
%ADD99R,1.33620X1.33620*%
%ADD100C,1.33620*%
%ADD101O,2.20320X1.65320*%
%ADD102O,2.00320X1.35320*%
%ADD103C,1.00320*%
%TA.AperFunction,ViaPad*%
%ADD104C,1.47320*%
%ADD105C,0.96520*%
D87*
X5486400Y6959600D02*
D03*
X5740400D02*
D03*
X5486400Y6705600D02*
D03*
X8730727Y10646512D02*
D03*
X8984727D02*
D03*
X8730727Y10392512D02*
D03*
X8984727D02*
D03*
X8730727Y10138512D02*
D03*
X8984727D02*
D03*
X8730727Y9884512D02*
D03*
X8984727D02*
D03*
Y9630512D02*
D03*
X8730727Y9376512D02*
D03*
X8984727D02*
D03*
X8730727Y9122512D02*
D03*
X8984727D02*
D03*
X8730727Y8868512D02*
D03*
X8984727D02*
D03*
X8730727Y8614512D02*
D03*
X8984727D02*
D03*
X8730727Y8360512D02*
D03*
X8984727D02*
D03*
X8730727Y8106512D02*
D03*
X8984727D02*
D03*
X8730727Y7852512D02*
D03*
X8984727D02*
D03*
X8730727Y7598512D02*
D03*
X8984727D02*
D03*
X8730727Y7344512D02*
D03*
X8984727D02*
D03*
X8730727Y7090512D02*
D03*
X8984727D02*
D03*
X8730727Y9630512D02*
D03*
X6656727Y10646512D02*
D03*
X6910727D02*
D03*
X6656727Y10392512D02*
D03*
X6910727D02*
D03*
X6656727Y10138512D02*
D03*
X6910727D02*
D03*
X6656727Y9884512D02*
D03*
X6910727D02*
D03*
Y9630512D02*
D03*
X6656727Y9376512D02*
D03*
X6910727D02*
D03*
X6656727Y9122512D02*
D03*
X6910727D02*
D03*
X6656727Y8868512D02*
D03*
X6910727D02*
D03*
X6656727Y8614512D02*
D03*
X6910727D02*
D03*
X6656727Y8360512D02*
D03*
X6910727D02*
D03*
X6656727Y8106512D02*
D03*
X6910727D02*
D03*
X6656727Y7852512D02*
D03*
X6910727D02*
D03*
X6656727Y7598512D02*
D03*
X6910727D02*
D03*
X6656727Y7344512D02*
D03*
X6910727D02*
D03*
X6656727Y7090512D02*
D03*
X6910727D02*
D03*
X6656727Y9630512D02*
D03*
X3009900Y8051800D02*
D03*
X3263900Y7797800D02*
D03*
Y8051800D02*
D03*
X3517900Y7797800D02*
D03*
Y8051800D02*
D03*
X3009900Y8966200D02*
D03*
X3263900Y8712200D02*
D03*
Y8966200D02*
D03*
X3517900Y8712200D02*
D03*
Y8966200D02*
D03*
D88*
X5740400Y6705600D02*
D03*
D89*
X4559300Y3695700D02*
D03*
X7594600Y7805400D02*
D03*
X10947400Y11252200D02*
D03*
D90*
X4813300Y3695700D02*
D03*
X5067300D02*
D03*
X7848600Y7805400D02*
D03*
X8102600D02*
D03*
X11201400Y11252200D02*
D03*
X11455400D02*
D03*
X11988800Y4521200D02*
D03*
Y4775200D02*
D03*
Y5715000D02*
D03*
Y5969000D02*
D03*
Y6908800D02*
D03*
Y7162800D02*
D03*
Y8102600D02*
D03*
Y8356600D02*
D03*
Y9296400D02*
D03*
Y9550400D02*
D03*
Y10998200D02*
D03*
Y10744200D02*
D03*
Y10490200D02*
D03*
X4089400Y7988300D02*
D03*
Y8242300D02*
D03*
Y8496300D02*
D03*
D91*
X10167300Y6197600D02*
D03*
X11417300D02*
D03*
X10167300Y5697600D02*
D03*
X11417300D02*
D03*
X6670200Y2975800D02*
D03*
X5420200D02*
D03*
X6670200Y3475800D02*
D03*
X5420200D02*
D03*
D92*
X11988800Y4267200D02*
D03*
Y5461000D02*
D03*
Y6654800D02*
D03*
Y7848600D02*
D03*
Y9042400D02*
D03*
Y10236200D02*
D03*
X4089400Y8750300D02*
D03*
D93*
X2819400Y6604000D02*
D03*
Y5080000D02*
D03*
D94*
X3098800Y3848100D02*
D03*
Y4229100D02*
D03*
D95*
X11112500Y2959100D02*
D03*
X10858500D02*
D03*
X10604500D02*
D03*
X10096500D02*
D03*
X10350500D02*
D03*
X8724900D02*
D03*
X8470900D02*
D03*
X8216900D02*
D03*
X7708900D02*
D03*
X7962900D02*
D03*
X8978900D02*
D03*
X9232900D02*
D03*
X9220000Y11645900D02*
D03*
X9474000D02*
D03*
X9728000D02*
D03*
X10236000D02*
D03*
X9982000D02*
D03*
X8966000D02*
D03*
X8712000D02*
D03*
X8001000Y11645900D02*
D03*
X7747000D02*
D03*
X7493000D02*
D03*
X6985000D02*
D03*
X6731000D02*
D03*
X6477000D02*
D03*
X5969000D02*
D03*
X6223000D02*
D03*
X7239000D02*
D03*
D96*
X9842500Y2959100D02*
D03*
X7454900D02*
D03*
X10490000Y11645900D02*
D03*
X5715000Y11645900D02*
D03*
D97*
X3009900Y7797800D02*
D03*
Y8712200D02*
D03*
D98*
X11874500Y11747500D02*
D03*
X2921000D02*
D03*
X11874500Y2921000D02*
D03*
X2921000D02*
D03*
D99*
X11112500Y5121300D02*
D03*
D100*
X10858500D02*
D03*
X10604500D02*
D03*
X10350500D02*
D03*
X10096500D02*
D03*
X9842500D02*
D03*
X9588500D02*
D03*
X9334500D02*
D03*
X9080500D02*
D03*
X8826500D02*
D03*
X8572500D02*
D03*
X8318500D02*
D03*
X8064500D02*
D03*
X7810500D02*
D03*
Y4327500D02*
D03*
X8064500D02*
D03*
X8318500D02*
D03*
X8572500D02*
D03*
X8826500D02*
D03*
X9080500D02*
D03*
X9334500D02*
D03*
X9588500D02*
D03*
X9842500D02*
D03*
X10096500D02*
D03*
X10350500D02*
D03*
X10604500D02*
D03*
X10858500D02*
D03*
X11112500D02*
D03*
D101*
X3172900Y6214500D02*
D03*
Y5469500D02*
D03*
D102*
X2792900Y6229500D02*
D03*
Y5454500D02*
D03*
D103*
X3067900Y6092000D02*
D03*
Y5592000D02*
D03*
D104*
X5151120Y2669540D02*
D03*
X7505700Y11036300D02*
D03*
X11442700Y3111500D02*
D03*
X9664700Y2679700D02*
D03*
X7099300Y2933700D02*
D03*
X3543300Y4051300D02*
D03*
X2870200Y5765800D02*
D03*
Y5981700D02*
D03*
D105*
X3835400Y5384800D02*
D03*
X4178300Y5981700D02*
D03*
Y5765800D02*
D03*
Y5549900D02*
D03*
X8039100Y9499600D02*
D03*
X8343900Y8280400D02*
D03*
X3162300Y9347200D02*
D03*
X11874500Y3657600D02*
D03*
X12369800Y3517900D02*
D03*
X5803900Y3835400D02*
D03*
X9664700Y3619500D02*
D03*
X8712200Y3657600D02*
D03*
X6396800Y4406900D02*
D03*
X11976100Y3937000D02*
D03*
X11252200Y3708400D02*
D03*
X8737600Y3441700D02*
D03*
X5651500Y5372100D02*
D03*
X5307960Y5993760D02*
D03*
X9969500Y8401150D02*
D03*
X9829800Y8013700D02*
D03*
X3123500Y8497000D02*
D03*
X3619500Y5511800D02*
D03*
X3937000Y6464300D02*
D03*
X3822700Y7137400D02*
D03*
X3873500Y9067800D02*
D03*
X5664200Y9131300D02*
D03*
X4991100Y6413500D02*
D03*
X5346700Y4305300D02*
D03*
X5765800Y4152900D02*
D03*
X7315200Y6438900D02*
D03*
X7467600Y6350000D02*
D03*
X7404100Y8394700D02*
D03*
X11137900Y7543800D02*
D03*
X11366500D02*
D03*
X8073932Y8391432D02*
D03*
X7950200Y8343900D02*
D03*
X7937500Y8229600D02*
D03*
X7594600Y3568700D02*
D03*
X8953500Y6273800D02*
D03*
X11277600Y4711700D02*
D03*
X11684000Y3975100D02*
D03*
X11214100Y3835400D02*
D03*
X11582400Y5270500D02*
D03*
Y6692900D02*
D03*
X11290300Y6426200D02*
D03*
X11112500Y6413500D02*
D03*
X11315700Y10515600D02*
D03*
X11125200Y10934700D02*
D03*
X11785600Y10807700D02*
D03*
X6553200Y6743700D02*
D03*
X11391900Y8813800D02*
D03*
X11315700Y8001000D02*
D03*
X11112500Y5422900D02*
D03*
X10922000Y4800600D02*
D03*
X10452100Y6311900D02*
D03*
X10363200Y5892800D02*
D03*
X9575800Y4851400D02*
D03*
X9867900D02*
D03*
X9575800Y4635500D02*
D03*
X9862524D02*
D03*
X11277600Y3556000D02*
D03*
X8305800Y3784600D02*
D03*
X7950200Y3543300D02*
D03*
X7874000Y3733800D02*
D03*
X6832600Y5334000D02*
D03*
Y5562600D02*
D03*
X7429500Y9359900D02*
D03*
X8013700Y9283700D02*
D03*
X8153400Y8775700D02*
D03*
X7366000Y5880100D02*
D03*
X6223000Y11341100D02*
D03*
X9715500Y3263900D02*
D03*
X4254500Y9499600D02*
D03*
X7000968Y4384768D02*
D03*
X5321300Y5778500D02*
D03*
X7162800Y4089400D02*
D03*
X7607300Y3886200D02*
D03*
X12354921Y4152900D02*
D03*
Y5346700D02*
D03*
Y6540500D02*
D03*
Y7734300D02*
D03*
Y8928100D02*
D03*
Y10121900D02*
D03*
X4175218Y6918418D02*
D03*
X4559300Y5410200D02*
D03*
X4968240Y5801360D02*
D03*
X5524500Y4851400D02*
D03*
X6134100Y3898900D02*
D03*
X5537200D02*
D03*
X6045200Y3238500D02*
D03*
X2870200Y4508500D02*
D03*
X2882900Y7061200D02*
D03*
X2755900Y8267700D02*
D03*
X2908300Y9436100D02*
D03*
X4114800Y4533900D02*
D03*
X4940300Y4406900D02*
D03*
X3606800Y7543800D02*
D03*
X6057900Y6680200D02*
D03*
X5927980Y6515100D02*
D03*
X6184900Y6375400D02*
D03*
X3276600Y5626100D02*
D03*
X4965700Y5943600D02*
D03*
X3467100Y5981700D02*
D03*
Y5765800D02*
D03*
%TF.MD5,8165fb6c79fc33af9ce96447eb77548a*%
M02*
