%TF.GenerationSoftware,Altium Limited,Altium Designer,24.3.1 (35)*%
G04 Layer_Color=8421504*
%FSLAX45Y45*%
%MOMM*%
%TF.SameCoordinates,7E0553B6-A888-4128-BDB4-EB5F29F5F182*%
%TF.FilePolarity,Positive*%
%TF.FileFunction,Paste,Top*%
%TF.Part,Single*%
G01*
G75*
%TA.AperFunction,SMDPad,CuDef*%
%ADD10R,1.30000X0.90000*%
%ADD11R,1.45000X0.95000*%
%ADD12R,0.90000X1.30000*%
G04:AMPARAMS|DCode=13|XSize=1.651mm|YSize=5.08mm|CornerRadius=0.41275mm|HoleSize=0mm|Usage=FLASHONLY|Rotation=270.000|XOffset=0mm|YOffset=0mm|HoleType=Round|Shape=RoundedRectangle|*
%AMROUNDEDRECTD13*
21,1,1.65100,4.25450,0,0,270.0*
21,1,0.82550,5.08000,0,0,270.0*
1,1,0.82550,-2.12725,-0.41275*
1,1,0.82550,-2.12725,0.41275*
1,1,0.82550,2.12725,0.41275*
1,1,0.82550,2.12725,-0.41275*
%
%ADD13ROUNDEDRECTD13*%
%ADD14R,0.95000X1.45000*%
%ADD15R,1.10000X1.30000*%
%ADD16R,0.65000X1.52500*%
%ADD17R,0.60000X1.20000*%
%ADD18R,0.50000X1.00000*%
%ADD19R,1.90000X2.60000*%
%ADD20R,1.00000X0.90000*%
%ADD21R,0.70000X2.40000*%
%ADD22R,3.20000X2.40000*%
%ADD23R,1.20000X0.60000*%
%ADD24R,0.60000X1.47500*%
%ADD25R,1.47500X0.60000*%
%TA.AperFunction,ConnectorPad*%
%ADD26R,1.29540X0.38100*%
%TA.AperFunction,SMDPad,CuDef*%
%ADD27R,1.00000X0.95000*%
%ADD28R,1.60000X3.50000*%
D10*
X7594600Y3441700D02*
D03*
Y3211700D02*
D03*
X8191500Y8046000D02*
D03*
Y8276000D02*
D03*
Y9346500D02*
D03*
Y9576500D02*
D03*
X11976100Y3542600D02*
D03*
Y3772600D02*
D03*
X11772900Y3542600D02*
D03*
Y3772600D02*
D03*
X8737600Y6057200D02*
D03*
Y6287200D02*
D03*
X9182100Y6057200D02*
D03*
Y6287200D02*
D03*
X11709400Y4864800D02*
D03*
Y4634800D02*
D03*
Y6084000D02*
D03*
Y5854000D02*
D03*
Y7277800D02*
D03*
Y7047800D02*
D03*
Y8458900D02*
D03*
Y8228900D02*
D03*
X11722100Y9652700D02*
D03*
Y9422700D02*
D03*
X6807200Y4509200D02*
D03*
Y4279200D02*
D03*
X6553200Y4509200D02*
D03*
Y4279200D02*
D03*
X5702300Y5093400D02*
D03*
Y4863400D02*
D03*
X5199380Y5192300D02*
D03*
Y4962300D02*
D03*
X4960620Y5192300D02*
D03*
Y4962300D02*
D03*
X4483100Y5192300D02*
D03*
Y4962300D02*
D03*
X4721860Y5192300D02*
D03*
Y4962300D02*
D03*
X5676900Y3999800D02*
D03*
Y4229800D02*
D03*
X5448300Y3999800D02*
D03*
Y4229800D02*
D03*
X4432300Y4050600D02*
D03*
Y4280600D02*
D03*
X2946400Y8267000D02*
D03*
Y8497000D02*
D03*
X4927600Y6312600D02*
D03*
Y6082600D02*
D03*
D11*
X7794693Y3401860D02*
D03*
Y3201860D02*
D03*
X8002126D02*
D03*
Y3401860D02*
D03*
X11557000Y4278300D02*
D03*
Y4078300D02*
D03*
X11341100D02*
D03*
Y4278300D02*
D03*
X3378200Y6856400D02*
D03*
Y6656400D02*
D03*
X3467100Y4967300D02*
D03*
Y5167300D02*
D03*
X6134100Y4227500D02*
D03*
Y4027500D02*
D03*
X5905500Y4227500D02*
D03*
Y4027500D02*
D03*
X5918200Y4497400D02*
D03*
Y4697400D02*
D03*
X4711700Y6097600D02*
D03*
Y6297600D02*
D03*
X6045200Y5154600D02*
D03*
Y4954600D02*
D03*
D12*
X8420800Y3234200D02*
D03*
X8190800D02*
D03*
X8814500D02*
D03*
X8584500D02*
D03*
X9333800Y5308600D02*
D03*
X9563800D02*
D03*
X11315000Y10769600D02*
D03*
X11545000D02*
D03*
X9525700Y3784600D02*
D03*
X9295700D02*
D03*
X9525700Y3594100D02*
D03*
X9295700D02*
D03*
X8902000Y3784600D02*
D03*
X9132000D02*
D03*
X8902000Y3594100D02*
D03*
X9132000D02*
D03*
X9346500Y4140200D02*
D03*
X9576500D02*
D03*
X5320600Y9131300D02*
D03*
X5550600D02*
D03*
X3158900Y9207500D02*
D03*
X2928900D02*
D03*
X3466400Y7099300D02*
D03*
X3696400D02*
D03*
X3798000Y6464300D02*
D03*
X3568000D02*
D03*
X7481000Y11391900D02*
D03*
X7251000D02*
D03*
D13*
X6783727Y7090512D02*
D03*
Y7344512D02*
D03*
Y7598512D02*
D03*
Y7852512D02*
D03*
Y8106512D02*
D03*
Y8360512D02*
D03*
Y8614512D02*
D03*
Y8868512D02*
D03*
Y9122512D02*
D03*
Y9376512D02*
D03*
Y9630512D02*
D03*
Y9884512D02*
D03*
Y10138512D02*
D03*
Y10392512D02*
D03*
Y10646512D02*
D03*
X8857727Y7344512D02*
D03*
Y7852512D02*
D03*
Y8360512D02*
D03*
Y8868512D02*
D03*
Y9376512D02*
D03*
Y9884512D02*
D03*
Y10392512D02*
D03*
Y7090512D02*
D03*
Y7598512D02*
D03*
Y8106512D02*
D03*
Y8614512D02*
D03*
Y9122512D02*
D03*
Y9630512D02*
D03*
Y10138512D02*
D03*
Y10646512D02*
D03*
D14*
X11530000Y4559300D02*
D03*
X11330000D02*
D03*
X6478600Y5334000D02*
D03*
X6678600D02*
D03*
X6478600Y5562600D02*
D03*
X6678600D02*
D03*
X6653200Y6205220D02*
D03*
X6453200D02*
D03*
X7786700Y8084800D02*
D03*
X7986700D02*
D03*
X11580800Y3365500D02*
D03*
X11380800D02*
D03*
X8624900Y4147540D02*
D03*
X8824900D02*
D03*
X11530000Y10985500D02*
D03*
X11330000D02*
D03*
X8840800Y5308600D02*
D03*
X9040800D02*
D03*
X3414700Y4749800D02*
D03*
X3214700D02*
D03*
X7173900Y5778500D02*
D03*
X6973900D02*
D03*
X7173900Y5994400D02*
D03*
X6973900D02*
D03*
X5154600Y9131300D02*
D03*
X4954600D02*
D03*
X3333420Y6469380D02*
D03*
X3133420D02*
D03*
X5018100Y6604000D02*
D03*
X5218100D02*
D03*
X3265500Y7543800D02*
D03*
X3465500D02*
D03*
X3837000Y5981700D02*
D03*
X4037000D02*
D03*
X3837000Y5765800D02*
D03*
X4037000D02*
D03*
Y5549900D02*
D03*
X3837000D02*
D03*
D15*
X6670900Y5994400D02*
D03*
X6460900D02*
D03*
X3267300Y4965700D02*
D03*
X3057300D02*
D03*
X6670900Y5778500D02*
D03*
X6460900D02*
D03*
X4778600Y9131300D02*
D03*
X4568600D02*
D03*
D16*
X8191500Y8575600D02*
D03*
X8064500D02*
D03*
X7937500D02*
D03*
X7810500D02*
D03*
X7683500D02*
D03*
X7556500D02*
D03*
X7429500D02*
D03*
Y9118000D02*
D03*
X7556500D02*
D03*
X7683500D02*
D03*
X7810500D02*
D03*
X7937500D02*
D03*
X8064500D02*
D03*
X8191500D02*
D03*
D17*
X11575800Y3558000D02*
D03*
X11385800D02*
D03*
Y3808000D02*
D03*
X11480800D02*
D03*
X11575800D02*
D03*
X3588000Y6906800D02*
D03*
X3778000D02*
D03*
Y6656800D02*
D03*
X3683000D02*
D03*
X3588000D02*
D03*
D18*
X11430000Y5085700D02*
D03*
Y4845700D02*
D03*
X3152140Y6674500D02*
D03*
Y6914500D02*
D03*
D19*
X8738500Y5702300D02*
D03*
X9168500D02*
D03*
X6363600Y4940300D02*
D03*
X6793600D02*
D03*
D20*
X9321800Y3209700D02*
D03*
Y3419700D02*
D03*
X9105900Y3209700D02*
D03*
Y3419700D02*
D03*
X5440640Y5172300D02*
D03*
Y4962300D02*
D03*
D21*
X4686300Y4108180D02*
D03*
X4813300D02*
D03*
X4940300D02*
D03*
X5067300D02*
D03*
X5194300D02*
D03*
D22*
X4940300Y4713180D02*
D03*
D23*
X3977100Y9315200D02*
D03*
Y9220200D02*
D03*
Y9125200D02*
D03*
X4227100D02*
D03*
Y9315200D02*
D03*
X5450300Y4692400D02*
D03*
Y4597400D02*
D03*
Y4502400D02*
D03*
X5700300D02*
D03*
Y4692400D02*
D03*
D24*
X5300380Y5529960D02*
D03*
X5380380D02*
D03*
X5460380D02*
D03*
X5540380D02*
D03*
X5620380D02*
D03*
X5700380D02*
D03*
X5780380D02*
D03*
X5860380D02*
D03*
Y6377560D02*
D03*
X5780380D02*
D03*
X5700380D02*
D03*
X5620380D02*
D03*
X5540380D02*
D03*
X5460380D02*
D03*
X5380380D02*
D03*
X5300380D02*
D03*
D25*
X6004180Y5673760D02*
D03*
Y5753760D02*
D03*
Y5833760D02*
D03*
Y5913760D02*
D03*
Y5993760D02*
D03*
Y6073760D02*
D03*
Y6153760D02*
D03*
Y6233760D02*
D03*
X5156580D02*
D03*
Y6153760D02*
D03*
Y6073760D02*
D03*
Y5993760D02*
D03*
Y5913760D02*
D03*
Y5833760D02*
D03*
Y5753760D02*
D03*
Y5673760D02*
D03*
D26*
X3172900Y5972000D02*
D03*
Y5712000D02*
D03*
Y5907000D02*
D03*
Y5842000D02*
D03*
Y5777000D02*
D03*
D27*
X3619500Y5982980D02*
D03*
Y6142980D02*
D03*
Y5761980D02*
D03*
Y5601980D02*
D03*
D28*
X3949700Y5042500D02*
D03*
Y4482500D02*
D03*
Y3899500D02*
D03*
Y3339500D02*
D03*
%TF.MD5,db987b558875157493d356ce3d0e2603*%
M02*
